M48
; DRILL file {KiCad (6.0.9)} date Thu Dec  1 16:54:54 2022
; FORMAT={-:-/ absolute / inch / decimal}
; #@! TF.CreationDate,2022-12-01T16:54:54+00:00
; #@! TF.GenerationSoftware,Kicad,Pcbnew,(6.0.9)
; #@! TF.FileFunction,Plated,1,2,PTH
FMAT,2
INCH
; #@! TA.AperFunction,Plated,PTH,ComponentDrill
T1C0.0315
; #@! TA.AperFunction,Plated,PTH,ComponentDrill
T2C0.0390
; #@! TA.AperFunction,Plated,PTH,ComponentDrill
T3C0.0430
; #@! TA.AperFunction,Plated,PTH,ComponentDrill
T4C0.0472
%
G90
G05
T1
X1.0Y-2.84
X1.0Y-2.97
X1.4Y-2.84
X1.4Y-2.97
X1.62Y-2.27
X1.62Y-2.57
X1.75Y-2.27
X1.75Y-2.57
X1.96Y-0.97
X1.96Y-1.27
X2.07Y-0.92
X2.07Y-1.22
X2.18Y-0.87
X2.18Y-1.17
X2.29Y-0.82
X2.29Y-1.12
X2.4Y-0.97
X2.4Y-1.27
X2.51Y-0.92
X2.51Y-1.22
X2.62Y-0.87
X2.62Y-1.17
X2.73Y-0.82
X2.73Y-1.12
X2.85Y-0.97
X2.85Y-1.27
X2.96Y-0.92
X2.96Y-1.22
X3.07Y-0.87
X3.07Y-1.17
X3.18Y-0.82
X3.18Y-1.12
X3.3Y-0.97
X3.3Y-1.27
X3.41Y-0.92
X3.41Y-1.22
X3.52Y-0.87
X3.52Y-1.17
X3.63Y-0.82
X3.63Y-1.12
T2
X1.2205Y-2.2728
X1.2205Y-2.3728
X1.2205Y-2.55
X1.2205Y-2.65
T3
X1.1443Y-1.0243
X1.1443Y-1.1243
X1.1443Y-1.2243
X1.1443Y-1.3243
X1.1443Y-1.4243
X1.1443Y-1.5243
X1.1443Y-1.6243
X1.1443Y-1.7243
X1.1443Y-1.8243
X1.1443Y-1.9243
X1.1443Y-2.0243
X1.1533Y-2.1243
X1.2443Y-2.1243
X1.3443Y-2.1243
X1.4443Y-2.1243
X1.5443Y-2.1243
X1.6443Y-2.1243
X1.7443Y-1.0243
X1.7443Y-1.1243
X1.7443Y-1.2243
X1.7443Y-1.3243
X1.7443Y-1.4243
X1.7443Y-1.5243
X1.7443Y-1.6243
X1.7443Y-1.7243
X1.7443Y-1.8243
X1.7443Y-1.9243
X1.7443Y-2.0243
X1.7443Y-2.1243
T4
X1.572Y-2.8416
X1.572Y-3.0187
X1.828Y-2.8416
X1.828Y-3.0187
X1.972Y-1.3916
X1.972Y-1.5687
X1.972Y-1.7516
X1.972Y-1.9287
X1.972Y-2.1116
X1.972Y-2.2887
X1.972Y-2.4816
X1.972Y-2.6587
X2.202Y-2.8516
X2.202Y-3.0287
X2.228Y-1.3916
X2.228Y-1.5687
X2.228Y-1.7516
X2.228Y-1.9287
X2.228Y-2.1116
X2.228Y-2.2887
X2.228Y-2.4816
X2.228Y-2.6587
X2.412Y-1.3916
X2.412Y-1.5687
X2.412Y-1.75
X2.412Y-1.9272
X2.412Y-2.1116
X2.412Y-2.2887
X2.412Y-2.4816
X2.412Y-2.6587
X2.458Y-2.8516
X2.458Y-3.0287
X2.668Y-1.3916
X2.668Y-1.5687
X2.668Y-1.75
X2.668Y-1.9272
X2.668Y-2.1116
X2.668Y-2.2887
X2.668Y-2.4816
X2.668Y-2.6587
X2.852Y-1.3916
X2.852Y-1.5687
X2.852Y-1.7516
X2.852Y-1.9287
X2.852Y-2.1116
X2.852Y-2.2887
X2.852Y-2.4816
X2.852Y-2.6587
X2.852Y-2.8516
X2.852Y-3.0287
X3.108Y-1.3916
X3.108Y-1.5687
X3.108Y-1.7516
X3.108Y-1.9287
X3.108Y-2.1116
X3.108Y-2.2887
X3.108Y-2.4816
X3.108Y-2.6587
X3.108Y-2.8516
X3.108Y-3.0287
X3.302Y-1.3916
X3.302Y-1.5687
X3.302Y-1.9316
X3.302Y-2.1087
X3.302Y-2.6616
X3.302Y-2.8387
X3.558Y-1.3916
X3.558Y-1.5687
X3.558Y-1.9316
X3.558Y-2.1087
X3.558Y-2.6616
X3.558Y-2.8387
T0
M30
