%TF.GenerationSoftware,KiCad,Pcbnew,(6.0.9)*%
%TF.CreationDate,2022-12-01T16:54:59+00:00*%
%TF.ProjectId,PocketPad,506f636b-6574-4506-9164-2e6b69636164,rev?*%
%TF.SameCoordinates,Original*%
%TF.FileFunction,Soldermask,Bot*%
%TF.FilePolarity,Negative*%
%FSLAX46Y46*%
G04 Gerber Fmt 4.6, Leading zero omitted, Abs format (unit mm)*
G04 Created by KiCad (PCBNEW (6.0.9)) date 2022-12-01 16:54:59*
%MOMM*%
%LPD*%
G01*
G04 APERTURE LIST*
%ADD10C,2.000000*%
%ADD11R,1.600000X1.600000*%
%ADD12O,1.600000X1.600000*%
%ADD13R,1.752600X1.752600*%
%ADD14C,1.752600*%
%ADD15C,2.200000*%
%ADD16C,1.600000*%
G04 APERTURE END LIST*
D10*
%TO.C,SW2*%
X72442000Y-35346000D03*
X78942000Y-35346000D03*
X72442000Y-39846000D03*
X78942000Y-39846000D03*
%TD*%
%TO.C,SW7*%
X83872000Y-49062000D03*
X90372000Y-49062000D03*
X83872000Y-53562000D03*
X90372000Y-53562000D03*
%TD*%
%TO.C,SW3*%
X83872000Y-35346000D03*
X90372000Y-35346000D03*
X83872000Y-39846000D03*
X90372000Y-39846000D03*
%TD*%
%TO.C,SW16*%
X39930000Y-72176000D03*
X46430000Y-72176000D03*
X39930000Y-76676000D03*
X46430000Y-76676000D03*
%TD*%
%TO.C,SW17*%
X55932000Y-72430000D03*
X62432000Y-72430000D03*
X55932000Y-76930000D03*
X62432000Y-76930000D03*
%TD*%
%TO.C,SW8*%
X50090000Y-53634000D03*
X56590000Y-53634000D03*
X50090000Y-58134000D03*
X56590000Y-58134000D03*
%TD*%
D11*
%TO.C,D16*%
X41148000Y-65278000D03*
D12*
X41148000Y-57658000D03*
%TD*%
D11*
%TO.C,D1*%
X60960000Y-32258000D03*
D12*
X60960000Y-24638000D03*
%TD*%
D11*
%TO.C,D5*%
X63754000Y-30988000D03*
D12*
X63754000Y-23368000D03*
%TD*%
D11*
%TO.C,D13*%
X69342000Y-28448000D03*
D12*
X69342000Y-20828000D03*
%TD*%
D10*
%TO.C,SW13*%
X61266000Y-63032000D03*
X67766000Y-63032000D03*
X61266000Y-67532000D03*
X67766000Y-67532000D03*
%TD*%
%TO.C,SW14*%
X72442000Y-63032000D03*
X78942000Y-63032000D03*
X72442000Y-67532000D03*
X78942000Y-67532000D03*
%TD*%
%TO.C,SW6*%
X72442000Y-44490000D03*
X78942000Y-44490000D03*
X72442000Y-48990000D03*
X78942000Y-48990000D03*
%TD*%
D11*
%TO.C,D4*%
X52578000Y-30988000D03*
D12*
X52578000Y-23368000D03*
%TD*%
D13*
%TO.C,MCU1*%
X29064000Y-26016750D03*
D14*
X29064000Y-28556750D03*
X29064000Y-31096750D03*
X29064000Y-33636750D03*
X29064000Y-36176750D03*
X29064000Y-38716750D03*
X29064000Y-41256750D03*
X29064000Y-43796750D03*
X29064000Y-46336750D03*
X29064000Y-48876750D03*
X29064000Y-51416750D03*
X29292600Y-53956750D03*
X44304000Y-53956750D03*
X44304000Y-51416750D03*
X44304000Y-48876750D03*
X44304000Y-46336750D03*
X44304000Y-43796750D03*
X44304000Y-41256750D03*
X44304000Y-38716750D03*
X44304000Y-36176750D03*
X44304000Y-33636750D03*
X44304000Y-31096750D03*
X44304000Y-28556750D03*
X44304000Y-26016750D03*
X31604000Y-53956750D03*
X34144000Y-53956750D03*
X36684000Y-53956750D03*
X39224000Y-53956750D03*
X41764000Y-53956750D03*
%TD*%
D11*
%TO.C,D15*%
X92202000Y-28448000D03*
D12*
X92202000Y-20828000D03*
%TD*%
D11*
%TO.C,D3*%
X83820000Y-32258000D03*
D12*
X83820000Y-24638000D03*
%TD*%
D11*
%TO.C,D12*%
X58166000Y-28448000D03*
D12*
X58166000Y-20828000D03*
%TD*%
D11*
%TO.C,D11*%
X89408000Y-29718000D03*
D12*
X89408000Y-22098000D03*
%TD*%
D11*
%TO.C,D10*%
X77978000Y-29718000D03*
D12*
X77978000Y-22098000D03*
%TD*%
D11*
%TO.C,D8*%
X55372000Y-29718000D03*
D12*
X55372000Y-22098000D03*
%TD*%
D10*
%TO.C,SW12*%
X50090000Y-63032000D03*
X56590000Y-63032000D03*
X50090000Y-67532000D03*
X56590000Y-67532000D03*
%TD*%
%TO.C,SW5*%
X61266000Y-44450000D03*
X67766000Y-44450000D03*
X61266000Y-48950000D03*
X67766000Y-48950000D03*
%TD*%
%TO.C,SW9*%
X61266000Y-53634000D03*
X67766000Y-53634000D03*
X61266000Y-58134000D03*
X67766000Y-58134000D03*
%TD*%
D11*
%TO.C,D14*%
X80772000Y-28448000D03*
D12*
X80772000Y-20828000D03*
%TD*%
D15*
%TO.C,REF\u002A\u002A*%
X23730000Y-79910000D03*
%TD*%
%TO.C,REF\u002A\u002A*%
X95358000Y-18188000D03*
%TD*%
D16*
%TO.C,PWR-R1*%
X25400000Y-72136000D03*
D12*
X35560000Y-72136000D03*
%TD*%
D10*
%TO.C,SW1*%
X61266000Y-35346000D03*
X67766000Y-35346000D03*
X61266000Y-39846000D03*
X67766000Y-39846000D03*
%TD*%
%TO.C,SW15*%
X72442000Y-72430000D03*
X78942000Y-72430000D03*
X72442000Y-76930000D03*
X78942000Y-76930000D03*
%TD*%
D11*
%TO.C,D7*%
X86614000Y-30988000D03*
D12*
X86614000Y-23368000D03*
%TD*%
D15*
%TO.C,REF\u002A\u002A*%
X23730000Y-18188000D03*
%TD*%
D11*
%TO.C,D6*%
X75184000Y-30988000D03*
D12*
X75184000Y-23368000D03*
%TD*%
D10*
%TO.C,SW0*%
X50090000Y-35346000D03*
X56590000Y-35346000D03*
X50090000Y-39846000D03*
X56590000Y-39846000D03*
%TD*%
D15*
%TO.C,REF\u002A\u002A*%
X95358000Y-79910000D03*
%TD*%
D10*
%TO.C,SW10*%
X72442000Y-53634000D03*
X78942000Y-53634000D03*
X72442000Y-58134000D03*
X78942000Y-58134000D03*
%TD*%
D11*
%TO.C,D2*%
X72390000Y-32258000D03*
D12*
X72390000Y-24638000D03*
%TD*%
D11*
%TO.C,D9*%
X66548000Y-29718000D03*
D12*
X66548000Y-22098000D03*
%TD*%
D11*
%TO.C,D0*%
X49784000Y-32258000D03*
D12*
X49784000Y-24638000D03*
%TD*%
D10*
%TO.C,SW4*%
X50090000Y-44490000D03*
X56590000Y-44490000D03*
X50090000Y-48990000D03*
X56590000Y-48990000D03*
%TD*%
D16*
%TO.C,ACT-R1*%
X35560000Y-75438000D03*
D12*
X25400000Y-75438000D03*
%TD*%
D11*
%TO.C,D17*%
X44450000Y-65278000D03*
D12*
X44450000Y-57658000D03*
%TD*%
D10*
%TO.C,SW11*%
X83872000Y-67604000D03*
X90372000Y-67604000D03*
X83872000Y-72104000D03*
X90372000Y-72104000D03*
%TD*%
M02*
