M48
; DRILL file {KiCad (6.0.9)} date Tue Dec  6 22:32:57 2022
; FORMAT={-:-/ absolute / inch / decimal}
; #@! TF.CreationDate,2022-12-06T22:32:57+00:00
; #@! TF.GenerationSoftware,Kicad,Pcbnew,(6.0.9)
; #@! TF.FileFunction,Plated,1,2,PTH
FMAT,2
INCH
; #@! TA.AperFunction,Plated,PTH,ComponentDrill
T1C0.0315
; #@! TA.AperFunction,Plated,PTH,ComponentDrill
T2C0.0390
; #@! TA.AperFunction,Plated,PTH,ComponentDrill
T3C0.0430
; #@! TA.AperFunction,Plated,PTH,ComponentDrill
T4C0.0472
%
G90
G05
T1
X1.0783Y-2.9264
X1.0791Y-2.798
X1.4783Y-2.9264
X1.4791Y-2.798
X1.6768Y-2.2243
X1.6768Y-2.5243
X1.8068Y-2.2243
X1.8068Y-2.5243
X1.9936Y-0.9243
X1.9936Y-1.2243
X2.0947Y-0.8743
X2.0947Y-1.1743
X2.1947Y-0.8243
X2.1947Y-1.1243
X2.2947Y-0.7743
X2.2947Y-1.0743
X2.3947Y-0.9243
X2.3947Y-1.2243
X2.4947Y-0.8743
X2.4947Y-1.1743
X2.5947Y-0.8243
X2.5947Y-1.1243
X2.6947Y-0.7743
X2.6947Y-1.0743
X2.7947Y-0.9243
X2.7947Y-1.2243
X2.8947Y-0.8743
X2.8947Y-1.1743
X2.9947Y-0.8243
X2.9947Y-1.1243
X3.0968Y-0.7738
X3.0968Y-1.0738
X3.1968Y-0.9238
X3.1968Y-1.2238
X3.2968Y-0.8738
X3.2968Y-1.1738
X3.3968Y-0.8238
X3.3968Y-1.1238
X3.4968Y-0.7738
X3.4968Y-1.0738
T2
X1.2772Y-2.2271
X1.2772Y-2.3271
X1.2772Y-2.5043
X1.2772Y-2.6043
T3
X1.201Y-0.9785
X1.201Y-1.0785
X1.201Y-1.1785
X1.201Y-1.2785
X1.201Y-1.3785
X1.201Y-1.4785
X1.201Y-1.5785
X1.201Y-1.6785
X1.201Y-1.7785
X1.201Y-1.8785
X1.201Y-1.9785
X1.21Y-2.0785
X1.301Y-2.0785
X1.401Y-2.0785
X1.501Y-2.0785
X1.601Y-2.0785
X1.701Y-2.0785
X1.801Y-0.9785
X1.801Y-1.0785
X1.801Y-1.1785
X1.801Y-1.2785
X1.801Y-1.3785
X1.801Y-1.4785
X1.801Y-1.5785
X1.801Y-1.6785
X1.801Y-1.7785
X1.801Y-1.8785
X1.801Y-1.9785
X1.801Y-2.0785
T4
X1.6288Y-2.7058
X1.6288Y-2.883
X1.8847Y-2.7058
X1.8847Y-2.883
X2.0168Y-1.3458
X2.0168Y-1.523
X2.0168Y-1.6874
X2.0168Y-1.8646
X2.0168Y-2.3758
X2.0168Y-2.553
X2.0188Y-2.0358
X2.0188Y-2.213
X2.1968Y-2.7158
X2.1968Y-2.893
X2.2727Y-1.3458
X2.2727Y-1.523
X2.2727Y-1.6874
X2.2727Y-1.8646
X2.2727Y-2.3758
X2.2727Y-2.553
X2.2747Y-2.0358
X2.2747Y-2.213
X2.3968Y-1.3458
X2.3968Y-1.523
X2.3968Y-2.3758
X2.3968Y-2.553
X2.3988Y-1.6858
X2.3988Y-1.863
X2.3988Y-2.0358
X2.3988Y-2.213
X2.4527Y-2.7158
X2.4527Y-2.893
X2.6527Y-1.3458
X2.6527Y-1.523
X2.6527Y-2.3758
X2.6527Y-2.553
X2.6547Y-1.6858
X2.6547Y-1.863
X2.6547Y-2.0358
X2.6547Y-2.213
X2.7768Y-1.3458
X2.7768Y-1.523
X2.7768Y-1.6858
X2.7768Y-1.863
X2.7768Y-2.3758
X2.7768Y-2.553
X2.7768Y-2.7158
X2.7768Y-2.893
X2.7788Y-2.0358
X2.7788Y-2.213
X3.0327Y-1.3458
X3.0327Y-1.523
X3.0327Y-1.6858
X3.0327Y-1.863
X3.0327Y-2.3758
X3.0327Y-2.553
X3.0327Y-2.7158
X3.0327Y-2.893
X3.0347Y-2.0358
X3.0347Y-2.213
X3.1868Y-1.3458
X3.1868Y-1.523
X3.1868Y-1.8558
X3.1868Y-2.033
X3.1868Y-2.5358
X3.1868Y-2.713
X3.4427Y-1.3458
X3.4427Y-1.523
X3.4427Y-1.8558
X3.4427Y-2.033
X3.4427Y-2.5358
X3.4427Y-2.713
T0
M30
