%TF.GenerationSoftware,KiCad,Pcbnew,(6.0.9)*%
%TF.CreationDate,2022-11-30T18:47:25+00:00*%
%TF.ProjectId,PocketPad,506f636b-6574-4506-9164-2e6b69636164,rev?*%
%TF.SameCoordinates,Original*%
%TF.FileFunction,Copper,L1,Top*%
%TF.FilePolarity,Positive*%
%FSLAX46Y46*%
G04 Gerber Fmt 4.6, Leading zero omitted, Abs format (unit mm)*
G04 Created by KiCad (PCBNEW (6.0.9)) date 2022-11-30 18:47:25*
%MOMM*%
%LPD*%
G01*
G04 APERTURE LIST*
%TA.AperFunction,ComponentPad*%
%ADD10O,1.600000X1.600000*%
%TD*%
%TA.AperFunction,ComponentPad*%
%ADD11R,1.600000X1.600000*%
%TD*%
%TA.AperFunction,SMDPad,CuDef*%
%ADD12R,2.000000X1.500000*%
%TD*%
%TA.AperFunction,ComponentPad*%
%ADD13C,1.752600*%
%TD*%
%TA.AperFunction,ComponentPad*%
%ADD14R,1.752600X1.752600*%
%TD*%
%TA.AperFunction,ViaPad*%
%ADD15C,0.800000*%
%TD*%
%TA.AperFunction,Conductor*%
%ADD16C,0.250000*%
%TD*%
G04 APERTURE END LIST*
D10*
%TO.P,D2,2,K*%
%TO.N,ROW0*%
X80880000Y-20982000D03*
D11*
%TO.P,D2,1,A*%
%TO.N,Net-(D2-Pad1)*%
X80880000Y-28602000D03*
%TD*%
D10*
%TO.P,D0,2,K*%
%TO.N,ROW0*%
X58020000Y-20982000D03*
D11*
%TO.P,D0,1,A*%
%TO.N,Net-(D0-Pad1)*%
X58020000Y-28602000D03*
%TD*%
D12*
%TO.P,SW11,4*%
%TO.N,N/C*%
X91226000Y-72304000D03*
%TO.P,SW11,3*%
X82726000Y-72304000D03*
%TO.P,SW11,2,2*%
%TO.N,Net-(D11-Pad1)*%
X91226000Y-67704000D03*
%TO.P,SW11,1,1*%
%TO.N,COL3*%
X82726000Y-67704000D03*
%TD*%
D10*
%TO.P,D16,2,K*%
%TO.N,ROW4*%
X36684000Y-57304000D03*
D11*
%TO.P,D16,1,A*%
%TO.N,Net-(D16-Pad1)*%
X36684000Y-64924000D03*
%TD*%
D10*
%TO.P,D13,2,K*%
%TO.N,ROW3*%
X61068000Y-24792000D03*
D11*
%TO.P,D13,1,A*%
%TO.N,Net-(D13-Pad1)*%
X61068000Y-32412000D03*
%TD*%
D10*
%TO.P,D8,2,K*%
%TO.N,ROW2*%
X52432000Y-23522000D03*
D11*
%TO.P,D8,1,A*%
%TO.N,Net-(D8-Pad1)*%
X52432000Y-31142000D03*
%TD*%
D12*
%TO.P,SW14,4*%
%TO.N,N/C*%
X80050000Y-67732000D03*
%TO.P,SW14,3*%
X71550000Y-67732000D03*
%TO.P,SW14,2,2*%
%TO.N,Net-(D14-Pad1)*%
X80050000Y-63132000D03*
%TO.P,SW14,1,1*%
%TO.N,COL2*%
X71550000Y-63132000D03*
%TD*%
D10*
%TO.P,D10,2,K*%
%TO.N,ROW2*%
X75292000Y-23522000D03*
D11*
%TO.P,D10,1,A*%
%TO.N,Net-(D10-Pad1)*%
X75292000Y-31142000D03*
%TD*%
D13*
%TO.P,MCU1,29,F0*%
%TO.N,unconnected-(MCU1-Pad29)*%
X41764000Y-53956750D03*
%TO.P,MCU1,28,F1*%
%TO.N,COL3*%
X39224000Y-53956750D03*
%TO.P,MCU1,27,C7*%
%TO.N,COL2*%
X36684000Y-53956750D03*
%TO.P,MCU1,26,D5*%
%TO.N,COL1*%
X34144000Y-53956750D03*
%TO.P,MCU1,25,B7*%
%TO.N,COL0*%
X31604000Y-53956750D03*
%TO.P,MCU1,24,B0*%
%TO.N,unconnected-(MCU1-Pad24)*%
X44304000Y-26016750D03*
%TO.P,MCU1,23,GND*%
%TO.N,GND*%
X44304000Y-28556750D03*
%TO.P,MCU1,22,RST*%
%TO.N,unconnected-(MCU1-Pad22)*%
X44304000Y-31096750D03*
%TO.P,MCU1,21,VCC*%
%TO.N,unconnected-(MCU1-Pad21)*%
X44304000Y-33636750D03*
%TO.P,MCU1,20,A3/PF4*%
%TO.N,ROW3*%
X44304000Y-36176750D03*
%TO.P,MCU1,19,A2/PF5*%
%TO.N,ROW2*%
X44304000Y-38716750D03*
%TO.P,MCU1,18,A1/PF6*%
%TO.N,ROW1*%
X44304000Y-41256750D03*
%TO.P,MCU1,17,A0/PF7*%
%TO.N,ROW0*%
X44304000Y-43796750D03*
%TO.P,MCU1,16,15/PB1*%
%TO.N,ROW4*%
X44304000Y-46336750D03*
%TO.P,MCU1,15,14/PB3*%
%TO.N,unconnected-(MCU1-Pad15)*%
X44304000Y-48876750D03*
%TO.P,MCU1,14,16/PB2*%
%TO.N,unconnected-(MCU1-Pad14)*%
X44304000Y-51416750D03*
%TO.P,MCU1,13,10/PB6*%
%TO.N,unconnected-(MCU1-Pad13)*%
X44304000Y-53956750D03*
%TO.P,MCU1,12,9/PB5*%
%TO.N,unconnected-(MCU1-Pad12)*%
X29292600Y-53956750D03*
%TO.P,MCU1,11,8/PB4*%
%TO.N,unconnected-(MCU1-Pad11)*%
X29064000Y-51416750D03*
%TO.P,MCU1,10,7/PE6*%
%TO.N,unconnected-(MCU1-Pad10)*%
X29064000Y-48876750D03*
%TO.P,MCU1,9,6/PD7*%
%TO.N,unconnected-(MCU1-Pad9)*%
X29064000Y-46336750D03*
%TO.P,MCU1,8,5/PC6*%
%TO.N,unconnected-(MCU1-Pad8)*%
X29064000Y-43796750D03*
%TO.P,MCU1,7,4/PD4*%
%TO.N,unconnected-(MCU1-Pad7)*%
X29064000Y-41256750D03*
%TO.P,MCU1,6,3/PD0*%
%TO.N,unconnected-(MCU1-Pad6)*%
X29064000Y-38716750D03*
%TO.P,MCU1,5,2/PD1*%
%TO.N,unconnected-(MCU1-Pad5)*%
X29064000Y-36176750D03*
%TO.P,MCU1,4,GND*%
%TO.N,GND*%
X29064000Y-33636750D03*
%TO.P,MCU1,3,GND*%
X29064000Y-31096750D03*
%TO.P,MCU1,2,RX1/PD2*%
%TO.N,unconnected-(MCU1-Pad2)*%
X29064000Y-28556750D03*
D14*
%TO.P,MCU1,1,TX0/PD3*%
%TO.N,unconnected-(MCU1-Pad1)*%
X29064000Y-26016750D03*
%TD*%
D12*
%TO.P,SW1,4*%
%TO.N,N/C*%
X68874000Y-40046000D03*
%TO.P,SW1,3*%
X60374000Y-40046000D03*
%TO.P,SW1,2,2*%
%TO.N,Net-(D1-Pad1)*%
X68874000Y-35446000D03*
%TO.P,SW1,1,1*%
%TO.N,COL1*%
X60374000Y-35446000D03*
%TD*%
D10*
%TO.P,D18,2,K*%
%TO.N,ROW4*%
X45828000Y-57304000D03*
D11*
%TO.P,D18,1,A*%
%TO.N,Net-(D18-Pad1)*%
X45828000Y-64924000D03*
%TD*%
D12*
%TO.P,SW17,4*%
%TO.N,N/C*%
X48300000Y-77130000D03*
%TO.P,SW17,3*%
X39800000Y-77130000D03*
%TO.P,SW17,2,2*%
%TO.N,Net-(D17-Pad1)*%
X48300000Y-72530000D03*
%TO.P,SW17,1,1*%
%TO.N,COL1*%
X39800000Y-72530000D03*
%TD*%
D10*
%TO.P,D3,2,K*%
%TO.N,ROW0*%
X92310000Y-20982000D03*
D11*
%TO.P,D3,1,A*%
%TO.N,Net-(D3-Pad1)*%
X92310000Y-28602000D03*
%TD*%
D10*
%TO.P,D7,2,K*%
%TO.N,ROW1*%
X89516000Y-22252000D03*
D11*
%TO.P,D7,1,A*%
%TO.N,Net-(D7-Pad1)*%
X89516000Y-29872000D03*
%TD*%
D12*
%TO.P,SW2,4*%
%TO.N,N/C*%
X80050000Y-40046000D03*
%TO.P,SW2,3*%
X71550000Y-40046000D03*
%TO.P,SW2,2,2*%
%TO.N,Net-(D2-Pad1)*%
X80050000Y-35446000D03*
%TO.P,SW2,1,1*%
%TO.N,COL2*%
X71550000Y-35446000D03*
%TD*%
%TO.P,SW7,4*%
%TO.N,N/C*%
X91226000Y-53762000D03*
%TO.P,SW7,3*%
X82726000Y-53762000D03*
%TO.P,SW7,2,2*%
%TO.N,Net-(D7-Pad1)*%
X91226000Y-49162000D03*
%TO.P,SW7,1,1*%
%TO.N,COL3*%
X82726000Y-49162000D03*
%TD*%
D10*
%TO.P,D12,2,K*%
%TO.N,ROW3*%
X49638000Y-24792000D03*
D11*
%TO.P,D12,1,A*%
%TO.N,Net-(D12-Pad1)*%
X49638000Y-32412000D03*
%TD*%
D12*
%TO.P,SW16,4*%
%TO.N,N/C*%
X36870000Y-77130000D03*
%TO.P,SW16,3*%
X28370000Y-77130000D03*
%TO.P,SW16,2,2*%
%TO.N,Net-(D16-Pad1)*%
X36870000Y-72530000D03*
%TO.P,SW16,1,1*%
%TO.N,COL0*%
X28370000Y-72530000D03*
%TD*%
%TO.P,SW4,4*%
%TO.N,N/C*%
X57630000Y-49176000D03*
%TO.P,SW4,3*%
X49130000Y-49176000D03*
%TO.P,SW4,2,2*%
%TO.N,Net-(D4-Pad1)*%
X57630000Y-44576000D03*
%TO.P,SW4,1,1*%
%TO.N,COL0*%
X49130000Y-44576000D03*
%TD*%
D10*
%TO.P,D17,2,K*%
%TO.N,ROW4*%
X41510000Y-57304000D03*
D11*
%TO.P,D17,1,A*%
%TO.N,Net-(D17-Pad1)*%
X41510000Y-64924000D03*
%TD*%
D12*
%TO.P,SW18,4*%
%TO.N,N/C*%
X63540000Y-77130000D03*
%TO.P,SW18,3*%
X55040000Y-77130000D03*
%TO.P,SW18,2,2*%
%TO.N,Net-(D18-Pad1)*%
X63540000Y-72530000D03*
%TO.P,SW18,1,1*%
%TO.N,COL2*%
X55040000Y-72530000D03*
%TD*%
%TO.P,SW12,4*%
%TO.N,N/C*%
X57630000Y-67718000D03*
%TO.P,SW12,3*%
X49130000Y-67718000D03*
%TO.P,SW12,2,2*%
%TO.N,Net-(D12-Pad1)*%
X57630000Y-63118000D03*
%TO.P,SW12,1,1*%
%TO.N,COL0*%
X49130000Y-63118000D03*
%TD*%
D10*
%TO.P,D5,2,K*%
%TO.N,ROW1*%
X66656000Y-22252000D03*
D11*
%TO.P,D5,1,A*%
%TO.N,Net-(D5-Pad1)*%
X66656000Y-29872000D03*
%TD*%
D12*
%TO.P,SW8,4*%
%TO.N,N/C*%
X57630000Y-58320000D03*
%TO.P,SW8,3*%
X49130000Y-58320000D03*
%TO.P,SW8,2,2*%
%TO.N,Net-(D8-Pad1)*%
X57630000Y-53720000D03*
%TO.P,SW8,1,1*%
%TO.N,COL0*%
X49130000Y-53720000D03*
%TD*%
%TO.P,SW10,4*%
%TO.N,N/C*%
X80050000Y-58334000D03*
%TO.P,SW10,3*%
X71550000Y-58334000D03*
%TO.P,SW10,2,2*%
%TO.N,Net-(D10-Pad1)*%
X80050000Y-53734000D03*
%TO.P,SW10,1,1*%
%TO.N,COL2*%
X71550000Y-53734000D03*
%TD*%
D10*
%TO.P,D4,2,K*%
%TO.N,ROW1*%
X55226000Y-22252000D03*
D11*
%TO.P,D4,1,A*%
%TO.N,Net-(D4-Pad1)*%
X55226000Y-29872000D03*
%TD*%
D10*
%TO.P,D6,2,K*%
%TO.N,ROW1*%
X78086000Y-22252000D03*
D11*
%TO.P,D6,1,A*%
%TO.N,Net-(D6-Pad1)*%
X78086000Y-29872000D03*
%TD*%
D10*
%TO.P,D15,2,K*%
%TO.N,ROW3*%
X83928000Y-24792000D03*
D11*
%TO.P,D15,1,A*%
%TO.N,Net-(D15-Pad1)*%
X83928000Y-32412000D03*
%TD*%
D12*
%TO.P,SW3,4*%
%TO.N,N/C*%
X91480000Y-40046000D03*
%TO.P,SW3,3*%
X82980000Y-40046000D03*
%TO.P,SW3,2,2*%
%TO.N,Net-(D3-Pad1)*%
X91480000Y-35446000D03*
%TO.P,SW3,1,1*%
%TO.N,COL3*%
X82980000Y-35446000D03*
%TD*%
D10*
%TO.P,D11,2,K*%
%TO.N,ROW2*%
X86722000Y-23522000D03*
D11*
%TO.P,D11,1,A*%
%TO.N,Net-(D11-Pad1)*%
X86722000Y-31142000D03*
%TD*%
D12*
%TO.P,SW0,4*%
%TO.N,N/C*%
X57630000Y-40032000D03*
%TO.P,SW0,3*%
X49130000Y-40032000D03*
%TO.P,SW0,2,2*%
%TO.N,Net-(D0-Pad1)*%
X57630000Y-35432000D03*
%TO.P,SW0,1,1*%
%TO.N,COL0*%
X49130000Y-35432000D03*
%TD*%
%TO.P,SW5,4*%
%TO.N,N/C*%
X68874000Y-49190000D03*
%TO.P,SW5,3*%
X60374000Y-49190000D03*
%TO.P,SW5,2,2*%
%TO.N,Net-(D5-Pad1)*%
X68874000Y-44590000D03*
%TO.P,SW5,1,1*%
%TO.N,COL1*%
X60374000Y-44590000D03*
%TD*%
%TO.P,SW6,4*%
%TO.N,N/C*%
X80050000Y-49190000D03*
%TO.P,SW6,3*%
X71550000Y-49190000D03*
%TO.P,SW6,2,2*%
%TO.N,Net-(D6-Pad1)*%
X80050000Y-44590000D03*
%TO.P,SW6,1,1*%
%TO.N,COL2*%
X71550000Y-44590000D03*
%TD*%
%TO.P,SW15,4*%
%TO.N,N/C*%
X80050000Y-77130000D03*
%TO.P,SW15,3*%
X71550000Y-77130000D03*
%TO.P,SW15,2,2*%
%TO.N,Net-(D15-Pad1)*%
X80050000Y-72530000D03*
%TO.P,SW15,1,1*%
%TO.N,COL3*%
X71550000Y-72530000D03*
%TD*%
%TO.P,SW9,4*%
%TO.N,N/C*%
X68874000Y-58334000D03*
%TO.P,SW9,3*%
X60374000Y-58334000D03*
%TO.P,SW9,2,2*%
%TO.N,Net-(D9-Pad1)*%
X68874000Y-53734000D03*
%TO.P,SW9,1,1*%
%TO.N,COL1*%
X60374000Y-53734000D03*
%TD*%
D10*
%TO.P,D9,2,K*%
%TO.N,ROW2*%
X63862000Y-23522000D03*
D11*
%TO.P,D9,1,A*%
%TO.N,Net-(D9-Pad1)*%
X63862000Y-31142000D03*
%TD*%
D12*
%TO.P,SW13,4*%
%TO.N,N/C*%
X68874000Y-67732000D03*
%TO.P,SW13,3*%
X60374000Y-67732000D03*
%TO.P,SW13,2,2*%
%TO.N,Net-(D13-Pad1)*%
X68874000Y-63132000D03*
%TO.P,SW13,1,1*%
%TO.N,COL1*%
X60374000Y-63132000D03*
%TD*%
D10*
%TO.P,D14,2,K*%
%TO.N,ROW3*%
X72498000Y-24792000D03*
D11*
%TO.P,D14,1,A*%
%TO.N,Net-(D14-Pad1)*%
X72498000Y-32412000D03*
%TD*%
D10*
%TO.P,D1,2,K*%
%TO.N,ROW0*%
X69450000Y-20982000D03*
D11*
%TO.P,D1,1,A*%
%TO.N,Net-(D1-Pad1)*%
X69450000Y-28602000D03*
%TD*%
D15*
%TO.N,Net-(D17-Pad1)*%
X48368000Y-70258000D03*
%TO.N,Net-(D18-Pad1)*%
X63608000Y-70512000D03*
%TD*%
D16*
%TO.N,Net-(D17-Pad1)*%
X48368000Y-70258000D02*
X48368000Y-72462000D01*
X48368000Y-72462000D02*
X48300000Y-72530000D01*
%TO.N,COL3*%
X80426000Y-70004000D02*
X82726000Y-67704000D01*
X84305000Y-36771000D02*
X82980000Y-35446000D01*
X39224000Y-53956750D02*
X32805300Y-47538050D01*
X25875950Y-47538050D02*
X25878000Y-47540100D01*
X68858000Y-75222000D02*
X71550000Y-72530000D01*
X26408000Y-75222000D02*
X68858000Y-75222000D01*
X82726000Y-49162000D02*
X84305000Y-47583000D01*
X82726000Y-67704000D02*
X84051000Y-66379000D01*
X77578000Y-70004000D02*
X80426000Y-70004000D01*
X84305000Y-47583000D02*
X84305000Y-36771000D01*
X84051000Y-66379000D02*
X84051000Y-50487000D01*
X25878000Y-47540100D02*
X25878000Y-74692000D01*
X76127000Y-71455000D02*
X77578000Y-70004000D01*
X25878000Y-74692000D02*
X26408000Y-75222000D01*
X84051000Y-50487000D02*
X82726000Y-49162000D01*
X32805300Y-47538050D02*
X25875950Y-47538050D01*
X72625000Y-71455000D02*
X76127000Y-71455000D01*
X71550000Y-72530000D02*
X72625000Y-71455000D01*
%TO.N,COL2*%
X26524000Y-50192000D02*
X26328000Y-50388000D01*
X71550000Y-44590000D02*
X72875000Y-45915000D01*
X72875000Y-61807000D02*
X71550000Y-63132000D01*
X26328000Y-74254396D02*
X26845604Y-74772000D01*
X72875000Y-36771000D02*
X72875000Y-43265000D01*
X71550000Y-35446000D02*
X72875000Y-36771000D01*
X72875000Y-43265000D02*
X71550000Y-44590000D01*
X71550000Y-65618000D02*
X71550000Y-63132000D01*
X72875000Y-45915000D02*
X72875000Y-52409000D01*
X36684000Y-53956750D02*
X32919250Y-50192000D01*
X71482000Y-65686000D02*
X71550000Y-65618000D01*
X62084000Y-70258000D02*
X66656000Y-65686000D01*
X26328000Y-50388000D02*
X26328000Y-74254396D01*
X56764000Y-72530000D02*
X59036000Y-70258000D01*
X55040000Y-72530000D02*
X56764000Y-72530000D01*
X72875000Y-52409000D02*
X71550000Y-53734000D01*
X49188000Y-74772000D02*
X51430000Y-72530000D01*
X32919250Y-50192000D02*
X26524000Y-50192000D01*
X59036000Y-70258000D02*
X62084000Y-70258000D01*
X51430000Y-72530000D02*
X55040000Y-72530000D01*
X66656000Y-65686000D02*
X71482000Y-65686000D01*
X71550000Y-53734000D02*
X72875000Y-55059000D01*
X26845604Y-74772000D02*
X49188000Y-74772000D01*
X72875000Y-55059000D02*
X72875000Y-61807000D01*
%TO.N,COL1*%
X61699000Y-45915000D02*
X61699000Y-52409000D01*
X61699000Y-52409000D02*
X60374000Y-53734000D01*
X34144000Y-53956750D02*
X32942700Y-52755450D01*
X60052000Y-65686000D02*
X60374000Y-65364000D01*
X60374000Y-44590000D02*
X61699000Y-45915000D01*
X61699000Y-61807000D02*
X60374000Y-63132000D01*
X39478000Y-74322000D02*
X39800000Y-74000000D01*
X47894000Y-65686000D02*
X60052000Y-65686000D01*
X61699000Y-43265000D02*
X60374000Y-44590000D01*
X60374000Y-53734000D02*
X61699000Y-55059000D01*
X28786550Y-52755450D02*
X26778000Y-54764000D01*
X60374000Y-65364000D02*
X60374000Y-63132000D01*
X26778000Y-74068000D02*
X27032000Y-74322000D01*
X26778000Y-54764000D02*
X26778000Y-74068000D01*
X39800000Y-74000000D02*
X39800000Y-72530000D01*
X32942700Y-52755450D02*
X28786550Y-52755450D01*
X61699000Y-55059000D02*
X61699000Y-61807000D01*
X61699000Y-36771000D02*
X61699000Y-43265000D01*
X41050000Y-72530000D02*
X47894000Y-65686000D01*
X27032000Y-74322000D02*
X39478000Y-74322000D01*
X60374000Y-35446000D02*
X61699000Y-36771000D01*
X39800000Y-72530000D02*
X41050000Y-72530000D01*
%TO.N,COL0*%
X50455000Y-43251000D02*
X49130000Y-44576000D01*
X50455000Y-36757000D02*
X50455000Y-43251000D01*
X49130000Y-53720000D02*
X50455000Y-55045000D01*
X49130000Y-35432000D02*
X50455000Y-36757000D01*
X31886000Y-63118000D02*
X28370000Y-66634000D01*
X50455000Y-52395000D02*
X49130000Y-53720000D01*
X50455000Y-45901000D02*
X50455000Y-52395000D01*
X50455000Y-61793000D02*
X49130000Y-63118000D01*
X50455000Y-55045000D02*
X50455000Y-61793000D01*
X49130000Y-44576000D02*
X50455000Y-45901000D01*
X31886000Y-63118000D02*
X31604000Y-62836000D01*
X31604000Y-62836000D02*
X31604000Y-53956750D01*
X49130000Y-63118000D02*
X31886000Y-63118000D01*
X28370000Y-66634000D02*
X28370000Y-72530000D01*
%TO.N,ROW0*%
X58020000Y-20982000D02*
X92310000Y-20982000D01*
%TO.N,Net-(D0-Pad1)*%
X58020000Y-28602000D02*
X58020000Y-35042000D01*
X58020000Y-35042000D02*
X57630000Y-35432000D01*
%TO.N,ROW1*%
X55226000Y-22252000D02*
X89516000Y-22252000D01*
%TO.N,Net-(D1-Pad1)*%
X69450000Y-34870000D02*
X68874000Y-35446000D01*
X69450000Y-28602000D02*
X69450000Y-34870000D01*
%TO.N,Net-(D2-Pad1)*%
X80880000Y-28602000D02*
X80880000Y-34616000D01*
X80880000Y-34616000D02*
X80050000Y-35446000D01*
%TO.N,Net-(D3-Pad1)*%
X92310000Y-28602000D02*
X92310000Y-34616000D01*
X92310000Y-34616000D02*
X91480000Y-35446000D01*
%TO.N,Net-(D4-Pad1)*%
X55226000Y-29872000D02*
X55226000Y-42172000D01*
X55226000Y-42172000D02*
X57630000Y-44576000D01*
%TO.N,ROW2*%
X52432000Y-23522000D02*
X86722000Y-23522000D01*
%TO.N,Net-(D5-Pad1)*%
X66656000Y-29872000D02*
X66656000Y-42372000D01*
X66656000Y-42372000D02*
X68874000Y-44590000D01*
%TO.N,Net-(D6-Pad1)*%
X78086000Y-29872000D02*
X78086000Y-42626000D01*
X78086000Y-42626000D02*
X80050000Y-44590000D01*
%TO.N,Net-(D7-Pad1)*%
X89516000Y-47452000D02*
X91226000Y-49162000D01*
X89516000Y-29872000D02*
X89516000Y-47452000D01*
%TO.N,Net-(D8-Pad1)*%
X52432000Y-31142000D02*
X52432000Y-48522000D01*
X52432000Y-48522000D02*
X57630000Y-53720000D01*
%TO.N,ROW3*%
X49638000Y-24792000D02*
X83928000Y-24792000D01*
%TO.N,Net-(D9-Pad1)*%
X63862000Y-48722000D02*
X68874000Y-53734000D01*
X63862000Y-31142000D02*
X63862000Y-48722000D01*
%TO.N,Net-(D10-Pad1)*%
X75292000Y-48976000D02*
X80050000Y-53734000D01*
X75292000Y-31142000D02*
X75292000Y-48976000D01*
%TO.N,Net-(D11-Pad1)*%
X86722000Y-63200000D02*
X91226000Y-67704000D01*
X86722000Y-31142000D02*
X86722000Y-63200000D01*
%TO.N,Net-(D12-Pad1)*%
X49638000Y-32412000D02*
X51670000Y-34444000D01*
X51670000Y-34444000D02*
X51670000Y-57158000D01*
X51670000Y-57158000D02*
X57630000Y-63118000D01*
%TO.N,Net-(D13-Pad1)*%
X61068000Y-32412000D02*
X62846000Y-34190000D01*
X62846000Y-34190000D02*
X62846000Y-58574000D01*
X67404000Y-63132000D02*
X68874000Y-63132000D01*
X62846000Y-58574000D02*
X67404000Y-63132000D01*
%TO.N,Net-(D14-Pad1)*%
X72498000Y-32412000D02*
X74276000Y-34190000D01*
X74276000Y-34190000D02*
X74276000Y-57358000D01*
X74276000Y-57358000D02*
X80050000Y-63132000D01*
%TO.N,Net-(D15-Pad1)*%
X83928000Y-32412000D02*
X85960000Y-34444000D01*
X81588000Y-74068000D02*
X80050000Y-72530000D01*
X85960000Y-34444000D02*
X85960000Y-74068000D01*
X85960000Y-74068000D02*
X81588000Y-74068000D01*
%TO.N,ROW4*%
X36684000Y-57304000D02*
X45828000Y-57304000D01*
X45828000Y-57304000D02*
X45828000Y-47860750D01*
X45828000Y-47860750D02*
X44304000Y-46336750D01*
%TO.N,Net-(D16-Pad1)*%
X36684000Y-64924000D02*
X36684000Y-72344000D01*
X36684000Y-72344000D02*
X36870000Y-72530000D01*
%TO.N,Net-(D18-Pad1)*%
X63540000Y-72530000D02*
X63540000Y-70580000D01*
X63540000Y-70580000D02*
X63608000Y-70512000D01*
%TD*%
%TA.AperFunction,Conductor*%
%TO.N,GND*%
G36*
X57763046Y-19478002D02*
G01*
X57809539Y-19531658D01*
X57819643Y-19601932D01*
X57790149Y-19666512D01*
X57727536Y-19705707D01*
X57576067Y-19746293D01*
X57576065Y-19746294D01*
X57570757Y-19747716D01*
X57565776Y-19750039D01*
X57565775Y-19750039D01*
X57368238Y-19842151D01*
X57368233Y-19842154D01*
X57363251Y-19844477D01*
X57258389Y-19917902D01*
X57180211Y-19972643D01*
X57180208Y-19972645D01*
X57175700Y-19975802D01*
X57013802Y-20137700D01*
X56882477Y-20325251D01*
X56880154Y-20330233D01*
X56880151Y-20330238D01*
X56788039Y-20527775D01*
X56785716Y-20532757D01*
X56726457Y-20753913D01*
X56706502Y-20982000D01*
X56726457Y-21210087D01*
X56727881Y-21215400D01*
X56727881Y-21215402D01*
X56779408Y-21407700D01*
X56785716Y-21431243D01*
X56788039Y-21436225D01*
X56788041Y-21436230D01*
X56789448Y-21439247D01*
X56789669Y-21440704D01*
X56789922Y-21441398D01*
X56789782Y-21441449D01*
X56800111Y-21509438D01*
X56771133Y-21574252D01*
X56711715Y-21613110D01*
X56675255Y-21618500D01*
X56445394Y-21618500D01*
X56377273Y-21598498D01*
X56342181Y-21564771D01*
X56235357Y-21412211D01*
X56235355Y-21412208D01*
X56232198Y-21407700D01*
X56070300Y-21245802D01*
X56065792Y-21242645D01*
X56065789Y-21242643D01*
X55987611Y-21187902D01*
X55882749Y-21114477D01*
X55877767Y-21112154D01*
X55877762Y-21112151D01*
X55680225Y-21020039D01*
X55680224Y-21020039D01*
X55675243Y-21017716D01*
X55669935Y-21016294D01*
X55669933Y-21016293D01*
X55459402Y-20959881D01*
X55459400Y-20959881D01*
X55454087Y-20958457D01*
X55226000Y-20938502D01*
X54997913Y-20958457D01*
X54992600Y-20959881D01*
X54992598Y-20959881D01*
X54782067Y-21016293D01*
X54782065Y-21016294D01*
X54776757Y-21017716D01*
X54771776Y-21020039D01*
X54771775Y-21020039D01*
X54574238Y-21112151D01*
X54574233Y-21112154D01*
X54569251Y-21114477D01*
X54464389Y-21187902D01*
X54386211Y-21242643D01*
X54386208Y-21242645D01*
X54381700Y-21245802D01*
X54219802Y-21407700D01*
X54216645Y-21412208D01*
X54216643Y-21412211D01*
X54161902Y-21490389D01*
X54088477Y-21595251D01*
X54086154Y-21600233D01*
X54086151Y-21600238D01*
X53996475Y-21792551D01*
X53991716Y-21802757D01*
X53990294Y-21808065D01*
X53990293Y-21808067D01*
X53984363Y-21830197D01*
X53932457Y-22023913D01*
X53912502Y-22252000D01*
X53932457Y-22480087D01*
X53933881Y-22485400D01*
X53933881Y-22485402D01*
X53985408Y-22677700D01*
X53991716Y-22701243D01*
X53994039Y-22706225D01*
X53994041Y-22706230D01*
X53995448Y-22709247D01*
X53995669Y-22710704D01*
X53995922Y-22711398D01*
X53995782Y-22711449D01*
X54006111Y-22779438D01*
X53977133Y-22844252D01*
X53917715Y-22883110D01*
X53881255Y-22888500D01*
X53651394Y-22888500D01*
X53583273Y-22868498D01*
X53548181Y-22834771D01*
X53441357Y-22682211D01*
X53441355Y-22682208D01*
X53438198Y-22677700D01*
X53276300Y-22515802D01*
X53271792Y-22512645D01*
X53271789Y-22512643D01*
X53193611Y-22457902D01*
X53088749Y-22384477D01*
X53083767Y-22382154D01*
X53083762Y-22382151D01*
X52886225Y-22290039D01*
X52886224Y-22290039D01*
X52881243Y-22287716D01*
X52875935Y-22286294D01*
X52875933Y-22286293D01*
X52665402Y-22229881D01*
X52665400Y-22229881D01*
X52660087Y-22228457D01*
X52432000Y-22208502D01*
X52203913Y-22228457D01*
X52198600Y-22229881D01*
X52198598Y-22229881D01*
X51988067Y-22286293D01*
X51988065Y-22286294D01*
X51982757Y-22287716D01*
X51977776Y-22290039D01*
X51977775Y-22290039D01*
X51780238Y-22382151D01*
X51780233Y-22382154D01*
X51775251Y-22384477D01*
X51670389Y-22457902D01*
X51592211Y-22512643D01*
X51592208Y-22512645D01*
X51587700Y-22515802D01*
X51425802Y-22677700D01*
X51422645Y-22682208D01*
X51422643Y-22682211D01*
X51367902Y-22760389D01*
X51294477Y-22865251D01*
X51292154Y-22870233D01*
X51292151Y-22870238D01*
X51202475Y-23062551D01*
X51197716Y-23072757D01*
X51196294Y-23078065D01*
X51196293Y-23078067D01*
X51190363Y-23100197D01*
X51138457Y-23293913D01*
X51118502Y-23522000D01*
X51138457Y-23750087D01*
X51139881Y-23755400D01*
X51139881Y-23755402D01*
X51191408Y-23947700D01*
X51197716Y-23971243D01*
X51200039Y-23976225D01*
X51200041Y-23976230D01*
X51201448Y-23979247D01*
X51201669Y-23980704D01*
X51201922Y-23981398D01*
X51201782Y-23981449D01*
X51212111Y-24049438D01*
X51183133Y-24114252D01*
X51123715Y-24153110D01*
X51087255Y-24158500D01*
X50857394Y-24158500D01*
X50789273Y-24138498D01*
X50754181Y-24104771D01*
X50647357Y-23952211D01*
X50647355Y-23952208D01*
X50644198Y-23947700D01*
X50482300Y-23785802D01*
X50477792Y-23782645D01*
X50477789Y-23782643D01*
X50399611Y-23727902D01*
X50294749Y-23654477D01*
X50289767Y-23652154D01*
X50289762Y-23652151D01*
X50092225Y-23560039D01*
X50092224Y-23560039D01*
X50087243Y-23557716D01*
X50081935Y-23556294D01*
X50081933Y-23556293D01*
X49871402Y-23499881D01*
X49871400Y-23499881D01*
X49866087Y-23498457D01*
X49638000Y-23478502D01*
X49409913Y-23498457D01*
X49404600Y-23499881D01*
X49404598Y-23499881D01*
X49194067Y-23556293D01*
X49194065Y-23556294D01*
X49188757Y-23557716D01*
X49183776Y-23560039D01*
X49183775Y-23560039D01*
X48986238Y-23652151D01*
X48986233Y-23652154D01*
X48981251Y-23654477D01*
X48876389Y-23727902D01*
X48798211Y-23782643D01*
X48798208Y-23782645D01*
X48793700Y-23785802D01*
X48631802Y-23947700D01*
X48628645Y-23952208D01*
X48628643Y-23952211D01*
X48573902Y-24030389D01*
X48500477Y-24135251D01*
X48498154Y-24140233D01*
X48498151Y-24140238D01*
X48408475Y-24332551D01*
X48403716Y-24342757D01*
X48402294Y-24348065D01*
X48402293Y-24348067D01*
X48396363Y-24370197D01*
X48344457Y-24563913D01*
X48324502Y-24792000D01*
X48344457Y-25020087D01*
X48345881Y-25025400D01*
X48345881Y-25025402D01*
X48362901Y-25088919D01*
X48403716Y-25241243D01*
X48406039Y-25246224D01*
X48406039Y-25246225D01*
X48498151Y-25443762D01*
X48498154Y-25443767D01*
X48500477Y-25448749D01*
X48558950Y-25532257D01*
X48588150Y-25573958D01*
X48631802Y-25636300D01*
X48793700Y-25798198D01*
X48798208Y-25801355D01*
X48798211Y-25801357D01*
X48876389Y-25856098D01*
X48981251Y-25929523D01*
X48986233Y-25931846D01*
X48986238Y-25931849D01*
X49168311Y-26016750D01*
X49188757Y-26026284D01*
X49194065Y-26027706D01*
X49194067Y-26027707D01*
X49404598Y-26084119D01*
X49404600Y-26084119D01*
X49409913Y-26085543D01*
X49638000Y-26105498D01*
X49866087Y-26085543D01*
X49871400Y-26084119D01*
X49871402Y-26084119D01*
X50081933Y-26027707D01*
X50081935Y-26027706D01*
X50087243Y-26026284D01*
X50107689Y-26016750D01*
X50289762Y-25931849D01*
X50289767Y-25931846D01*
X50294749Y-25929523D01*
X50399611Y-25856098D01*
X50477789Y-25801357D01*
X50477792Y-25801355D01*
X50482300Y-25798198D01*
X50644198Y-25636300D01*
X50647357Y-25631789D01*
X50754181Y-25479229D01*
X50809638Y-25434901D01*
X50857394Y-25425500D01*
X59848606Y-25425500D01*
X59916727Y-25445502D01*
X59951819Y-25479229D01*
X60058643Y-25631789D01*
X60061802Y-25636300D01*
X60223700Y-25798198D01*
X60228208Y-25801355D01*
X60228211Y-25801357D01*
X60306389Y-25856098D01*
X60411251Y-25929523D01*
X60416233Y-25931846D01*
X60416238Y-25931849D01*
X60598311Y-26016750D01*
X60618757Y-26026284D01*
X60624065Y-26027706D01*
X60624067Y-26027707D01*
X60834598Y-26084119D01*
X60834600Y-26084119D01*
X60839913Y-26085543D01*
X61068000Y-26105498D01*
X61296087Y-26085543D01*
X61301400Y-26084119D01*
X61301402Y-26084119D01*
X61511933Y-26027707D01*
X61511935Y-26027706D01*
X61517243Y-26026284D01*
X61537689Y-26016750D01*
X61719762Y-25931849D01*
X61719767Y-25931846D01*
X61724749Y-25929523D01*
X61829611Y-25856098D01*
X61907789Y-25801357D01*
X61907792Y-25801355D01*
X61912300Y-25798198D01*
X62074198Y-25636300D01*
X62077357Y-25631789D01*
X62184181Y-25479229D01*
X62239638Y-25434901D01*
X62287394Y-25425500D01*
X71278606Y-25425500D01*
X71346727Y-25445502D01*
X71381819Y-25479229D01*
X71488643Y-25631789D01*
X71491802Y-25636300D01*
X71653700Y-25798198D01*
X71658208Y-25801355D01*
X71658211Y-25801357D01*
X71736389Y-25856098D01*
X71841251Y-25929523D01*
X71846233Y-25931846D01*
X71846238Y-25931849D01*
X72028311Y-26016750D01*
X72048757Y-26026284D01*
X72054065Y-26027706D01*
X72054067Y-26027707D01*
X72264598Y-26084119D01*
X72264600Y-26084119D01*
X72269913Y-26085543D01*
X72498000Y-26105498D01*
X72726087Y-26085543D01*
X72731400Y-26084119D01*
X72731402Y-26084119D01*
X72941933Y-26027707D01*
X72941935Y-26027706D01*
X72947243Y-26026284D01*
X72967689Y-26016750D01*
X73149762Y-25931849D01*
X73149767Y-25931846D01*
X73154749Y-25929523D01*
X73259611Y-25856098D01*
X73337789Y-25801357D01*
X73337792Y-25801355D01*
X73342300Y-25798198D01*
X73504198Y-25636300D01*
X73507357Y-25631789D01*
X73614181Y-25479229D01*
X73669638Y-25434901D01*
X73717394Y-25425500D01*
X82708606Y-25425500D01*
X82776727Y-25445502D01*
X82811819Y-25479229D01*
X82918643Y-25631789D01*
X82921802Y-25636300D01*
X83083700Y-25798198D01*
X83088208Y-25801355D01*
X83088211Y-25801357D01*
X83166389Y-25856098D01*
X83271251Y-25929523D01*
X83276233Y-25931846D01*
X83276238Y-25931849D01*
X83458311Y-26016750D01*
X83478757Y-26026284D01*
X83484065Y-26027706D01*
X83484067Y-26027707D01*
X83694598Y-26084119D01*
X83694600Y-26084119D01*
X83699913Y-26085543D01*
X83928000Y-26105498D01*
X84156087Y-26085543D01*
X84161400Y-26084119D01*
X84161402Y-26084119D01*
X84371933Y-26027707D01*
X84371935Y-26027706D01*
X84377243Y-26026284D01*
X84397689Y-26016750D01*
X84579762Y-25931849D01*
X84579767Y-25931846D01*
X84584749Y-25929523D01*
X84689611Y-25856098D01*
X84767789Y-25801357D01*
X84767792Y-25801355D01*
X84772300Y-25798198D01*
X84934198Y-25636300D01*
X84977851Y-25573958D01*
X85007050Y-25532257D01*
X85065523Y-25448749D01*
X85067846Y-25443767D01*
X85067849Y-25443762D01*
X85159961Y-25246225D01*
X85159961Y-25246224D01*
X85162284Y-25241243D01*
X85203100Y-25088919D01*
X85220119Y-25025402D01*
X85220119Y-25025400D01*
X85221543Y-25020087D01*
X85241498Y-24792000D01*
X85221543Y-24563913D01*
X85169637Y-24370197D01*
X85163707Y-24348067D01*
X85163706Y-24348065D01*
X85162284Y-24342757D01*
X85158552Y-24334753D01*
X85158331Y-24333296D01*
X85158078Y-24332602D01*
X85158218Y-24332551D01*
X85147889Y-24264562D01*
X85176867Y-24199748D01*
X85236285Y-24160890D01*
X85272745Y-24155500D01*
X85502606Y-24155500D01*
X85570727Y-24175502D01*
X85605819Y-24209229D01*
X85699317Y-24342757D01*
X85715802Y-24366300D01*
X85877700Y-24528198D01*
X85882208Y-24531355D01*
X85882211Y-24531357D01*
X85928706Y-24563913D01*
X86065251Y-24659523D01*
X86070233Y-24661846D01*
X86070238Y-24661849D01*
X86257816Y-24749317D01*
X86272757Y-24756284D01*
X86278065Y-24757706D01*
X86278067Y-24757707D01*
X86488598Y-24814119D01*
X86488600Y-24814119D01*
X86493913Y-24815543D01*
X86722000Y-24835498D01*
X86950087Y-24815543D01*
X86955400Y-24814119D01*
X86955402Y-24814119D01*
X87165933Y-24757707D01*
X87165935Y-24757706D01*
X87171243Y-24756284D01*
X87186184Y-24749317D01*
X87373762Y-24661849D01*
X87373767Y-24661846D01*
X87378749Y-24659523D01*
X87515294Y-24563913D01*
X87561789Y-24531357D01*
X87561792Y-24531355D01*
X87566300Y-24528198D01*
X87728198Y-24366300D01*
X87748172Y-24337775D01*
X87799436Y-24264562D01*
X87859523Y-24178749D01*
X87861846Y-24173767D01*
X87861849Y-24173762D01*
X87953961Y-23976225D01*
X87953961Y-23976224D01*
X87956284Y-23971243D01*
X87962593Y-23947700D01*
X88014119Y-23755402D01*
X88014119Y-23755400D01*
X88015543Y-23750087D01*
X88035498Y-23522000D01*
X88015543Y-23293913D01*
X87963637Y-23100197D01*
X87957707Y-23078067D01*
X87957706Y-23078065D01*
X87956284Y-23072757D01*
X87952552Y-23064753D01*
X87952331Y-23063296D01*
X87952078Y-23062602D01*
X87952218Y-23062551D01*
X87941889Y-22994562D01*
X87970867Y-22929748D01*
X88030285Y-22890890D01*
X88066745Y-22885500D01*
X88296606Y-22885500D01*
X88364727Y-22905502D01*
X88399819Y-22939229D01*
X88493317Y-23072757D01*
X88509802Y-23096300D01*
X88671700Y-23258198D01*
X88676208Y-23261355D01*
X88676211Y-23261357D01*
X88722706Y-23293913D01*
X88859251Y-23389523D01*
X88864233Y-23391846D01*
X88864238Y-23391849D01*
X89061775Y-23483961D01*
X89066757Y-23486284D01*
X89072065Y-23487706D01*
X89072067Y-23487707D01*
X89282598Y-23544119D01*
X89282600Y-23544119D01*
X89287913Y-23545543D01*
X89516000Y-23565498D01*
X89744087Y-23545543D01*
X89749400Y-23544119D01*
X89749402Y-23544119D01*
X89959933Y-23487707D01*
X89959935Y-23487706D01*
X89965243Y-23486284D01*
X89970225Y-23483961D01*
X90167762Y-23391849D01*
X90167767Y-23391846D01*
X90172749Y-23389523D01*
X90309294Y-23293913D01*
X90355789Y-23261357D01*
X90355792Y-23261355D01*
X90360300Y-23258198D01*
X90522198Y-23096300D01*
X90542172Y-23067775D01*
X90593436Y-22994562D01*
X90653523Y-22908749D01*
X90655846Y-22903767D01*
X90655849Y-22903762D01*
X90747961Y-22706225D01*
X90747961Y-22706224D01*
X90750284Y-22701243D01*
X90756593Y-22677700D01*
X90808119Y-22485402D01*
X90808119Y-22485400D01*
X90809543Y-22480087D01*
X90829498Y-22252000D01*
X90809543Y-22023913D01*
X90757637Y-21830197D01*
X90751707Y-21808067D01*
X90751706Y-21808065D01*
X90750284Y-21802757D01*
X90746552Y-21794753D01*
X90746331Y-21793296D01*
X90746078Y-21792602D01*
X90746218Y-21792551D01*
X90735889Y-21724562D01*
X90764867Y-21659748D01*
X90824285Y-21620890D01*
X90860745Y-21615500D01*
X91090606Y-21615500D01*
X91158727Y-21635502D01*
X91193819Y-21669229D01*
X91287317Y-21802757D01*
X91303802Y-21826300D01*
X91465700Y-21988198D01*
X91470208Y-21991355D01*
X91470211Y-21991357D01*
X91516706Y-22023913D01*
X91653251Y-22119523D01*
X91658233Y-22121846D01*
X91658238Y-22121849D01*
X91855775Y-22213961D01*
X91860757Y-22216284D01*
X91866065Y-22217706D01*
X91866067Y-22217707D01*
X92076598Y-22274119D01*
X92076600Y-22274119D01*
X92081913Y-22275543D01*
X92310000Y-22295498D01*
X92538087Y-22275543D01*
X92543400Y-22274119D01*
X92543402Y-22274119D01*
X92753933Y-22217707D01*
X92753935Y-22217706D01*
X92759243Y-22216284D01*
X92764225Y-22213961D01*
X92961762Y-22121849D01*
X92961767Y-22121846D01*
X92966749Y-22119523D01*
X93103294Y-22023913D01*
X93149789Y-21991357D01*
X93149792Y-21991355D01*
X93154300Y-21988198D01*
X93316198Y-21826300D01*
X93336172Y-21797775D01*
X93387436Y-21724562D01*
X93447523Y-21638749D01*
X93449846Y-21633767D01*
X93449849Y-21633762D01*
X93541961Y-21436225D01*
X93541961Y-21436224D01*
X93544284Y-21431243D01*
X93550593Y-21407700D01*
X93602119Y-21215402D01*
X93602119Y-21215400D01*
X93603543Y-21210087D01*
X93623498Y-20982000D01*
X93603543Y-20753913D01*
X93544284Y-20532757D01*
X93541961Y-20527775D01*
X93449849Y-20330238D01*
X93449846Y-20330233D01*
X93447523Y-20325251D01*
X93316198Y-20137700D01*
X93154300Y-19975802D01*
X93149792Y-19972645D01*
X93149789Y-19972643D01*
X93071611Y-19917902D01*
X92966749Y-19844477D01*
X92961767Y-19842154D01*
X92961762Y-19842151D01*
X92764225Y-19750039D01*
X92764224Y-19750039D01*
X92759243Y-19747716D01*
X92753935Y-19746294D01*
X92753933Y-19746293D01*
X92602464Y-19705707D01*
X92541841Y-19668755D01*
X92510820Y-19604894D01*
X92519248Y-19534400D01*
X92564451Y-19479653D01*
X92635075Y-19458000D01*
X93962000Y-19458000D01*
X94030121Y-19478002D01*
X94076614Y-19531658D01*
X94088000Y-19584000D01*
X94088000Y-78514000D01*
X94067998Y-78582121D01*
X94014342Y-78628614D01*
X93962000Y-78640000D01*
X81107366Y-78640000D01*
X81039245Y-78619998D01*
X80992752Y-78566342D01*
X80982648Y-78496068D01*
X81012142Y-78431488D01*
X81071868Y-78393104D01*
X81098145Y-78388597D01*
X81098134Y-78388500D01*
X81160316Y-78381745D01*
X81296705Y-78330615D01*
X81413261Y-78243261D01*
X81500615Y-78126705D01*
X81551745Y-77990316D01*
X81558500Y-77928134D01*
X81558500Y-76331866D01*
X81551745Y-76269684D01*
X81500615Y-76133295D01*
X81413261Y-76016739D01*
X81296705Y-75929385D01*
X81160316Y-75878255D01*
X81098134Y-75871500D01*
X79001866Y-75871500D01*
X78939684Y-75878255D01*
X78803295Y-75929385D01*
X78686739Y-76016739D01*
X78599385Y-76133295D01*
X78548255Y-76269684D01*
X78541500Y-76331866D01*
X78541500Y-77928134D01*
X78548255Y-77990316D01*
X78599385Y-78126705D01*
X78686739Y-78243261D01*
X78803295Y-78330615D01*
X78939684Y-78381745D01*
X78999666Y-78388261D01*
X79001866Y-78388500D01*
X79001810Y-78389019D01*
X79066387Y-78411841D01*
X79109911Y-78467933D01*
X79116199Y-78538650D01*
X79083257Y-78601541D01*
X79021542Y-78636639D01*
X78992634Y-78640000D01*
X72607366Y-78640000D01*
X72539245Y-78619998D01*
X72492752Y-78566342D01*
X72482648Y-78496068D01*
X72512142Y-78431488D01*
X72571868Y-78393104D01*
X72598145Y-78388597D01*
X72598134Y-78388500D01*
X72660316Y-78381745D01*
X72796705Y-78330615D01*
X72913261Y-78243261D01*
X73000615Y-78126705D01*
X73051745Y-77990316D01*
X73058500Y-77928134D01*
X73058500Y-76331866D01*
X73051745Y-76269684D01*
X73000615Y-76133295D01*
X72913261Y-76016739D01*
X72796705Y-75929385D01*
X72660316Y-75878255D01*
X72598134Y-75871500D01*
X70501866Y-75871500D01*
X70439684Y-75878255D01*
X70303295Y-75929385D01*
X70186739Y-76016739D01*
X70099385Y-76133295D01*
X70048255Y-76269684D01*
X70041500Y-76331866D01*
X70041500Y-77928134D01*
X70048255Y-77990316D01*
X70099385Y-78126705D01*
X70186739Y-78243261D01*
X70303295Y-78330615D01*
X70439684Y-78381745D01*
X70499666Y-78388261D01*
X70501866Y-78388500D01*
X70501810Y-78389019D01*
X70566387Y-78411841D01*
X70609911Y-78467933D01*
X70616199Y-78538650D01*
X70583257Y-78601541D01*
X70521542Y-78636639D01*
X70492634Y-78640000D01*
X64597366Y-78640000D01*
X64529245Y-78619998D01*
X64482752Y-78566342D01*
X64472648Y-78496068D01*
X64502142Y-78431488D01*
X64561868Y-78393104D01*
X64588145Y-78388597D01*
X64588134Y-78388500D01*
X64650316Y-78381745D01*
X64786705Y-78330615D01*
X64903261Y-78243261D01*
X64990615Y-78126705D01*
X65041745Y-77990316D01*
X65048500Y-77928134D01*
X65048500Y-76331866D01*
X65041745Y-76269684D01*
X64990615Y-76133295D01*
X64985230Y-76126110D01*
X64985229Y-76126108D01*
X64933484Y-76057065D01*
X64908636Y-75990558D01*
X64923689Y-75921176D01*
X64973863Y-75870946D01*
X65034310Y-75855500D01*
X68779233Y-75855500D01*
X68790416Y-75856027D01*
X68797909Y-75857702D01*
X68805835Y-75857453D01*
X68805836Y-75857453D01*
X68865986Y-75855562D01*
X68869945Y-75855500D01*
X68897856Y-75855500D01*
X68901791Y-75855003D01*
X68901856Y-75854995D01*
X68913693Y-75854062D01*
X68945951Y-75853048D01*
X68949970Y-75852922D01*
X68957889Y-75852673D01*
X68977343Y-75847021D01*
X68996700Y-75843013D01*
X69008930Y-75841468D01*
X69008931Y-75841468D01*
X69016797Y-75840474D01*
X69024168Y-75837555D01*
X69024170Y-75837555D01*
X69057912Y-75824196D01*
X69069142Y-75820351D01*
X69103983Y-75810229D01*
X69103984Y-75810229D01*
X69111593Y-75808018D01*
X69118412Y-75803985D01*
X69118417Y-75803983D01*
X69129028Y-75797707D01*
X69146776Y-75789012D01*
X69165617Y-75781552D01*
X69185987Y-75766753D01*
X69201387Y-75755564D01*
X69211307Y-75749048D01*
X69242535Y-75730580D01*
X69242538Y-75730578D01*
X69249362Y-75726542D01*
X69263683Y-75712221D01*
X69278717Y-75699380D01*
X69280432Y-75698134D01*
X69295107Y-75687472D01*
X69323298Y-75653395D01*
X69331288Y-75644616D01*
X71150500Y-73825405D01*
X71212812Y-73791379D01*
X71239595Y-73788500D01*
X72598134Y-73788500D01*
X72660316Y-73781745D01*
X72796705Y-73730615D01*
X72913261Y-73643261D01*
X73000615Y-73526705D01*
X73051745Y-73390316D01*
X73058500Y-73328134D01*
X78541500Y-73328134D01*
X78548255Y-73390316D01*
X78599385Y-73526705D01*
X78686739Y-73643261D01*
X78803295Y-73730615D01*
X78939684Y-73781745D01*
X79001866Y-73788500D01*
X80360406Y-73788500D01*
X80428527Y-73808502D01*
X80449501Y-73825405D01*
X81084343Y-74460247D01*
X81091887Y-74468537D01*
X81096000Y-74475018D01*
X81101777Y-74480443D01*
X81145667Y-74521658D01*
X81148509Y-74524413D01*
X81168230Y-74544134D01*
X81171425Y-74546612D01*
X81180447Y-74554318D01*
X81212679Y-74584586D01*
X81223858Y-74590732D01*
X81230432Y-74594346D01*
X81246956Y-74605199D01*
X81262959Y-74617613D01*
X81303543Y-74635176D01*
X81314173Y-74640383D01*
X81352940Y-74661695D01*
X81360617Y-74663666D01*
X81360622Y-74663668D01*
X81372558Y-74666732D01*
X81391266Y-74673137D01*
X81409855Y-74681181D01*
X81417680Y-74682420D01*
X81417682Y-74682421D01*
X81453519Y-74688097D01*
X81465140Y-74690504D01*
X81500289Y-74699528D01*
X81507970Y-74701500D01*
X81528231Y-74701500D01*
X81547940Y-74703051D01*
X81567943Y-74706219D01*
X81575835Y-74705473D01*
X81581062Y-74704979D01*
X81611954Y-74702059D01*
X81623811Y-74701500D01*
X85888207Y-74701500D01*
X85911816Y-74703732D01*
X85912119Y-74703790D01*
X85912123Y-74703790D01*
X85919906Y-74705275D01*
X85975951Y-74701749D01*
X85983862Y-74701500D01*
X85999856Y-74701500D01*
X86015730Y-74699494D01*
X86023590Y-74698752D01*
X86051049Y-74697024D01*
X86071737Y-74695723D01*
X86071738Y-74695723D01*
X86079650Y-74695225D01*
X86087191Y-74692775D01*
X86087487Y-74692679D01*
X86110631Y-74687506D01*
X86110935Y-74687468D01*
X86110940Y-74687467D01*
X86118797Y-74686474D01*
X86126162Y-74683558D01*
X86126166Y-74683557D01*
X86171011Y-74665801D01*
X86178430Y-74663129D01*
X86231875Y-74645764D01*
X86238572Y-74641514D01*
X86238831Y-74641350D01*
X86259958Y-74630585D01*
X86260246Y-74630471D01*
X86260251Y-74630468D01*
X86267617Y-74627552D01*
X86274025Y-74622896D01*
X86274031Y-74622893D01*
X86313052Y-74594542D01*
X86319589Y-74590099D01*
X86367018Y-74560000D01*
X86372659Y-74553993D01*
X86390446Y-74538312D01*
X86390691Y-74538134D01*
X86390693Y-74538132D01*
X86397107Y-74533472D01*
X86402162Y-74527362D01*
X86432903Y-74490204D01*
X86438134Y-74484270D01*
X86471158Y-74449102D01*
X86471160Y-74449099D01*
X86476586Y-74443321D01*
X86480558Y-74436097D01*
X86493881Y-74416494D01*
X86494080Y-74416254D01*
X86494084Y-74416247D01*
X86499133Y-74410144D01*
X86523047Y-74359324D01*
X86526629Y-74352292D01*
X86553695Y-74303060D01*
X86555665Y-74295385D01*
X86555668Y-74295379D01*
X86555744Y-74295081D01*
X86563776Y-74272772D01*
X86563906Y-74272497D01*
X86563909Y-74272489D01*
X86567283Y-74265318D01*
X86577806Y-74210151D01*
X86579532Y-74202429D01*
X86591529Y-74155707D01*
X86591529Y-74155706D01*
X86593500Y-74148030D01*
X86593500Y-74139793D01*
X86595732Y-74116184D01*
X86595790Y-74115881D01*
X86595790Y-74115877D01*
X86597275Y-74108094D01*
X86593749Y-74052049D01*
X86593500Y-74044138D01*
X86593500Y-73102134D01*
X89717500Y-73102134D01*
X89724255Y-73164316D01*
X89775385Y-73300705D01*
X89862739Y-73417261D01*
X89979295Y-73504615D01*
X90115684Y-73555745D01*
X90177866Y-73562500D01*
X92274134Y-73562500D01*
X92336316Y-73555745D01*
X92472705Y-73504615D01*
X92589261Y-73417261D01*
X92676615Y-73300705D01*
X92727745Y-73164316D01*
X92734500Y-73102134D01*
X92734500Y-71505866D01*
X92727745Y-71443684D01*
X92676615Y-71307295D01*
X92589261Y-71190739D01*
X92472705Y-71103385D01*
X92336316Y-71052255D01*
X92274134Y-71045500D01*
X90177866Y-71045500D01*
X90115684Y-71052255D01*
X89979295Y-71103385D01*
X89862739Y-71190739D01*
X89775385Y-71307295D01*
X89724255Y-71443684D01*
X89717500Y-71505866D01*
X89717500Y-73102134D01*
X86593500Y-73102134D01*
X86593500Y-64271594D01*
X86613502Y-64203473D01*
X86667158Y-64156980D01*
X86737432Y-64146876D01*
X86802012Y-64176370D01*
X86808594Y-64182498D01*
X88256260Y-65630165D01*
X89680595Y-67054500D01*
X89714621Y-67116812D01*
X89717500Y-67143595D01*
X89717500Y-68502134D01*
X89724255Y-68564316D01*
X89775385Y-68700705D01*
X89862739Y-68817261D01*
X89979295Y-68904615D01*
X90115684Y-68955745D01*
X90177866Y-68962500D01*
X92274134Y-68962500D01*
X92336316Y-68955745D01*
X92472705Y-68904615D01*
X92589261Y-68817261D01*
X92676615Y-68700705D01*
X92727745Y-68564316D01*
X92734500Y-68502134D01*
X92734500Y-66905866D01*
X92727745Y-66843684D01*
X92676615Y-66707295D01*
X92589261Y-66590739D01*
X92472705Y-66503385D01*
X92336316Y-66452255D01*
X92274134Y-66445500D01*
X90915594Y-66445500D01*
X90847473Y-66425498D01*
X90826499Y-66408595D01*
X87392405Y-62974500D01*
X87358379Y-62912188D01*
X87355500Y-62885405D01*
X87355500Y-54560134D01*
X89717500Y-54560134D01*
X89724255Y-54622316D01*
X89775385Y-54758705D01*
X89862739Y-54875261D01*
X89979295Y-54962615D01*
X90115684Y-55013745D01*
X90177866Y-55020500D01*
X92274134Y-55020500D01*
X92336316Y-55013745D01*
X92472705Y-54962615D01*
X92589261Y-54875261D01*
X92676615Y-54758705D01*
X92727745Y-54622316D01*
X92734500Y-54560134D01*
X92734500Y-52963866D01*
X92727745Y-52901684D01*
X92676615Y-52765295D01*
X92589261Y-52648739D01*
X92472705Y-52561385D01*
X92336316Y-52510255D01*
X92274134Y-52503500D01*
X90177866Y-52503500D01*
X90115684Y-52510255D01*
X89979295Y-52561385D01*
X89862739Y-52648739D01*
X89775385Y-52765295D01*
X89724255Y-52901684D01*
X89717500Y-52963866D01*
X89717500Y-54560134D01*
X87355500Y-54560134D01*
X87355500Y-32576500D01*
X87375502Y-32508379D01*
X87429158Y-32461886D01*
X87481500Y-32450500D01*
X87570134Y-32450500D01*
X87632316Y-32443745D01*
X87768705Y-32392615D01*
X87885261Y-32305261D01*
X87972615Y-32188705D01*
X88023745Y-32052316D01*
X88030500Y-31990134D01*
X88030500Y-30979550D01*
X88050502Y-30911429D01*
X88104158Y-30864936D01*
X88174432Y-30854832D01*
X88239012Y-30884326D01*
X88264202Y-30915549D01*
X88265385Y-30918705D01*
X88270765Y-30925884D01*
X88270767Y-30925887D01*
X88310986Y-30979550D01*
X88352739Y-31035261D01*
X88469295Y-31122615D01*
X88605684Y-31173745D01*
X88667866Y-31180500D01*
X88756500Y-31180500D01*
X88824621Y-31200502D01*
X88871114Y-31254158D01*
X88882500Y-31306500D01*
X88882500Y-47373233D01*
X88881973Y-47384416D01*
X88880298Y-47391909D01*
X88880547Y-47399835D01*
X88880547Y-47399836D01*
X88882438Y-47459986D01*
X88882500Y-47463945D01*
X88882500Y-47491856D01*
X88882997Y-47495790D01*
X88882997Y-47495791D01*
X88883005Y-47495856D01*
X88883938Y-47507693D01*
X88885327Y-47551889D01*
X88887830Y-47560503D01*
X88890978Y-47571339D01*
X88894987Y-47590700D01*
X88897526Y-47610797D01*
X88900445Y-47618168D01*
X88900445Y-47618170D01*
X88913804Y-47651912D01*
X88917649Y-47663142D01*
X88929982Y-47705593D01*
X88934015Y-47712412D01*
X88934017Y-47712417D01*
X88940293Y-47723028D01*
X88948988Y-47740776D01*
X88956448Y-47759617D01*
X88961110Y-47766033D01*
X88961110Y-47766034D01*
X88982436Y-47795387D01*
X88988952Y-47805307D01*
X89006248Y-47834552D01*
X89011458Y-47843362D01*
X89025779Y-47857683D01*
X89038619Y-47872716D01*
X89050528Y-47889107D01*
X89079445Y-47913029D01*
X89084605Y-47917298D01*
X89093384Y-47925288D01*
X89680595Y-48512499D01*
X89714621Y-48574811D01*
X89717500Y-48601594D01*
X89717500Y-49960134D01*
X89724255Y-50022316D01*
X89775385Y-50158705D01*
X89862739Y-50275261D01*
X89979295Y-50362615D01*
X90115684Y-50413745D01*
X90177866Y-50420500D01*
X92274134Y-50420500D01*
X92336316Y-50413745D01*
X92472705Y-50362615D01*
X92589261Y-50275261D01*
X92676615Y-50158705D01*
X92727745Y-50022316D01*
X92734500Y-49960134D01*
X92734500Y-48363866D01*
X92727745Y-48301684D01*
X92676615Y-48165295D01*
X92589261Y-48048739D01*
X92472705Y-47961385D01*
X92336316Y-47910255D01*
X92274134Y-47903500D01*
X90915595Y-47903500D01*
X90847474Y-47883498D01*
X90826500Y-47866595D01*
X90186405Y-47226500D01*
X90152379Y-47164188D01*
X90149500Y-47137405D01*
X90149500Y-41397000D01*
X90169502Y-41328879D01*
X90223158Y-41282386D01*
X90293432Y-41272282D01*
X90319729Y-41279018D01*
X90369684Y-41297745D01*
X90431866Y-41304500D01*
X92528134Y-41304500D01*
X92590316Y-41297745D01*
X92726705Y-41246615D01*
X92843261Y-41159261D01*
X92930615Y-41042705D01*
X92981745Y-40906316D01*
X92988500Y-40844134D01*
X92988500Y-39247866D01*
X92981745Y-39185684D01*
X92930615Y-39049295D01*
X92843261Y-38932739D01*
X92726705Y-38845385D01*
X92590316Y-38794255D01*
X92528134Y-38787500D01*
X90431866Y-38787500D01*
X90369684Y-38794255D01*
X90319730Y-38812982D01*
X90248922Y-38818165D01*
X90186554Y-38784244D01*
X90152424Y-38721989D01*
X90149500Y-38695000D01*
X90149500Y-36797000D01*
X90169502Y-36728879D01*
X90223158Y-36682386D01*
X90293432Y-36672282D01*
X90319729Y-36679018D01*
X90369684Y-36697745D01*
X90431866Y-36704500D01*
X92528134Y-36704500D01*
X92590316Y-36697745D01*
X92726705Y-36646615D01*
X92843261Y-36559261D01*
X92930615Y-36442705D01*
X92981745Y-36306316D01*
X92988500Y-36244134D01*
X92988500Y-34647866D01*
X92981745Y-34585684D01*
X92951518Y-34505054D01*
X92943500Y-34460824D01*
X92943500Y-30036500D01*
X92963502Y-29968379D01*
X93017158Y-29921886D01*
X93069500Y-29910500D01*
X93158134Y-29910500D01*
X93220316Y-29903745D01*
X93356705Y-29852615D01*
X93473261Y-29765261D01*
X93560615Y-29648705D01*
X93611745Y-29512316D01*
X93618500Y-29450134D01*
X93618500Y-27753866D01*
X93611745Y-27691684D01*
X93560615Y-27555295D01*
X93473261Y-27438739D01*
X93356705Y-27351385D01*
X93220316Y-27300255D01*
X93158134Y-27293500D01*
X91461866Y-27293500D01*
X91399684Y-27300255D01*
X91263295Y-27351385D01*
X91146739Y-27438739D01*
X91059385Y-27555295D01*
X91008255Y-27691684D01*
X91001500Y-27753866D01*
X91001500Y-28764450D01*
X90981498Y-28832571D01*
X90927842Y-28879064D01*
X90857568Y-28889168D01*
X90792988Y-28859674D01*
X90767798Y-28828451D01*
X90766615Y-28825295D01*
X90761235Y-28818116D01*
X90761233Y-28818113D01*
X90684642Y-28715919D01*
X90679261Y-28708739D01*
X90562705Y-28621385D01*
X90426316Y-28570255D01*
X90364134Y-28563500D01*
X88667866Y-28563500D01*
X88605684Y-28570255D01*
X88469295Y-28621385D01*
X88352739Y-28708739D01*
X88265385Y-28825295D01*
X88214255Y-28961684D01*
X88207500Y-29023866D01*
X88207500Y-30034450D01*
X88187498Y-30102571D01*
X88133842Y-30149064D01*
X88063568Y-30159168D01*
X87998988Y-30129674D01*
X87973798Y-30098451D01*
X87972615Y-30095295D01*
X87967235Y-30088116D01*
X87967233Y-30088113D01*
X87890642Y-29985919D01*
X87885261Y-29978739D01*
X87768705Y-29891385D01*
X87632316Y-29840255D01*
X87570134Y-29833500D01*
X85873866Y-29833500D01*
X85811684Y-29840255D01*
X85675295Y-29891385D01*
X85558739Y-29978739D01*
X85471385Y-30095295D01*
X85420255Y-30231684D01*
X85413500Y-30293866D01*
X85413500Y-31304450D01*
X85393498Y-31372571D01*
X85339842Y-31419064D01*
X85269568Y-31429168D01*
X85204988Y-31399674D01*
X85179798Y-31368451D01*
X85178615Y-31365295D01*
X85173235Y-31358116D01*
X85173233Y-31358113D01*
X85096642Y-31255919D01*
X85091261Y-31248739D01*
X84974705Y-31161385D01*
X84838316Y-31110255D01*
X84776134Y-31103500D01*
X83079866Y-31103500D01*
X83017684Y-31110255D01*
X82881295Y-31161385D01*
X82764739Y-31248739D01*
X82677385Y-31365295D01*
X82626255Y-31501684D01*
X82619500Y-31563866D01*
X82619500Y-33260134D01*
X82626255Y-33322316D01*
X82677385Y-33458705D01*
X82764739Y-33575261D01*
X82881295Y-33662615D01*
X83017684Y-33713745D01*
X83079866Y-33720500D01*
X84288406Y-33720500D01*
X84356527Y-33740502D01*
X84377497Y-33757401D01*
X85289597Y-34669502D01*
X85323621Y-34731812D01*
X85326500Y-34758595D01*
X85326500Y-73308500D01*
X85306498Y-73376621D01*
X85252842Y-73423114D01*
X85200500Y-73434500D01*
X84308256Y-73434500D01*
X84240135Y-73414498D01*
X84193642Y-73360842D01*
X84183538Y-73290568D01*
X84190274Y-73264271D01*
X84224971Y-73171718D01*
X84224973Y-73171712D01*
X84227745Y-73164316D01*
X84234500Y-73102134D01*
X84234500Y-71505866D01*
X84227745Y-71443684D01*
X84176615Y-71307295D01*
X84089261Y-71190739D01*
X83972705Y-71103385D01*
X83836316Y-71052255D01*
X83774134Y-71045500D01*
X81677866Y-71045500D01*
X81615684Y-71052255D01*
X81479295Y-71103385D01*
X81362739Y-71190739D01*
X81357358Y-71197919D01*
X81357357Y-71197920D01*
X81323770Y-71242735D01*
X81266911Y-71285250D01*
X81196092Y-71290276D01*
X81178717Y-71285153D01*
X81172183Y-71282704D01*
X81160316Y-71278255D01*
X81152468Y-71277402D01*
X81152466Y-71277402D01*
X81101531Y-71271869D01*
X81098134Y-71271500D01*
X79001866Y-71271500D01*
X78939684Y-71278255D01*
X78803295Y-71329385D01*
X78686739Y-71416739D01*
X78599385Y-71533295D01*
X78548255Y-71669684D01*
X78541500Y-71731866D01*
X78541500Y-73328134D01*
X73058500Y-73328134D01*
X73058500Y-72214500D01*
X73078502Y-72146379D01*
X73132158Y-72099886D01*
X73184500Y-72088500D01*
X76048233Y-72088500D01*
X76059416Y-72089027D01*
X76066909Y-72090702D01*
X76074835Y-72090453D01*
X76074836Y-72090453D01*
X76134986Y-72088562D01*
X76138945Y-72088500D01*
X76166856Y-72088500D01*
X76170791Y-72088003D01*
X76170856Y-72087995D01*
X76182693Y-72087062D01*
X76214951Y-72086048D01*
X76218970Y-72085922D01*
X76226889Y-72085673D01*
X76246343Y-72080021D01*
X76265700Y-72076013D01*
X76277930Y-72074468D01*
X76277931Y-72074468D01*
X76285797Y-72073474D01*
X76293168Y-72070555D01*
X76293170Y-72070555D01*
X76326912Y-72057196D01*
X76338142Y-72053351D01*
X76372983Y-72043229D01*
X76372984Y-72043229D01*
X76380593Y-72041018D01*
X76387412Y-72036985D01*
X76387417Y-72036983D01*
X76398028Y-72030707D01*
X76415776Y-72022012D01*
X76434617Y-72014552D01*
X76470387Y-71988564D01*
X76480307Y-71982048D01*
X76511535Y-71963580D01*
X76511538Y-71963578D01*
X76518362Y-71959542D01*
X76532683Y-71945221D01*
X76547717Y-71932380D01*
X76557694Y-71925131D01*
X76564107Y-71920472D01*
X76592298Y-71886395D01*
X76600288Y-71877616D01*
X77803500Y-70674405D01*
X77865812Y-70640379D01*
X77892595Y-70637500D01*
X80347233Y-70637500D01*
X80358416Y-70638027D01*
X80365909Y-70639702D01*
X80373835Y-70639453D01*
X80373836Y-70639453D01*
X80433986Y-70637562D01*
X80437945Y-70637500D01*
X80465856Y-70637500D01*
X80469791Y-70637003D01*
X80469856Y-70636995D01*
X80481693Y-70636062D01*
X80513951Y-70635048D01*
X80517970Y-70634922D01*
X80525889Y-70634673D01*
X80545343Y-70629021D01*
X80564700Y-70625013D01*
X80576930Y-70623468D01*
X80576931Y-70623468D01*
X80584797Y-70622474D01*
X80592168Y-70619555D01*
X80592170Y-70619555D01*
X80625912Y-70606196D01*
X80637142Y-70602351D01*
X80671983Y-70592229D01*
X80671984Y-70592229D01*
X80679593Y-70590018D01*
X80686412Y-70585985D01*
X80686417Y-70585983D01*
X80697028Y-70579707D01*
X80714776Y-70571012D01*
X80733617Y-70563552D01*
X80769387Y-70537564D01*
X80779307Y-70531048D01*
X80810535Y-70512580D01*
X80810538Y-70512578D01*
X80817362Y-70508542D01*
X80831683Y-70494221D01*
X80846717Y-70481380D01*
X80856694Y-70474131D01*
X80863107Y-70469472D01*
X80891298Y-70435395D01*
X80899288Y-70426616D01*
X82326499Y-68999405D01*
X82388811Y-68965379D01*
X82415594Y-68962500D01*
X83774134Y-68962500D01*
X83836316Y-68955745D01*
X83972705Y-68904615D01*
X84089261Y-68817261D01*
X84176615Y-68700705D01*
X84227745Y-68564316D01*
X84234500Y-68502134D01*
X84234500Y-67143595D01*
X84254502Y-67075474D01*
X84271405Y-67054500D01*
X84443253Y-66882652D01*
X84451539Y-66875112D01*
X84458018Y-66871000D01*
X84470523Y-66857684D01*
X84504643Y-66821349D01*
X84507398Y-66818507D01*
X84527135Y-66798770D01*
X84529615Y-66795573D01*
X84537320Y-66786551D01*
X84562159Y-66760100D01*
X84567586Y-66754321D01*
X84571405Y-66747375D01*
X84571407Y-66747372D01*
X84577348Y-66736566D01*
X84588199Y-66720047D01*
X84595758Y-66710301D01*
X84600614Y-66704041D01*
X84603759Y-66696772D01*
X84603762Y-66696768D01*
X84618174Y-66663463D01*
X84623391Y-66652813D01*
X84644695Y-66614060D01*
X84649733Y-66594437D01*
X84656137Y-66575734D01*
X84661033Y-66564420D01*
X84661033Y-66564419D01*
X84664181Y-66557145D01*
X84665420Y-66549322D01*
X84665423Y-66549312D01*
X84671099Y-66513476D01*
X84673505Y-66501856D01*
X84682528Y-66466711D01*
X84682528Y-66466710D01*
X84684500Y-66459030D01*
X84684500Y-66438776D01*
X84686051Y-66419065D01*
X84687980Y-66406886D01*
X84689220Y-66399057D01*
X84685059Y-66355038D01*
X84684500Y-66343181D01*
X84684500Y-50565767D01*
X84685027Y-50554584D01*
X84686702Y-50547091D01*
X84684562Y-50479000D01*
X84684500Y-50475043D01*
X84684500Y-50447144D01*
X84683996Y-50443153D01*
X84683063Y-50431311D01*
X84682724Y-50420500D01*
X84681674Y-50387111D01*
X84679462Y-50379497D01*
X84679461Y-50379492D01*
X84676023Y-50367659D01*
X84672012Y-50348295D01*
X84670467Y-50336064D01*
X84669474Y-50328203D01*
X84666557Y-50320836D01*
X84666556Y-50320831D01*
X84653198Y-50287092D01*
X84649354Y-50275865D01*
X84639230Y-50241022D01*
X84637018Y-50233407D01*
X84626707Y-50215972D01*
X84618012Y-50198224D01*
X84610552Y-50179383D01*
X84584564Y-50143613D01*
X84578048Y-50133693D01*
X84559580Y-50102465D01*
X84559578Y-50102462D01*
X84555542Y-50095638D01*
X84541221Y-50081317D01*
X84528380Y-50066283D01*
X84521131Y-50056306D01*
X84516472Y-50049893D01*
X84482395Y-50021702D01*
X84473616Y-50013712D01*
X84271405Y-49811501D01*
X84237379Y-49749189D01*
X84234500Y-49722406D01*
X84234500Y-48601594D01*
X84254502Y-48533473D01*
X84271405Y-48512499D01*
X84697247Y-48086657D01*
X84705537Y-48079113D01*
X84712018Y-48075000D01*
X84758659Y-48025332D01*
X84761413Y-48022491D01*
X84781134Y-48002770D01*
X84783612Y-47999575D01*
X84791318Y-47990553D01*
X84816158Y-47964101D01*
X84821586Y-47958321D01*
X84827732Y-47947142D01*
X84831346Y-47940568D01*
X84842199Y-47924045D01*
X84845248Y-47920114D01*
X84854613Y-47908041D01*
X84872176Y-47867457D01*
X84877383Y-47856827D01*
X84898695Y-47818060D01*
X84900666Y-47810383D01*
X84900668Y-47810378D01*
X84903732Y-47798442D01*
X84910138Y-47779730D01*
X84915033Y-47768419D01*
X84918181Y-47761145D01*
X84919421Y-47753317D01*
X84919423Y-47753310D01*
X84925099Y-47717476D01*
X84927505Y-47705856D01*
X84936528Y-47670711D01*
X84936528Y-47670710D01*
X84938500Y-47663030D01*
X84938500Y-47642776D01*
X84940051Y-47623065D01*
X84941980Y-47610886D01*
X84943220Y-47603057D01*
X84939059Y-47559038D01*
X84938500Y-47547181D01*
X84938500Y-36849767D01*
X84939027Y-36838584D01*
X84940702Y-36831091D01*
X84939828Y-36803265D01*
X84938562Y-36763001D01*
X84938500Y-36759043D01*
X84938500Y-36731144D01*
X84937996Y-36727153D01*
X84937063Y-36715311D01*
X84936724Y-36704500D01*
X84935674Y-36671111D01*
X84933462Y-36663497D01*
X84933461Y-36663492D01*
X84930023Y-36651659D01*
X84926012Y-36632295D01*
X84924467Y-36620064D01*
X84923474Y-36612203D01*
X84920557Y-36604836D01*
X84920556Y-36604831D01*
X84907198Y-36571092D01*
X84903354Y-36559865D01*
X84897757Y-36540601D01*
X84891018Y-36517407D01*
X84880707Y-36499972D01*
X84872012Y-36482224D01*
X84864552Y-36463383D01*
X84838564Y-36427613D01*
X84832048Y-36417693D01*
X84813580Y-36386465D01*
X84813578Y-36386462D01*
X84809542Y-36379638D01*
X84795221Y-36365317D01*
X84782380Y-36350283D01*
X84775131Y-36340306D01*
X84770472Y-36333893D01*
X84736395Y-36305702D01*
X84727616Y-36297712D01*
X84525405Y-36095501D01*
X84491379Y-36033189D01*
X84488500Y-36006406D01*
X84488500Y-34647866D01*
X84481745Y-34585684D01*
X84430615Y-34449295D01*
X84343261Y-34332739D01*
X84226705Y-34245385D01*
X84090316Y-34194255D01*
X84028134Y-34187500D01*
X81931866Y-34187500D01*
X81869684Y-34194255D01*
X81733295Y-34245385D01*
X81726110Y-34250770D01*
X81726108Y-34250771D01*
X81715066Y-34259047D01*
X81648560Y-34283896D01*
X81579178Y-34268844D01*
X81528947Y-34218670D01*
X81513500Y-34158222D01*
X81513500Y-30036500D01*
X81533502Y-29968379D01*
X81587158Y-29921886D01*
X81639500Y-29910500D01*
X81728134Y-29910500D01*
X81790316Y-29903745D01*
X81926705Y-29852615D01*
X82043261Y-29765261D01*
X82130615Y-29648705D01*
X82181745Y-29512316D01*
X82188500Y-29450134D01*
X82188500Y-27753866D01*
X82181745Y-27691684D01*
X82130615Y-27555295D01*
X82043261Y-27438739D01*
X81926705Y-27351385D01*
X81790316Y-27300255D01*
X81728134Y-27293500D01*
X80031866Y-27293500D01*
X79969684Y-27300255D01*
X79833295Y-27351385D01*
X79716739Y-27438739D01*
X79629385Y-27555295D01*
X79578255Y-27691684D01*
X79571500Y-27753866D01*
X79571500Y-28764450D01*
X79551498Y-28832571D01*
X79497842Y-28879064D01*
X79427568Y-28889168D01*
X79362988Y-28859674D01*
X79337798Y-28828451D01*
X79336615Y-28825295D01*
X79331235Y-28818116D01*
X79331233Y-28818113D01*
X79254642Y-28715919D01*
X79249261Y-28708739D01*
X79132705Y-28621385D01*
X78996316Y-28570255D01*
X78934134Y-28563500D01*
X77237866Y-28563500D01*
X77175684Y-28570255D01*
X77039295Y-28621385D01*
X76922739Y-28708739D01*
X76835385Y-28825295D01*
X76784255Y-28961684D01*
X76777500Y-29023866D01*
X76777500Y-30034450D01*
X76757498Y-30102571D01*
X76703842Y-30149064D01*
X76633568Y-30159168D01*
X76568988Y-30129674D01*
X76543798Y-30098451D01*
X76542615Y-30095295D01*
X76537235Y-30088116D01*
X76537233Y-30088113D01*
X76460642Y-29985919D01*
X76455261Y-29978739D01*
X76338705Y-29891385D01*
X76202316Y-29840255D01*
X76140134Y-29833500D01*
X74443866Y-29833500D01*
X74381684Y-29840255D01*
X74245295Y-29891385D01*
X74128739Y-29978739D01*
X74041385Y-30095295D01*
X73990255Y-30231684D01*
X73983500Y-30293866D01*
X73983500Y-31304450D01*
X73963498Y-31372571D01*
X73909842Y-31419064D01*
X73839568Y-31429168D01*
X73774988Y-31399674D01*
X73749798Y-31368451D01*
X73748615Y-31365295D01*
X73743235Y-31358116D01*
X73743233Y-31358113D01*
X73666642Y-31255919D01*
X73661261Y-31248739D01*
X73544705Y-31161385D01*
X73408316Y-31110255D01*
X73346134Y-31103500D01*
X71649866Y-31103500D01*
X71587684Y-31110255D01*
X71451295Y-31161385D01*
X71334739Y-31248739D01*
X71247385Y-31365295D01*
X71196255Y-31501684D01*
X71189500Y-31563866D01*
X71189500Y-33260134D01*
X71196255Y-33322316D01*
X71247385Y-33458705D01*
X71334739Y-33575261D01*
X71451295Y-33662615D01*
X71587684Y-33713745D01*
X71649866Y-33720500D01*
X72858406Y-33720500D01*
X72926527Y-33740502D01*
X72947501Y-33757405D01*
X73605595Y-34415499D01*
X73639621Y-34477811D01*
X73642500Y-34504594D01*
X73642500Y-36361810D01*
X73622498Y-36429931D01*
X73568842Y-36476424D01*
X73498568Y-36486528D01*
X73433988Y-36457034D01*
X73414563Y-36435870D01*
X73408564Y-36427613D01*
X73402048Y-36417693D01*
X73383580Y-36386465D01*
X73383578Y-36386462D01*
X73379542Y-36379638D01*
X73365221Y-36365317D01*
X73352380Y-36350283D01*
X73345131Y-36340306D01*
X73340472Y-36333893D01*
X73306395Y-36305702D01*
X73297616Y-36297712D01*
X73095405Y-36095501D01*
X73061379Y-36033189D01*
X73058500Y-36006406D01*
X73058500Y-34647866D01*
X73051745Y-34585684D01*
X73000615Y-34449295D01*
X72913261Y-34332739D01*
X72796705Y-34245385D01*
X72660316Y-34194255D01*
X72598134Y-34187500D01*
X70501866Y-34187500D01*
X70439684Y-34194255D01*
X70303295Y-34245385D01*
X70295020Y-34251587D01*
X70287565Y-34257174D01*
X70221059Y-34282022D01*
X70151676Y-34266969D01*
X70136426Y-34257167D01*
X70133926Y-34255293D01*
X70091416Y-34198430D01*
X70083500Y-34154474D01*
X70083500Y-30036500D01*
X70103502Y-29968379D01*
X70157158Y-29921886D01*
X70209500Y-29910500D01*
X70298134Y-29910500D01*
X70360316Y-29903745D01*
X70496705Y-29852615D01*
X70613261Y-29765261D01*
X70700615Y-29648705D01*
X70751745Y-29512316D01*
X70758500Y-29450134D01*
X70758500Y-27753866D01*
X70751745Y-27691684D01*
X70700615Y-27555295D01*
X70613261Y-27438739D01*
X70496705Y-27351385D01*
X70360316Y-27300255D01*
X70298134Y-27293500D01*
X68601866Y-27293500D01*
X68539684Y-27300255D01*
X68403295Y-27351385D01*
X68286739Y-27438739D01*
X68199385Y-27555295D01*
X68148255Y-27691684D01*
X68141500Y-27753866D01*
X68141500Y-28764450D01*
X68121498Y-28832571D01*
X68067842Y-28879064D01*
X67997568Y-28889168D01*
X67932988Y-28859674D01*
X67907798Y-28828451D01*
X67906615Y-28825295D01*
X67901235Y-28818116D01*
X67901233Y-28818113D01*
X67824642Y-28715919D01*
X67819261Y-28708739D01*
X67702705Y-28621385D01*
X67566316Y-28570255D01*
X67504134Y-28563500D01*
X65807866Y-28563500D01*
X65745684Y-28570255D01*
X65609295Y-28621385D01*
X65492739Y-28708739D01*
X65405385Y-28825295D01*
X65354255Y-28961684D01*
X65347500Y-29023866D01*
X65347500Y-30034450D01*
X65327498Y-30102571D01*
X65273842Y-30149064D01*
X65203568Y-30159168D01*
X65138988Y-30129674D01*
X65113798Y-30098451D01*
X65112615Y-30095295D01*
X65107235Y-30088116D01*
X65107233Y-30088113D01*
X65030642Y-29985919D01*
X65025261Y-29978739D01*
X64908705Y-29891385D01*
X64772316Y-29840255D01*
X64710134Y-29833500D01*
X63013866Y-29833500D01*
X62951684Y-29840255D01*
X62815295Y-29891385D01*
X62698739Y-29978739D01*
X62611385Y-30095295D01*
X62560255Y-30231684D01*
X62553500Y-30293866D01*
X62553500Y-31304450D01*
X62533498Y-31372571D01*
X62479842Y-31419064D01*
X62409568Y-31429168D01*
X62344988Y-31399674D01*
X62319798Y-31368451D01*
X62318615Y-31365295D01*
X62313235Y-31358116D01*
X62313233Y-31358113D01*
X62236642Y-31255919D01*
X62231261Y-31248739D01*
X62114705Y-31161385D01*
X61978316Y-31110255D01*
X61916134Y-31103500D01*
X60219866Y-31103500D01*
X60157684Y-31110255D01*
X60021295Y-31161385D01*
X59904739Y-31248739D01*
X59817385Y-31365295D01*
X59766255Y-31501684D01*
X59759500Y-31563866D01*
X59759500Y-33260134D01*
X59766255Y-33322316D01*
X59817385Y-33458705D01*
X59904739Y-33575261D01*
X60021295Y-33662615D01*
X60157684Y-33713745D01*
X60219866Y-33720500D01*
X61428406Y-33720500D01*
X61496527Y-33740502D01*
X61517501Y-33757405D01*
X62175595Y-34415499D01*
X62209621Y-34477811D01*
X62212500Y-34504594D01*
X62212500Y-36084406D01*
X62192498Y-36152527D01*
X62138842Y-36199020D01*
X62068568Y-36209124D01*
X62003988Y-36179630D01*
X61997405Y-36173501D01*
X61919405Y-36095501D01*
X61885379Y-36033189D01*
X61882500Y-36006406D01*
X61882500Y-34647866D01*
X61875745Y-34585684D01*
X61824615Y-34449295D01*
X61737261Y-34332739D01*
X61620705Y-34245385D01*
X61484316Y-34194255D01*
X61422134Y-34187500D01*
X59325866Y-34187500D01*
X59263684Y-34194255D01*
X59127295Y-34245385D01*
X59086903Y-34275657D01*
X59020399Y-34300504D01*
X58951017Y-34285451D01*
X58935785Y-34275663D01*
X58876705Y-34231385D01*
X58740316Y-34180255D01*
X58741036Y-34178333D01*
X58688704Y-34148435D01*
X58655886Y-34085478D01*
X58653500Y-34061073D01*
X58653500Y-30036500D01*
X58673502Y-29968379D01*
X58727158Y-29921886D01*
X58779500Y-29910500D01*
X58868134Y-29910500D01*
X58930316Y-29903745D01*
X59066705Y-29852615D01*
X59183261Y-29765261D01*
X59270615Y-29648705D01*
X59321745Y-29512316D01*
X59328500Y-29450134D01*
X59328500Y-27753866D01*
X59321745Y-27691684D01*
X59270615Y-27555295D01*
X59183261Y-27438739D01*
X59066705Y-27351385D01*
X58930316Y-27300255D01*
X58868134Y-27293500D01*
X57171866Y-27293500D01*
X57109684Y-27300255D01*
X56973295Y-27351385D01*
X56856739Y-27438739D01*
X56769385Y-27555295D01*
X56718255Y-27691684D01*
X56711500Y-27753866D01*
X56711500Y-28764450D01*
X56691498Y-28832571D01*
X56637842Y-28879064D01*
X56567568Y-28889168D01*
X56502988Y-28859674D01*
X56477798Y-28828451D01*
X56476615Y-28825295D01*
X56471235Y-28818116D01*
X56471233Y-28818113D01*
X56394642Y-28715919D01*
X56389261Y-28708739D01*
X56272705Y-28621385D01*
X56136316Y-28570255D01*
X56074134Y-28563500D01*
X54377866Y-28563500D01*
X54315684Y-28570255D01*
X54179295Y-28621385D01*
X54062739Y-28708739D01*
X53975385Y-28825295D01*
X53924255Y-28961684D01*
X53917500Y-29023866D01*
X53917500Y-30034450D01*
X53897498Y-30102571D01*
X53843842Y-30149064D01*
X53773568Y-30159168D01*
X53708988Y-30129674D01*
X53683798Y-30098451D01*
X53682615Y-30095295D01*
X53677235Y-30088116D01*
X53677233Y-30088113D01*
X53600642Y-29985919D01*
X53595261Y-29978739D01*
X53478705Y-29891385D01*
X53342316Y-29840255D01*
X53280134Y-29833500D01*
X51583866Y-29833500D01*
X51521684Y-29840255D01*
X51385295Y-29891385D01*
X51268739Y-29978739D01*
X51181385Y-30095295D01*
X51130255Y-30231684D01*
X51123500Y-30293866D01*
X51123500Y-31304450D01*
X51103498Y-31372571D01*
X51049842Y-31419064D01*
X50979568Y-31429168D01*
X50914988Y-31399674D01*
X50889798Y-31368451D01*
X50888615Y-31365295D01*
X50883235Y-31358116D01*
X50883233Y-31358113D01*
X50806642Y-31255919D01*
X50801261Y-31248739D01*
X50684705Y-31161385D01*
X50548316Y-31110255D01*
X50486134Y-31103500D01*
X48789866Y-31103500D01*
X48727684Y-31110255D01*
X48591295Y-31161385D01*
X48474739Y-31248739D01*
X48387385Y-31365295D01*
X48336255Y-31501684D01*
X48329500Y-31563866D01*
X48329500Y-33260134D01*
X48336255Y-33322316D01*
X48387385Y-33458705D01*
X48474739Y-33575261D01*
X48591295Y-33662615D01*
X48727684Y-33713745D01*
X48789866Y-33720500D01*
X49998406Y-33720500D01*
X50066527Y-33740502D01*
X50087501Y-33757405D01*
X50290262Y-33960166D01*
X50324288Y-34022478D01*
X50319223Y-34093293D01*
X50276676Y-34150129D01*
X50210156Y-34174940D01*
X50187561Y-34174524D01*
X50178134Y-34173500D01*
X48081866Y-34173500D01*
X48019684Y-34180255D01*
X47883295Y-34231385D01*
X47766739Y-34318739D01*
X47679385Y-34435295D01*
X47628255Y-34571684D01*
X47621500Y-34633866D01*
X47621500Y-36230134D01*
X47628255Y-36292316D01*
X47679385Y-36428705D01*
X47766739Y-36545261D01*
X47883295Y-36632615D01*
X48019684Y-36683745D01*
X48081866Y-36690500D01*
X49440405Y-36690500D01*
X49508526Y-36710502D01*
X49529500Y-36727405D01*
X49784595Y-36982500D01*
X49818621Y-37044812D01*
X49821500Y-37071595D01*
X49821500Y-38647500D01*
X49801498Y-38715621D01*
X49747842Y-38762114D01*
X49695500Y-38773500D01*
X48081866Y-38773500D01*
X48019684Y-38780255D01*
X47883295Y-38831385D01*
X47766739Y-38918739D01*
X47679385Y-39035295D01*
X47628255Y-39171684D01*
X47621500Y-39233866D01*
X47621500Y-40830134D01*
X47628255Y-40892316D01*
X47679385Y-41028705D01*
X47766739Y-41145261D01*
X47883295Y-41232615D01*
X48019684Y-41283745D01*
X48081866Y-41290500D01*
X49695500Y-41290500D01*
X49763621Y-41310502D01*
X49810114Y-41364158D01*
X49821500Y-41416500D01*
X49821500Y-42936406D01*
X49801498Y-43004527D01*
X49784595Y-43025501D01*
X49529501Y-43280595D01*
X49467189Y-43314621D01*
X49440406Y-43317500D01*
X48081866Y-43317500D01*
X48019684Y-43324255D01*
X47883295Y-43375385D01*
X47766739Y-43462739D01*
X47679385Y-43579295D01*
X47628255Y-43715684D01*
X47621500Y-43777866D01*
X47621500Y-45374134D01*
X47628255Y-45436316D01*
X47679385Y-45572705D01*
X47766739Y-45689261D01*
X47883295Y-45776615D01*
X48019684Y-45827745D01*
X48081866Y-45834500D01*
X49440405Y-45834500D01*
X49508526Y-45854502D01*
X49529500Y-45871405D01*
X49784595Y-46126500D01*
X49818621Y-46188812D01*
X49821500Y-46215595D01*
X49821500Y-47791500D01*
X49801498Y-47859621D01*
X49747842Y-47906114D01*
X49695500Y-47917500D01*
X48081866Y-47917500D01*
X48019684Y-47924255D01*
X47883295Y-47975385D01*
X47766739Y-48062739D01*
X47679385Y-48179295D01*
X47628255Y-48315684D01*
X47621500Y-48377866D01*
X47621500Y-49974134D01*
X47628255Y-50036316D01*
X47679385Y-50172705D01*
X47766739Y-50289261D01*
X47883295Y-50376615D01*
X48019684Y-50427745D01*
X48081866Y-50434500D01*
X49695500Y-50434500D01*
X49763621Y-50454502D01*
X49810114Y-50508158D01*
X49821500Y-50560500D01*
X49821500Y-52080406D01*
X49801498Y-52148527D01*
X49784595Y-52169501D01*
X49529501Y-52424595D01*
X49467189Y-52458621D01*
X49440406Y-52461500D01*
X48081866Y-52461500D01*
X48019684Y-52468255D01*
X47883295Y-52519385D01*
X47766739Y-52606739D01*
X47679385Y-52723295D01*
X47628255Y-52859684D01*
X47621500Y-52921866D01*
X47621500Y-54518134D01*
X47628255Y-54580316D01*
X47679385Y-54716705D01*
X47766739Y-54833261D01*
X47883295Y-54920615D01*
X48019684Y-54971745D01*
X48081866Y-54978500D01*
X49440405Y-54978500D01*
X49508526Y-54998502D01*
X49529500Y-55015405D01*
X49784595Y-55270500D01*
X49818621Y-55332812D01*
X49821500Y-55359595D01*
X49821500Y-56935500D01*
X49801498Y-57003621D01*
X49747842Y-57050114D01*
X49695500Y-57061500D01*
X48081866Y-57061500D01*
X48019684Y-57068255D01*
X47883295Y-57119385D01*
X47766739Y-57206739D01*
X47679385Y-57323295D01*
X47628255Y-57459684D01*
X47621500Y-57521866D01*
X47621500Y-59118134D01*
X47628255Y-59180316D01*
X47679385Y-59316705D01*
X47766739Y-59433261D01*
X47883295Y-59520615D01*
X48019684Y-59571745D01*
X48081866Y-59578500D01*
X49695500Y-59578500D01*
X49763621Y-59598502D01*
X49810114Y-59652158D01*
X49821500Y-59704500D01*
X49821500Y-61478406D01*
X49801498Y-61546527D01*
X49784595Y-61567501D01*
X49529501Y-61822595D01*
X49467189Y-61856621D01*
X49440406Y-61859500D01*
X48081866Y-61859500D01*
X48019684Y-61866255D01*
X47883295Y-61917385D01*
X47766739Y-62004739D01*
X47679385Y-62121295D01*
X47628255Y-62257684D01*
X47621500Y-62319866D01*
X47621500Y-62358500D01*
X47601498Y-62426621D01*
X47547842Y-62473114D01*
X47495500Y-62484500D01*
X32363500Y-62484500D01*
X32295379Y-62464498D01*
X32248886Y-62410842D01*
X32237500Y-62358500D01*
X32237500Y-55267110D01*
X32257502Y-55198989D01*
X32306495Y-55155362D01*
X32306421Y-55155238D01*
X32307064Y-55154855D01*
X32308072Y-55153957D01*
X32310864Y-55152589D01*
X32310868Y-55152587D01*
X32315507Y-55150314D01*
X32500893Y-55018080D01*
X32662193Y-54857342D01*
X32682846Y-54828601D01*
X32772528Y-54703794D01*
X32828523Y-54660146D01*
X32899226Y-54653700D01*
X32962191Y-54686503D01*
X32982283Y-54711485D01*
X33019989Y-54773014D01*
X33019992Y-54773019D01*
X33022692Y-54777424D01*
X33171786Y-54949543D01*
X33346989Y-55094999D01*
X33351441Y-55097601D01*
X33351446Y-55097604D01*
X33524946Y-55198989D01*
X33543597Y-55209888D01*
X33756329Y-55291122D01*
X33761395Y-55292153D01*
X33761396Y-55292153D01*
X33813630Y-55302780D01*
X33979472Y-55336521D01*
X34107288Y-55341208D01*
X34201870Y-55344677D01*
X34201875Y-55344677D01*
X34207034Y-55344866D01*
X34212154Y-55344210D01*
X34212156Y-55344210D01*
X34284344Y-55334962D01*
X34432903Y-55315931D01*
X34437852Y-55314446D01*
X34437858Y-55314445D01*
X34564204Y-55276539D01*
X34651013Y-55250495D01*
X34855507Y-55150314D01*
X34859711Y-55147316D01*
X34859715Y-55147313D01*
X35009458Y-55040502D01*
X35040893Y-55018080D01*
X35202193Y-54857342D01*
X35222846Y-54828601D01*
X35312528Y-54703794D01*
X35368523Y-54660146D01*
X35439226Y-54653700D01*
X35502191Y-54686503D01*
X35522283Y-54711485D01*
X35559989Y-54773014D01*
X35559992Y-54773019D01*
X35562692Y-54777424D01*
X35711786Y-54949543D01*
X35886989Y-55094999D01*
X35891441Y-55097601D01*
X35891446Y-55097604D01*
X36064946Y-55198989D01*
X36083597Y-55209888D01*
X36296329Y-55291122D01*
X36301395Y-55292153D01*
X36301396Y-55292153D01*
X36353630Y-55302780D01*
X36519472Y-55336521D01*
X36647288Y-55341208D01*
X36741870Y-55344677D01*
X36741875Y-55344677D01*
X36747034Y-55344866D01*
X36752154Y-55344210D01*
X36752156Y-55344210D01*
X36824344Y-55334962D01*
X36972903Y-55315931D01*
X36977852Y-55314446D01*
X36977858Y-55314445D01*
X37104204Y-55276539D01*
X37191013Y-55250495D01*
X37395507Y-55150314D01*
X37399711Y-55147316D01*
X37399715Y-55147313D01*
X37549458Y-55040502D01*
X37580893Y-55018080D01*
X37742193Y-54857342D01*
X37762846Y-54828601D01*
X37852528Y-54703794D01*
X37908523Y-54660146D01*
X37979226Y-54653700D01*
X38042191Y-54686503D01*
X38062283Y-54711485D01*
X38099989Y-54773014D01*
X38099992Y-54773019D01*
X38102692Y-54777424D01*
X38251786Y-54949543D01*
X38426989Y-55094999D01*
X38431441Y-55097601D01*
X38431446Y-55097604D01*
X38604946Y-55198989D01*
X38623597Y-55209888D01*
X38836329Y-55291122D01*
X38841395Y-55292153D01*
X38841396Y-55292153D01*
X38893630Y-55302780D01*
X39059472Y-55336521D01*
X39187288Y-55341208D01*
X39281870Y-55344677D01*
X39281875Y-55344677D01*
X39287034Y-55344866D01*
X39292154Y-55344210D01*
X39292156Y-55344210D01*
X39364344Y-55334962D01*
X39512903Y-55315931D01*
X39517852Y-55314446D01*
X39517858Y-55314445D01*
X39644204Y-55276539D01*
X39731013Y-55250495D01*
X39935507Y-55150314D01*
X39939711Y-55147316D01*
X39939715Y-55147313D01*
X40089458Y-55040502D01*
X40120893Y-55018080D01*
X40282193Y-54857342D01*
X40302846Y-54828601D01*
X40392528Y-54703794D01*
X40448523Y-54660146D01*
X40519226Y-54653700D01*
X40582191Y-54686503D01*
X40602283Y-54711485D01*
X40639989Y-54773014D01*
X40639992Y-54773019D01*
X40642692Y-54777424D01*
X40791786Y-54949543D01*
X40966989Y-55094999D01*
X40971441Y-55097601D01*
X40971446Y-55097604D01*
X41144946Y-55198989D01*
X41163597Y-55209888D01*
X41376329Y-55291122D01*
X41381395Y-55292153D01*
X41381396Y-55292153D01*
X41433630Y-55302780D01*
X41599472Y-55336521D01*
X41727288Y-55341208D01*
X41821870Y-55344677D01*
X41821875Y-55344677D01*
X41827034Y-55344866D01*
X41832154Y-55344210D01*
X41832156Y-55344210D01*
X41904344Y-55334962D01*
X42052903Y-55315931D01*
X42057852Y-55314446D01*
X42057858Y-55314445D01*
X42184204Y-55276539D01*
X42271013Y-55250495D01*
X42475507Y-55150314D01*
X42479711Y-55147316D01*
X42479715Y-55147313D01*
X42629458Y-55040502D01*
X42660893Y-55018080D01*
X42822193Y-54857342D01*
X42842846Y-54828601D01*
X42932528Y-54703794D01*
X42988523Y-54660146D01*
X43059226Y-54653700D01*
X43122191Y-54686503D01*
X43142283Y-54711485D01*
X43179989Y-54773014D01*
X43179992Y-54773019D01*
X43182692Y-54777424D01*
X43331786Y-54949543D01*
X43506989Y-55094999D01*
X43511441Y-55097601D01*
X43511446Y-55097604D01*
X43684946Y-55198989D01*
X43703597Y-55209888D01*
X43916329Y-55291122D01*
X43921395Y-55292153D01*
X43921396Y-55292153D01*
X43973630Y-55302780D01*
X44139472Y-55336521D01*
X44267288Y-55341208D01*
X44361870Y-55344677D01*
X44361875Y-55344677D01*
X44367034Y-55344866D01*
X44372154Y-55344210D01*
X44372156Y-55344210D01*
X44444344Y-55334962D01*
X44592903Y-55315931D01*
X44597852Y-55314446D01*
X44597858Y-55314445D01*
X44724204Y-55276539D01*
X44811013Y-55250495D01*
X45013068Y-55151509D01*
X45083041Y-55139502D01*
X45148398Y-55167232D01*
X45188388Y-55225895D01*
X45194500Y-55264660D01*
X45194500Y-56084606D01*
X45174498Y-56152727D01*
X45140771Y-56187819D01*
X44988211Y-56294643D01*
X44988208Y-56294645D01*
X44983700Y-56297802D01*
X44821802Y-56459700D01*
X44818645Y-56464208D01*
X44818643Y-56464211D01*
X44711819Y-56616771D01*
X44656362Y-56661099D01*
X44608606Y-56670500D01*
X42729394Y-56670500D01*
X42661273Y-56650498D01*
X42626181Y-56616771D01*
X42519357Y-56464211D01*
X42519355Y-56464208D01*
X42516198Y-56459700D01*
X42354300Y-56297802D01*
X42349792Y-56294645D01*
X42349789Y-56294643D01*
X42197228Y-56187819D01*
X42166749Y-56166477D01*
X42161767Y-56164154D01*
X42161762Y-56164151D01*
X41964225Y-56072039D01*
X41964224Y-56072039D01*
X41959243Y-56069716D01*
X41953935Y-56068294D01*
X41953933Y-56068293D01*
X41743402Y-56011881D01*
X41743400Y-56011881D01*
X41738087Y-56010457D01*
X41510000Y-55990502D01*
X41281913Y-56010457D01*
X41276600Y-56011881D01*
X41276598Y-56011881D01*
X41066067Y-56068293D01*
X41066065Y-56068294D01*
X41060757Y-56069716D01*
X41055776Y-56072039D01*
X41055775Y-56072039D01*
X40858238Y-56164151D01*
X40858233Y-56164154D01*
X40853251Y-56166477D01*
X40822772Y-56187819D01*
X40670211Y-56294643D01*
X40670208Y-56294645D01*
X40665700Y-56297802D01*
X40503802Y-56459700D01*
X40500645Y-56464208D01*
X40500643Y-56464211D01*
X40393819Y-56616771D01*
X40338362Y-56661099D01*
X40290606Y-56670500D01*
X37903394Y-56670500D01*
X37835273Y-56650498D01*
X37800181Y-56616771D01*
X37693357Y-56464211D01*
X37693355Y-56464208D01*
X37690198Y-56459700D01*
X37528300Y-56297802D01*
X37523792Y-56294645D01*
X37523789Y-56294643D01*
X37371228Y-56187819D01*
X37340749Y-56166477D01*
X37335767Y-56164154D01*
X37335762Y-56164151D01*
X37138225Y-56072039D01*
X37138224Y-56072039D01*
X37133243Y-56069716D01*
X37127935Y-56068294D01*
X37127933Y-56068293D01*
X36917402Y-56011881D01*
X36917400Y-56011881D01*
X36912087Y-56010457D01*
X36684000Y-55990502D01*
X36455913Y-56010457D01*
X36450600Y-56011881D01*
X36450598Y-56011881D01*
X36240067Y-56068293D01*
X36240065Y-56068294D01*
X36234757Y-56069716D01*
X36229776Y-56072039D01*
X36229775Y-56072039D01*
X36032238Y-56164151D01*
X36032233Y-56164154D01*
X36027251Y-56166477D01*
X35996772Y-56187819D01*
X35844211Y-56294643D01*
X35844208Y-56294645D01*
X35839700Y-56297802D01*
X35677802Y-56459700D01*
X35546477Y-56647251D01*
X35544154Y-56652233D01*
X35544151Y-56652238D01*
X35455009Y-56843405D01*
X35449716Y-56854757D01*
X35448294Y-56860065D01*
X35448293Y-56860067D01*
X35392509Y-57068255D01*
X35390457Y-57075913D01*
X35370502Y-57304000D01*
X35390457Y-57532087D01*
X35391881Y-57537400D01*
X35391881Y-57537402D01*
X35437109Y-57706192D01*
X35449716Y-57753243D01*
X35452039Y-57758224D01*
X35452039Y-57758225D01*
X35544151Y-57955762D01*
X35544154Y-57955767D01*
X35546477Y-57960749D01*
X35677802Y-58148300D01*
X35839700Y-58310198D01*
X35844208Y-58313355D01*
X35844211Y-58313357D01*
X35894401Y-58348500D01*
X36027251Y-58441523D01*
X36032233Y-58443846D01*
X36032238Y-58443849D01*
X36229775Y-58535961D01*
X36234757Y-58538284D01*
X36240065Y-58539706D01*
X36240067Y-58539707D01*
X36450598Y-58596119D01*
X36450600Y-58596119D01*
X36455913Y-58597543D01*
X36684000Y-58617498D01*
X36912087Y-58597543D01*
X36917400Y-58596119D01*
X36917402Y-58596119D01*
X37127933Y-58539707D01*
X37127935Y-58539706D01*
X37133243Y-58538284D01*
X37138225Y-58535961D01*
X37335762Y-58443849D01*
X37335767Y-58443846D01*
X37340749Y-58441523D01*
X37473599Y-58348500D01*
X37523789Y-58313357D01*
X37523792Y-58313355D01*
X37528300Y-58310198D01*
X37690198Y-58148300D01*
X37800181Y-57991229D01*
X37855638Y-57946901D01*
X37903394Y-57937500D01*
X40290606Y-57937500D01*
X40358727Y-57957502D01*
X40393819Y-57991229D01*
X40503802Y-58148300D01*
X40665700Y-58310198D01*
X40670208Y-58313355D01*
X40670211Y-58313357D01*
X40720401Y-58348500D01*
X40853251Y-58441523D01*
X40858233Y-58443846D01*
X40858238Y-58443849D01*
X41055775Y-58535961D01*
X41060757Y-58538284D01*
X41066065Y-58539706D01*
X41066067Y-58539707D01*
X41276598Y-58596119D01*
X41276600Y-58596119D01*
X41281913Y-58597543D01*
X41510000Y-58617498D01*
X41738087Y-58597543D01*
X41743400Y-58596119D01*
X41743402Y-58596119D01*
X41953933Y-58539707D01*
X41953935Y-58539706D01*
X41959243Y-58538284D01*
X41964225Y-58535961D01*
X42161762Y-58443849D01*
X42161767Y-58443846D01*
X42166749Y-58441523D01*
X42299599Y-58348500D01*
X42349789Y-58313357D01*
X42349792Y-58313355D01*
X42354300Y-58310198D01*
X42516198Y-58148300D01*
X42626181Y-57991229D01*
X42681638Y-57946901D01*
X42729394Y-57937500D01*
X44608606Y-57937500D01*
X44676727Y-57957502D01*
X44711819Y-57991229D01*
X44821802Y-58148300D01*
X44983700Y-58310198D01*
X44988208Y-58313355D01*
X44988211Y-58313357D01*
X45038401Y-58348500D01*
X45171251Y-58441523D01*
X45176233Y-58443846D01*
X45176238Y-58443849D01*
X45373775Y-58535961D01*
X45378757Y-58538284D01*
X45384065Y-58539706D01*
X45384067Y-58539707D01*
X45594598Y-58596119D01*
X45594600Y-58596119D01*
X45599913Y-58597543D01*
X45828000Y-58617498D01*
X46056087Y-58597543D01*
X46061400Y-58596119D01*
X46061402Y-58596119D01*
X46271933Y-58539707D01*
X46271935Y-58539706D01*
X46277243Y-58538284D01*
X46282225Y-58535961D01*
X46479762Y-58443849D01*
X46479767Y-58443846D01*
X46484749Y-58441523D01*
X46617599Y-58348500D01*
X46667789Y-58313357D01*
X46667792Y-58313355D01*
X46672300Y-58310198D01*
X46834198Y-58148300D01*
X46965523Y-57960749D01*
X46967846Y-57955767D01*
X46967849Y-57955762D01*
X47059961Y-57758225D01*
X47059961Y-57758224D01*
X47062284Y-57753243D01*
X47074892Y-57706192D01*
X47120119Y-57537402D01*
X47120119Y-57537400D01*
X47121543Y-57532087D01*
X47141498Y-57304000D01*
X47121543Y-57075913D01*
X47119491Y-57068255D01*
X47063707Y-56860067D01*
X47063706Y-56860065D01*
X47062284Y-56854757D01*
X47056991Y-56843405D01*
X46967849Y-56652238D01*
X46967846Y-56652233D01*
X46965523Y-56647251D01*
X46834198Y-56459700D01*
X46672300Y-56297802D01*
X46667792Y-56294645D01*
X46667789Y-56294643D01*
X46515229Y-56187819D01*
X46470901Y-56132362D01*
X46461500Y-56084606D01*
X46461500Y-47939513D01*
X46462027Y-47928329D01*
X46463701Y-47920841D01*
X46461562Y-47852782D01*
X46461500Y-47848825D01*
X46461500Y-47820894D01*
X46460994Y-47816888D01*
X46460061Y-47805042D01*
X46458922Y-47768787D01*
X46458673Y-47760860D01*
X46453022Y-47741408D01*
X46449014Y-47722056D01*
X46447468Y-47709818D01*
X46447467Y-47709816D01*
X46446474Y-47701953D01*
X46430194Y-47660836D01*
X46426359Y-47649635D01*
X46414018Y-47607156D01*
X46409985Y-47600337D01*
X46409983Y-47600332D01*
X46403707Y-47589721D01*
X46395010Y-47571971D01*
X46387552Y-47553133D01*
X46361571Y-47517373D01*
X46355053Y-47507451D01*
X46336578Y-47476210D01*
X46336574Y-47476205D01*
X46332542Y-47469387D01*
X46318218Y-47455063D01*
X46305376Y-47440028D01*
X46304600Y-47438960D01*
X46293472Y-47423643D01*
X46259406Y-47395461D01*
X46250627Y-47387472D01*
X45676302Y-46813147D01*
X45642276Y-46750835D01*
X45644838Y-46687424D01*
X45660662Y-46635341D01*
X45660663Y-46635336D01*
X45662164Y-46630396D01*
X45674700Y-46535177D01*
X45691450Y-46407951D01*
X45691451Y-46407944D01*
X45691887Y-46404629D01*
X45693546Y-46336750D01*
X45676260Y-46126500D01*
X45675311Y-46114952D01*
X45675310Y-46114946D01*
X45674887Y-46109801D01*
X45641051Y-45975091D01*
X45620672Y-45893958D01*
X45620671Y-45893954D01*
X45619413Y-45888947D01*
X45617354Y-45884211D01*
X45530672Y-45684856D01*
X45530670Y-45684853D01*
X45528612Y-45680119D01*
X45437179Y-45538785D01*
X45407731Y-45493265D01*
X45407729Y-45493262D01*
X45404923Y-45488925D01*
X45251668Y-45320500D01*
X45072963Y-45179368D01*
X45066335Y-45175709D01*
X45065651Y-45175019D01*
X45064131Y-45174009D01*
X45064339Y-45173695D01*
X45016363Y-45125283D01*
X45001585Y-45055841D01*
X45026696Y-44989434D01*
X45054054Y-44962819D01*
X45196689Y-44861079D01*
X45196691Y-44861077D01*
X45200893Y-44858080D01*
X45362193Y-44697342D01*
X45495073Y-44512419D01*
X45595967Y-44308276D01*
X45662164Y-44090396D01*
X45674700Y-43995180D01*
X45691450Y-43867951D01*
X45691451Y-43867944D01*
X45691887Y-43864629D01*
X45693546Y-43796750D01*
X45679225Y-43622566D01*
X45675311Y-43574952D01*
X45675310Y-43574946D01*
X45674887Y-43569801D01*
X45634992Y-43410969D01*
X45620672Y-43353958D01*
X45620671Y-43353954D01*
X45619413Y-43348947D01*
X45614393Y-43337402D01*
X45530672Y-43144856D01*
X45530670Y-43144853D01*
X45528612Y-43140119D01*
X45421269Y-42974192D01*
X45407731Y-42953265D01*
X45407729Y-42953262D01*
X45404923Y-42948925D01*
X45251668Y-42780500D01*
X45072963Y-42639368D01*
X45066335Y-42635709D01*
X45065651Y-42635019D01*
X45064131Y-42634009D01*
X45064339Y-42633695D01*
X45016363Y-42585283D01*
X45001585Y-42515841D01*
X45026696Y-42449434D01*
X45054054Y-42422819D01*
X45196689Y-42321079D01*
X45196691Y-42321077D01*
X45200893Y-42318080D01*
X45362193Y-42157342D01*
X45401919Y-42102058D01*
X45492055Y-41976619D01*
X45495073Y-41972419D01*
X45595967Y-41768276D01*
X45662164Y-41550396D01*
X45674700Y-41455180D01*
X45691450Y-41327951D01*
X45691451Y-41327944D01*
X45691887Y-41324629D01*
X45692730Y-41290131D01*
X45693464Y-41260115D01*
X45693464Y-41260110D01*
X45693546Y-41256750D01*
X45685531Y-41159261D01*
X45675311Y-41034952D01*
X45675310Y-41034946D01*
X45674887Y-41029801D01*
X45624735Y-40830134D01*
X45620672Y-40813958D01*
X45620671Y-40813954D01*
X45619413Y-40808947D01*
X45617354Y-40804211D01*
X45530672Y-40604856D01*
X45530670Y-40604853D01*
X45528612Y-40600119D01*
X45404923Y-40408925D01*
X45251668Y-40240500D01*
X45072963Y-40099368D01*
X45066335Y-40095709D01*
X45065651Y-40095019D01*
X45064131Y-40094009D01*
X45064339Y-40093695D01*
X45016363Y-40045283D01*
X45001585Y-39975841D01*
X45026696Y-39909434D01*
X45054054Y-39882819D01*
X45196689Y-39781079D01*
X45196691Y-39781077D01*
X45200893Y-39778080D01*
X45362193Y-39617342D01*
X45495073Y-39432419D01*
X45591516Y-39237283D01*
X45593673Y-39232918D01*
X45593674Y-39232916D01*
X45595967Y-39228276D01*
X45662164Y-39010396D01*
X45666630Y-38976476D01*
X45691450Y-38787951D01*
X45691451Y-38787944D01*
X45691887Y-38784629D01*
X45692437Y-38762114D01*
X45693464Y-38720115D01*
X45693464Y-38720110D01*
X45693546Y-38716750D01*
X45686179Y-38627143D01*
X45675311Y-38494952D01*
X45675310Y-38494946D01*
X45674887Y-38489801D01*
X45619413Y-38268947D01*
X45617354Y-38264211D01*
X45530672Y-38064856D01*
X45530670Y-38064853D01*
X45528612Y-38060119D01*
X45404923Y-37868925D01*
X45251668Y-37700500D01*
X45072963Y-37559368D01*
X45066335Y-37555709D01*
X45065651Y-37555019D01*
X45064131Y-37554009D01*
X45064339Y-37553695D01*
X45016363Y-37505283D01*
X45001585Y-37435841D01*
X45026696Y-37369434D01*
X45054054Y-37342819D01*
X45196689Y-37241079D01*
X45196691Y-37241077D01*
X45200893Y-37238080D01*
X45362193Y-37077342D01*
X45495073Y-36892419D01*
X45525384Y-36831091D01*
X45593673Y-36692918D01*
X45593674Y-36692916D01*
X45595967Y-36688276D01*
X45662164Y-36470396D01*
X45664864Y-36449891D01*
X45691450Y-36247951D01*
X45691451Y-36247944D01*
X45691887Y-36244629D01*
X45693546Y-36176750D01*
X45678390Y-35992406D01*
X45675311Y-35954952D01*
X45675310Y-35954946D01*
X45674887Y-35949801D01*
X45619413Y-35728947D01*
X45617354Y-35724211D01*
X45530672Y-35524856D01*
X45530670Y-35524853D01*
X45528612Y-35520119D01*
X45404923Y-35328925D01*
X45251668Y-35160500D01*
X45072963Y-35019368D01*
X45066335Y-35015709D01*
X45065651Y-35015019D01*
X45064131Y-35014009D01*
X45064339Y-35013695D01*
X45016363Y-34965283D01*
X45001585Y-34895841D01*
X45026696Y-34829434D01*
X45054054Y-34802819D01*
X45196689Y-34701079D01*
X45196691Y-34701077D01*
X45200893Y-34698080D01*
X45362193Y-34537342D01*
X45417177Y-34460824D01*
X45492055Y-34356619D01*
X45495073Y-34352419D01*
X45497494Y-34347522D01*
X45593673Y-34152918D01*
X45593674Y-34152916D01*
X45595967Y-34148276D01*
X45662164Y-33930396D01*
X45674700Y-33835180D01*
X45691450Y-33707951D01*
X45691451Y-33707944D01*
X45691887Y-33704629D01*
X45692914Y-33662615D01*
X45693464Y-33640115D01*
X45693464Y-33640110D01*
X45693546Y-33636750D01*
X45686179Y-33547143D01*
X45675311Y-33414952D01*
X45675310Y-33414946D01*
X45674887Y-33409801D01*
X45640327Y-33272211D01*
X45620672Y-33193958D01*
X45620671Y-33193954D01*
X45619413Y-33188947D01*
X45607743Y-33162108D01*
X45530672Y-32984856D01*
X45530670Y-32984853D01*
X45528612Y-32980119D01*
X45404923Y-32788925D01*
X45251668Y-32620500D01*
X45072963Y-32479368D01*
X45066335Y-32475709D01*
X45065651Y-32475019D01*
X45064131Y-32474009D01*
X45064339Y-32473695D01*
X45016363Y-32425283D01*
X45001585Y-32355841D01*
X45026696Y-32289434D01*
X45054054Y-32262819D01*
X45196689Y-32161079D01*
X45196691Y-32161077D01*
X45200893Y-32158080D01*
X45362193Y-31997342D01*
X45367373Y-31990134D01*
X45492055Y-31816619D01*
X45495073Y-31812419D01*
X45497494Y-31807522D01*
X45593673Y-31612918D01*
X45593674Y-31612916D01*
X45595967Y-31608276D01*
X45662164Y-31390396D01*
X45674700Y-31295180D01*
X45691450Y-31167951D01*
X45691451Y-31167944D01*
X45691887Y-31164629D01*
X45692914Y-31122615D01*
X45693464Y-31100115D01*
X45693464Y-31100110D01*
X45693546Y-31096750D01*
X45679499Y-30925891D01*
X45675311Y-30874952D01*
X45675310Y-30874946D01*
X45674887Y-30869801D01*
X45640327Y-30732211D01*
X45620672Y-30653958D01*
X45620671Y-30653954D01*
X45619413Y-30648947D01*
X45607743Y-30622108D01*
X45530672Y-30444856D01*
X45530670Y-30444853D01*
X45528612Y-30440119D01*
X45404923Y-30248925D01*
X45251668Y-30080500D01*
X45072963Y-29939368D01*
X45065849Y-29935441D01*
X45065006Y-29934590D01*
X45064131Y-29934009D01*
X45064251Y-29933828D01*
X45015876Y-29885011D01*
X45001100Y-29815569D01*
X45026214Y-29749163D01*
X45053568Y-29722552D01*
X45072103Y-29709331D01*
X45080504Y-29698631D01*
X45073515Y-29685475D01*
X44316812Y-28928772D01*
X44302868Y-28921158D01*
X44301035Y-28921289D01*
X44294420Y-28925540D01*
X43531510Y-29688450D01*
X43524750Y-29700830D01*
X43530031Y-29707884D01*
X43544698Y-29716455D01*
X43593422Y-29768093D01*
X43606493Y-29837876D01*
X43579762Y-29903648D01*
X43556781Y-29926003D01*
X43409613Y-30036500D01*
X43381444Y-30057650D01*
X43224120Y-30222280D01*
X43221206Y-30226552D01*
X43221205Y-30226553D01*
X43177605Y-30290469D01*
X43095797Y-30410395D01*
X42999921Y-30616942D01*
X42998539Y-30621924D01*
X42998539Y-30621925D01*
X42991045Y-30648947D01*
X42939067Y-30836375D01*
X42914869Y-31062800D01*
X42915166Y-31067952D01*
X42915166Y-31067956D01*
X42917216Y-31103500D01*
X42927977Y-31290137D01*
X42929112Y-31295174D01*
X42929113Y-31295180D01*
X42968234Y-31468772D01*
X42978039Y-31512281D01*
X42979983Y-31517067D01*
X42979984Y-31517072D01*
X43061675Y-31718252D01*
X43063711Y-31723265D01*
X43182692Y-31917424D01*
X43331786Y-32089543D01*
X43506989Y-32234999D01*
X43511440Y-32237600D01*
X43511450Y-32237607D01*
X43544266Y-32256783D01*
X43592989Y-32308422D01*
X43606059Y-32378205D01*
X43579326Y-32443977D01*
X43556353Y-32466325D01*
X43381444Y-32597650D01*
X43224120Y-32762280D01*
X43221206Y-32766552D01*
X43221205Y-32766553D01*
X43198944Y-32799187D01*
X43095797Y-32950395D01*
X42999921Y-33156942D01*
X42998539Y-33161924D01*
X42998539Y-33161925D01*
X42991045Y-33188947D01*
X42939067Y-33376375D01*
X42914869Y-33602800D01*
X42915166Y-33607952D01*
X42915166Y-33607956D01*
X42917379Y-33646330D01*
X42927977Y-33830137D01*
X42929112Y-33835174D01*
X42929113Y-33835180D01*
X42976869Y-34047089D01*
X42978039Y-34052281D01*
X42979983Y-34057067D01*
X42979984Y-34057072D01*
X43061675Y-34258252D01*
X43063711Y-34263265D01*
X43150230Y-34404451D01*
X43177711Y-34449295D01*
X43182692Y-34457424D01*
X43331786Y-34629543D01*
X43506989Y-34774999D01*
X43511440Y-34777600D01*
X43511450Y-34777607D01*
X43544266Y-34796783D01*
X43592989Y-34848422D01*
X43606059Y-34918205D01*
X43579326Y-34983977D01*
X43556353Y-35006325D01*
X43381444Y-35137650D01*
X43224120Y-35302280D01*
X43221206Y-35306552D01*
X43221205Y-35306553D01*
X43149928Y-35411042D01*
X43095797Y-35490395D01*
X42999921Y-35696942D01*
X42939067Y-35916375D01*
X42914869Y-36142800D01*
X42915166Y-36147952D01*
X42915166Y-36147956D01*
X42918543Y-36206527D01*
X42927977Y-36370137D01*
X42929112Y-36375174D01*
X42929113Y-36375180D01*
X42970734Y-36559865D01*
X42978039Y-36592281D01*
X42979983Y-36597067D01*
X42979984Y-36597072D01*
X43036036Y-36735110D01*
X43063711Y-36803265D01*
X43182692Y-36997424D01*
X43331786Y-37169543D01*
X43506989Y-37314999D01*
X43511440Y-37317600D01*
X43511450Y-37317607D01*
X43544266Y-37336783D01*
X43592989Y-37388422D01*
X43606059Y-37458205D01*
X43579326Y-37523977D01*
X43556353Y-37546325D01*
X43381444Y-37677650D01*
X43224120Y-37842280D01*
X43221206Y-37846552D01*
X43221205Y-37846553D01*
X43149928Y-37951042D01*
X43095797Y-38030395D01*
X42999921Y-38236942D01*
X42939067Y-38456375D01*
X42914869Y-38682800D01*
X42915166Y-38687952D01*
X42915166Y-38687956D01*
X42917569Y-38729621D01*
X42927977Y-38910137D01*
X42929112Y-38915174D01*
X42929113Y-38915180D01*
X42942927Y-38976476D01*
X42978039Y-39132281D01*
X42979983Y-39137067D01*
X42979984Y-39137072D01*
X43020676Y-39237283D01*
X43063711Y-39343265D01*
X43182692Y-39537424D01*
X43331786Y-39709543D01*
X43506989Y-39854999D01*
X43511440Y-39857600D01*
X43511450Y-39857607D01*
X43544266Y-39876783D01*
X43592989Y-39928422D01*
X43606059Y-39998205D01*
X43579326Y-40063977D01*
X43556353Y-40086325D01*
X43381444Y-40217650D01*
X43224120Y-40382280D01*
X43221206Y-40386552D01*
X43221205Y-40386553D01*
X43149928Y-40491042D01*
X43095797Y-40570395D01*
X42999921Y-40776942D01*
X42998539Y-40781924D01*
X42998539Y-40781925D01*
X42982235Y-40840717D01*
X42939067Y-40996375D01*
X42914869Y-41222800D01*
X42915166Y-41227952D01*
X42915166Y-41227956D01*
X42919030Y-41294971D01*
X42927977Y-41450137D01*
X42978039Y-41672281D01*
X42979983Y-41677067D01*
X42979984Y-41677072D01*
X43053210Y-41857405D01*
X43063711Y-41883265D01*
X43182692Y-42077424D01*
X43331786Y-42249543D01*
X43506989Y-42394999D01*
X43511440Y-42397600D01*
X43511450Y-42397607D01*
X43544266Y-42416783D01*
X43592989Y-42468422D01*
X43606059Y-42538205D01*
X43579326Y-42603977D01*
X43556353Y-42626325D01*
X43381444Y-42757650D01*
X43224120Y-42922280D01*
X43221206Y-42926552D01*
X43221205Y-42926553D01*
X43191986Y-42969387D01*
X43095797Y-43110395D01*
X42999921Y-43316942D01*
X42998539Y-43321924D01*
X42998539Y-43321925D01*
X42991045Y-43348947D01*
X42939067Y-43536375D01*
X42914869Y-43762800D01*
X42915166Y-43767952D01*
X42915166Y-43767956D01*
X42918656Y-43828474D01*
X42927977Y-43990137D01*
X42929112Y-43995174D01*
X42929113Y-43995180D01*
X42933714Y-44015595D01*
X42978039Y-44212281D01*
X42979983Y-44217067D01*
X42979984Y-44217072D01*
X43061767Y-44418478D01*
X43063711Y-44423265D01*
X43182692Y-44617424D01*
X43331786Y-44789543D01*
X43506989Y-44934999D01*
X43511440Y-44937600D01*
X43511450Y-44937607D01*
X43544266Y-44956783D01*
X43592989Y-45008422D01*
X43606059Y-45078205D01*
X43579326Y-45143977D01*
X43556353Y-45166325D01*
X43381444Y-45297650D01*
X43377872Y-45301388D01*
X43294976Y-45388134D01*
X43224120Y-45462280D01*
X43221206Y-45466552D01*
X43221205Y-45466553D01*
X43177607Y-45530465D01*
X43095797Y-45650395D01*
X42999921Y-45856942D01*
X42998539Y-45861924D01*
X42998539Y-45861925D01*
X42991045Y-45888947D01*
X42939067Y-46076375D01*
X42914869Y-46302800D01*
X42915166Y-46307952D01*
X42915166Y-46307956D01*
X42919983Y-46391490D01*
X42927977Y-46530137D01*
X42929112Y-46535174D01*
X42929113Y-46535180D01*
X42976901Y-46747232D01*
X42978039Y-46752281D01*
X42979983Y-46757067D01*
X42979984Y-46757072D01*
X43055232Y-46942384D01*
X43063711Y-46963265D01*
X43182692Y-47157424D01*
X43331786Y-47329543D01*
X43506989Y-47474999D01*
X43511440Y-47477600D01*
X43511450Y-47477607D01*
X43544266Y-47496783D01*
X43592989Y-47548422D01*
X43606059Y-47618205D01*
X43579326Y-47683977D01*
X43556353Y-47706325D01*
X43381444Y-47837650D01*
X43347933Y-47872717D01*
X43235327Y-47990553D01*
X43224120Y-48002280D01*
X43221206Y-48006552D01*
X43221205Y-48006553D01*
X43195792Y-48043807D01*
X43095797Y-48190395D01*
X42999921Y-48396942D01*
X42939067Y-48616375D01*
X42914869Y-48842800D01*
X42915166Y-48847952D01*
X42915166Y-48847956D01*
X42919983Y-48931490D01*
X42927977Y-49070137D01*
X42978039Y-49292281D01*
X42979983Y-49297067D01*
X42979984Y-49297072D01*
X43061723Y-49498370D01*
X43063711Y-49503265D01*
X43182692Y-49697424D01*
X43331786Y-49869543D01*
X43506989Y-50014999D01*
X43511440Y-50017600D01*
X43511450Y-50017607D01*
X43544266Y-50036783D01*
X43592989Y-50088422D01*
X43606059Y-50158205D01*
X43579326Y-50223977D01*
X43556353Y-50246325D01*
X43381444Y-50377650D01*
X43224120Y-50542280D01*
X43221206Y-50546552D01*
X43221205Y-50546553D01*
X43214118Y-50556942D01*
X43095797Y-50730395D01*
X42999921Y-50936942D01*
X42939067Y-51156375D01*
X42914869Y-51382800D01*
X42915166Y-51387952D01*
X42915166Y-51387956D01*
X42919983Y-51471490D01*
X42927977Y-51610137D01*
X42978039Y-51832281D01*
X42979983Y-51837067D01*
X42979984Y-51837072D01*
X43037217Y-51978018D01*
X43063711Y-52043265D01*
X43182692Y-52237424D01*
X43331786Y-52409543D01*
X43506989Y-52554999D01*
X43511440Y-52557600D01*
X43511450Y-52557607D01*
X43544266Y-52576783D01*
X43592989Y-52628422D01*
X43606059Y-52698205D01*
X43579326Y-52763977D01*
X43556353Y-52786325D01*
X43381444Y-52917650D01*
X43224120Y-53082280D01*
X43161830Y-53173594D01*
X43137784Y-53208844D01*
X43082873Y-53253846D01*
X43012348Y-53262017D01*
X42948601Y-53230763D01*
X42927904Y-53206279D01*
X42867731Y-53113265D01*
X42867729Y-53113262D01*
X42864923Y-53108925D01*
X42711668Y-52940500D01*
X42532963Y-52799368D01*
X42333607Y-52689317D01*
X42205806Y-52644060D01*
X42123829Y-52615030D01*
X42123825Y-52615029D01*
X42118954Y-52613304D01*
X42113861Y-52612397D01*
X42113858Y-52612396D01*
X41899857Y-52574277D01*
X41899851Y-52574276D01*
X41894768Y-52573371D01*
X41807698Y-52572307D01*
X41672239Y-52570652D01*
X41672237Y-52570652D01*
X41667070Y-52570589D01*
X41441976Y-52605033D01*
X41225529Y-52675779D01*
X41220937Y-52678169D01*
X41220938Y-52678169D01*
X41056103Y-52763977D01*
X41023544Y-52780926D01*
X41019411Y-52784029D01*
X41019408Y-52784031D01*
X40845579Y-52914545D01*
X40841444Y-52917650D01*
X40684120Y-53082280D01*
X40621830Y-53173594D01*
X40597784Y-53208844D01*
X40542873Y-53253846D01*
X40472348Y-53262017D01*
X40408601Y-53230763D01*
X40387904Y-53206279D01*
X40327731Y-53113265D01*
X40327729Y-53113262D01*
X40324923Y-53108925D01*
X40171668Y-52940500D01*
X39992963Y-52799368D01*
X39793607Y-52689317D01*
X39665806Y-52644060D01*
X39583829Y-52615030D01*
X39583825Y-52615029D01*
X39578954Y-52613304D01*
X39573861Y-52612397D01*
X39573858Y-52612396D01*
X39359857Y-52574277D01*
X39359851Y-52574276D01*
X39354768Y-52573371D01*
X39267698Y-52572307D01*
X39132239Y-52570652D01*
X39132237Y-52570652D01*
X39127070Y-52570589D01*
X38901976Y-52605033D01*
X38879449Y-52612396D01*
X38874679Y-52613955D01*
X38803715Y-52616106D01*
X38746439Y-52583285D01*
X36036000Y-49872845D01*
X33308952Y-47145797D01*
X33301412Y-47137511D01*
X33297300Y-47131032D01*
X33290925Y-47125045D01*
X33247649Y-47084407D01*
X33244807Y-47081652D01*
X33225070Y-47061915D01*
X33221873Y-47059435D01*
X33212851Y-47051730D01*
X33186400Y-47026891D01*
X33180621Y-47021464D01*
X33173675Y-47017645D01*
X33173672Y-47017643D01*
X33162866Y-47011702D01*
X33146347Y-47000851D01*
X33145883Y-47000491D01*
X33130341Y-46988436D01*
X33123072Y-46985291D01*
X33123068Y-46985288D01*
X33089763Y-46970876D01*
X33079113Y-46965659D01*
X33040360Y-46944355D01*
X33020737Y-46939317D01*
X33002034Y-46932913D01*
X32990720Y-46928017D01*
X32990719Y-46928017D01*
X32983445Y-46924869D01*
X32975622Y-46923630D01*
X32975612Y-46923627D01*
X32939776Y-46917951D01*
X32928156Y-46915545D01*
X32893011Y-46906522D01*
X32893010Y-46906522D01*
X32885330Y-46904550D01*
X32865076Y-46904550D01*
X32845365Y-46902999D01*
X32845170Y-46902968D01*
X32825357Y-46899830D01*
X32793674Y-46902825D01*
X32781339Y-46903991D01*
X32769481Y-46904550D01*
X30508839Y-46904550D01*
X30440718Y-46884548D01*
X30394225Y-46830892D01*
X30384121Y-46760618D01*
X30388280Y-46741922D01*
X30420662Y-46635340D01*
X30420662Y-46635339D01*
X30422164Y-46630396D01*
X30434700Y-46535177D01*
X30451450Y-46407951D01*
X30451451Y-46407944D01*
X30451887Y-46404629D01*
X30453546Y-46336750D01*
X30436260Y-46126500D01*
X30435311Y-46114952D01*
X30435310Y-46114946D01*
X30434887Y-46109801D01*
X30401051Y-45975091D01*
X30380672Y-45893958D01*
X30380671Y-45893954D01*
X30379413Y-45888947D01*
X30377354Y-45884211D01*
X30290672Y-45684856D01*
X30290670Y-45684853D01*
X30288612Y-45680119D01*
X30197179Y-45538785D01*
X30167731Y-45493265D01*
X30167729Y-45493262D01*
X30164923Y-45488925D01*
X30011668Y-45320500D01*
X29832963Y-45179368D01*
X29826335Y-45175709D01*
X29825651Y-45175019D01*
X29824131Y-45174009D01*
X29824339Y-45173695D01*
X29776363Y-45125283D01*
X29761585Y-45055841D01*
X29786696Y-44989434D01*
X29814054Y-44962819D01*
X29956689Y-44861079D01*
X29956691Y-44861077D01*
X29960893Y-44858080D01*
X30122193Y-44697342D01*
X30255073Y-44512419D01*
X30355967Y-44308276D01*
X30422164Y-44090396D01*
X30434700Y-43995180D01*
X30451450Y-43867951D01*
X30451451Y-43867944D01*
X30451887Y-43864629D01*
X30453546Y-43796750D01*
X30439225Y-43622566D01*
X30435311Y-43574952D01*
X30435310Y-43574946D01*
X30434887Y-43569801D01*
X30394992Y-43410969D01*
X30380672Y-43353958D01*
X30380671Y-43353954D01*
X30379413Y-43348947D01*
X30374393Y-43337402D01*
X30290672Y-43144856D01*
X30290670Y-43144853D01*
X30288612Y-43140119D01*
X30181269Y-42974192D01*
X30167731Y-42953265D01*
X30167729Y-42953262D01*
X30164923Y-42948925D01*
X30011668Y-42780500D01*
X29832963Y-42639368D01*
X29826335Y-42635709D01*
X29825651Y-42635019D01*
X29824131Y-42634009D01*
X29824339Y-42633695D01*
X29776363Y-42585283D01*
X29761585Y-42515841D01*
X29786696Y-42449434D01*
X29814054Y-42422819D01*
X29956689Y-42321079D01*
X29956691Y-42321077D01*
X29960893Y-42318080D01*
X30122193Y-42157342D01*
X30161919Y-42102058D01*
X30252055Y-41976619D01*
X30255073Y-41972419D01*
X30355967Y-41768276D01*
X30422164Y-41550396D01*
X30434700Y-41455180D01*
X30451450Y-41327951D01*
X30451451Y-41327944D01*
X30451887Y-41324629D01*
X30452730Y-41290131D01*
X30453464Y-41260115D01*
X30453464Y-41260110D01*
X30453546Y-41256750D01*
X30445531Y-41159261D01*
X30435311Y-41034952D01*
X30435310Y-41034946D01*
X30434887Y-41029801D01*
X30384735Y-40830134D01*
X30380672Y-40813958D01*
X30380671Y-40813954D01*
X30379413Y-40808947D01*
X30377354Y-40804211D01*
X30290672Y-40604856D01*
X30290670Y-40604853D01*
X30288612Y-40600119D01*
X30164923Y-40408925D01*
X30011668Y-40240500D01*
X29832963Y-40099368D01*
X29826335Y-40095709D01*
X29825651Y-40095019D01*
X29824131Y-40094009D01*
X29824339Y-40093695D01*
X29776363Y-40045283D01*
X29761585Y-39975841D01*
X29786696Y-39909434D01*
X29814054Y-39882819D01*
X29956689Y-39781079D01*
X29956691Y-39781077D01*
X29960893Y-39778080D01*
X30122193Y-39617342D01*
X30255073Y-39432419D01*
X30351516Y-39237283D01*
X30353673Y-39232918D01*
X30353674Y-39232916D01*
X30355967Y-39228276D01*
X30422164Y-39010396D01*
X30426630Y-38976476D01*
X30451450Y-38787951D01*
X30451451Y-38787944D01*
X30451887Y-38784629D01*
X30452437Y-38762114D01*
X30453464Y-38720115D01*
X30453464Y-38720110D01*
X30453546Y-38716750D01*
X30446179Y-38627143D01*
X30435311Y-38494952D01*
X30435310Y-38494946D01*
X30434887Y-38489801D01*
X30379413Y-38268947D01*
X30377354Y-38264211D01*
X30290672Y-38064856D01*
X30290670Y-38064853D01*
X30288612Y-38060119D01*
X30164923Y-37868925D01*
X30011668Y-37700500D01*
X29832963Y-37559368D01*
X29826335Y-37555709D01*
X29825651Y-37555019D01*
X29824131Y-37554009D01*
X29824339Y-37553695D01*
X29776363Y-37505283D01*
X29761585Y-37435841D01*
X29786696Y-37369434D01*
X29814054Y-37342819D01*
X29956689Y-37241079D01*
X29956691Y-37241077D01*
X29960893Y-37238080D01*
X30122193Y-37077342D01*
X30255073Y-36892419D01*
X30285384Y-36831091D01*
X30353673Y-36692918D01*
X30353674Y-36692916D01*
X30355967Y-36688276D01*
X30422164Y-36470396D01*
X30424864Y-36449891D01*
X30451450Y-36247951D01*
X30451451Y-36247944D01*
X30451887Y-36244629D01*
X30453546Y-36176750D01*
X30438390Y-35992406D01*
X30435311Y-35954952D01*
X30435310Y-35954946D01*
X30434887Y-35949801D01*
X30379413Y-35728947D01*
X30377354Y-35724211D01*
X30290672Y-35524856D01*
X30290670Y-35524853D01*
X30288612Y-35520119D01*
X30164923Y-35328925D01*
X30011668Y-35160500D01*
X29832963Y-35019368D01*
X29825849Y-35015441D01*
X29825006Y-35014590D01*
X29824131Y-35014009D01*
X29824251Y-35013828D01*
X29775876Y-34965011D01*
X29761100Y-34895569D01*
X29786214Y-34829163D01*
X29813568Y-34802552D01*
X29832103Y-34789331D01*
X29840504Y-34778631D01*
X29833515Y-34765475D01*
X29076812Y-34008772D01*
X29062868Y-34001158D01*
X29061035Y-34001289D01*
X29054420Y-34005540D01*
X28291510Y-34768450D01*
X28284750Y-34780830D01*
X28290031Y-34787884D01*
X28304698Y-34796455D01*
X28353422Y-34848093D01*
X28366493Y-34917876D01*
X28339762Y-34983648D01*
X28316781Y-35006003D01*
X28145579Y-35134545D01*
X28141444Y-35137650D01*
X27984120Y-35302280D01*
X27981206Y-35306552D01*
X27981205Y-35306553D01*
X27909928Y-35411042D01*
X27855797Y-35490395D01*
X27759921Y-35696942D01*
X27699067Y-35916375D01*
X27674869Y-36142800D01*
X27675166Y-36147952D01*
X27675166Y-36147956D01*
X27678543Y-36206527D01*
X27687977Y-36370137D01*
X27689112Y-36375174D01*
X27689113Y-36375180D01*
X27730734Y-36559865D01*
X27738039Y-36592281D01*
X27739983Y-36597067D01*
X27739984Y-36597072D01*
X27796036Y-36735110D01*
X27823711Y-36803265D01*
X27942692Y-36997424D01*
X28091786Y-37169543D01*
X28266989Y-37314999D01*
X28271440Y-37317600D01*
X28271450Y-37317607D01*
X28304266Y-37336783D01*
X28352989Y-37388422D01*
X28366059Y-37458205D01*
X28339326Y-37523977D01*
X28316353Y-37546325D01*
X28141444Y-37677650D01*
X27984120Y-37842280D01*
X27981206Y-37846552D01*
X27981205Y-37846553D01*
X27909928Y-37951042D01*
X27855797Y-38030395D01*
X27759921Y-38236942D01*
X27699067Y-38456375D01*
X27674869Y-38682800D01*
X27675166Y-38687952D01*
X27675166Y-38687956D01*
X27677569Y-38729621D01*
X27687977Y-38910137D01*
X27689112Y-38915174D01*
X27689113Y-38915180D01*
X27702927Y-38976476D01*
X27738039Y-39132281D01*
X27739983Y-39137067D01*
X27739984Y-39137072D01*
X27780676Y-39237283D01*
X27823711Y-39343265D01*
X27942692Y-39537424D01*
X28091786Y-39709543D01*
X28266989Y-39854999D01*
X28271440Y-39857600D01*
X28271450Y-39857607D01*
X28304266Y-39876783D01*
X28352989Y-39928422D01*
X28366059Y-39998205D01*
X28339326Y-40063977D01*
X28316353Y-40086325D01*
X28141444Y-40217650D01*
X27984120Y-40382280D01*
X27981206Y-40386552D01*
X27981205Y-40386553D01*
X27909928Y-40491042D01*
X27855797Y-40570395D01*
X27759921Y-40776942D01*
X27758539Y-40781924D01*
X27758539Y-40781925D01*
X27742235Y-40840717D01*
X27699067Y-40996375D01*
X27674869Y-41222800D01*
X27675166Y-41227952D01*
X27675166Y-41227956D01*
X27679030Y-41294971D01*
X27687977Y-41450137D01*
X27738039Y-41672281D01*
X27739983Y-41677067D01*
X27739984Y-41677072D01*
X27813210Y-41857405D01*
X27823711Y-41883265D01*
X27942692Y-42077424D01*
X28091786Y-42249543D01*
X28266989Y-42394999D01*
X28271440Y-42397600D01*
X28271450Y-42397607D01*
X28304266Y-42416783D01*
X28352989Y-42468422D01*
X28366059Y-42538205D01*
X28339326Y-42603977D01*
X28316353Y-42626325D01*
X28141444Y-42757650D01*
X27984120Y-42922280D01*
X27981206Y-42926552D01*
X27981205Y-42926553D01*
X27951986Y-42969387D01*
X27855797Y-43110395D01*
X27759921Y-43316942D01*
X27758539Y-43321924D01*
X27758539Y-43321925D01*
X27751045Y-43348947D01*
X27699067Y-43536375D01*
X27674869Y-43762800D01*
X27675166Y-43767952D01*
X27675166Y-43767956D01*
X27678656Y-43828474D01*
X27687977Y-43990137D01*
X27689112Y-43995174D01*
X27689113Y-43995180D01*
X27693714Y-44015595D01*
X27738039Y-44212281D01*
X27739983Y-44217067D01*
X27739984Y-44217072D01*
X27821767Y-44418478D01*
X27823711Y-44423265D01*
X27942692Y-44617424D01*
X28091786Y-44789543D01*
X28266989Y-44934999D01*
X28271440Y-44937600D01*
X28271450Y-44937607D01*
X28304266Y-44956783D01*
X28352989Y-45008422D01*
X28366059Y-45078205D01*
X28339326Y-45143977D01*
X28316353Y-45166325D01*
X28141444Y-45297650D01*
X28137872Y-45301388D01*
X28054976Y-45388134D01*
X27984120Y-45462280D01*
X27981206Y-45466552D01*
X27981205Y-45466553D01*
X27937607Y-45530465D01*
X27855797Y-45650395D01*
X27759921Y-45856942D01*
X27758539Y-45861924D01*
X27758539Y-45861925D01*
X27751045Y-45888947D01*
X27699067Y-46076375D01*
X27674869Y-46302800D01*
X27675166Y-46307952D01*
X27675166Y-46307956D01*
X27679983Y-46391490D01*
X27687977Y-46530137D01*
X27737717Y-46750851D01*
X27733181Y-46821701D01*
X27691059Y-46878852D01*
X27624726Y-46904158D01*
X27614800Y-46904550D01*
X25935525Y-46904550D01*
X25916456Y-46898951D01*
X25915820Y-46902968D01*
X25903836Y-46901070D01*
X25896007Y-46899830D01*
X25864324Y-46902825D01*
X25851989Y-46903991D01*
X25840131Y-46904550D01*
X25836094Y-46904550D01*
X25808407Y-46908048D01*
X25804471Y-46908483D01*
X25744548Y-46914147D01*
X25744546Y-46914147D01*
X25736658Y-46914893D01*
X25729438Y-46917492D01*
X25728859Y-46917593D01*
X25725323Y-46918442D01*
X25724763Y-46918614D01*
X25717153Y-46919576D01*
X25659548Y-46942384D01*
X25653832Y-46944647D01*
X25650138Y-46946042D01*
X25586061Y-46969111D01*
X25579711Y-46973426D01*
X25579171Y-46973670D01*
X25575968Y-46975365D01*
X25575461Y-46975676D01*
X25568333Y-46978498D01*
X25561927Y-46983152D01*
X25561922Y-46983155D01*
X25513223Y-47018537D01*
X25509993Y-47020807D01*
X25453679Y-47059078D01*
X25448604Y-47064835D01*
X25448139Y-47065207D01*
X25445458Y-47067648D01*
X25445052Y-47068067D01*
X25438843Y-47072578D01*
X25433790Y-47078686D01*
X25433789Y-47078687D01*
X25395438Y-47125045D01*
X25392870Y-47128051D01*
X25347830Y-47179140D01*
X25344348Y-47185975D01*
X25344002Y-47186436D01*
X25341999Y-47189485D01*
X25341709Y-47189994D01*
X25336817Y-47195906D01*
X25333441Y-47203081D01*
X25333440Y-47203082D01*
X25307822Y-47257524D01*
X25306100Y-47261040D01*
X25275165Y-47321754D01*
X25273490Y-47329245D01*
X25273262Y-47329797D01*
X25272092Y-47333214D01*
X25271935Y-47333786D01*
X25268667Y-47340732D01*
X25262467Y-47373233D01*
X25255907Y-47407621D01*
X25255109Y-47411476D01*
X25252390Y-47423643D01*
X25248966Y-47438960D01*
X25214586Y-47501078D01*
X25152081Y-47534747D01*
X25081295Y-47529279D01*
X25024703Y-47486409D01*
X25000272Y-47419748D01*
X25000000Y-47411476D01*
X25000000Y-33607969D01*
X27675668Y-33607969D01*
X27688176Y-33824900D01*
X27689612Y-33835120D01*
X27737382Y-34047089D01*
X27740461Y-34056917D01*
X27822215Y-34258252D01*
X27826858Y-34267443D01*
X27911334Y-34405296D01*
X27921790Y-34414756D01*
X27930568Y-34410972D01*
X28691978Y-33649562D01*
X28698356Y-33637882D01*
X29428408Y-33637882D01*
X29428539Y-33639715D01*
X29432790Y-33646330D01*
X30193320Y-34406860D01*
X30205330Y-34413419D01*
X30217069Y-34404451D01*
X30251625Y-34356361D01*
X30256936Y-34347522D01*
X30353206Y-34152733D01*
X30357005Y-34143137D01*
X30420170Y-33935241D01*
X30422349Y-33925160D01*
X30450949Y-33707925D01*
X30451468Y-33701252D01*
X30452962Y-33640115D01*
X30452768Y-33633396D01*
X30434816Y-33415044D01*
X30433131Y-33404864D01*
X30380196Y-33194121D01*
X30376876Y-33184370D01*
X30290229Y-32985093D01*
X30285362Y-32976018D01*
X30216083Y-32868928D01*
X30205398Y-32859725D01*
X30195831Y-32864129D01*
X29436022Y-33623938D01*
X29428408Y-33637882D01*
X28698356Y-33637882D01*
X28699592Y-33635618D01*
X28699461Y-33633785D01*
X28695210Y-33627170D01*
X27934922Y-32866882D01*
X27923386Y-32860582D01*
X27911104Y-32870205D01*
X27859143Y-32946377D01*
X27854058Y-32955328D01*
X27762571Y-33152421D01*
X27759008Y-33162108D01*
X27700942Y-33371486D01*
X27699011Y-33381606D01*
X27675920Y-33597680D01*
X27675668Y-33607969D01*
X25000000Y-33607969D01*
X25000000Y-32240830D01*
X28284750Y-32240830D01*
X28290031Y-32247884D01*
X28305168Y-32256730D01*
X28353891Y-32308369D01*
X28366961Y-32378152D01*
X28340229Y-32443924D01*
X28317248Y-32466278D01*
X28294889Y-32483065D01*
X28286436Y-32494390D01*
X28293180Y-32506720D01*
X29051188Y-33264728D01*
X29065132Y-33272342D01*
X29066965Y-33272211D01*
X29073580Y-33267960D01*
X29836115Y-32505425D01*
X29843136Y-32492569D01*
X29835607Y-32482236D01*
X29828165Y-32477292D01*
X29825397Y-32475764D01*
X29824494Y-32474853D01*
X29823853Y-32474427D01*
X29823941Y-32474295D01*
X29775424Y-32425334D01*
X29760648Y-32355892D01*
X29785761Y-32289485D01*
X29813117Y-32262873D01*
X29832104Y-32249330D01*
X29840504Y-32238631D01*
X29833515Y-32225475D01*
X29076812Y-31468772D01*
X29062868Y-31461158D01*
X29061035Y-31461289D01*
X29054420Y-31465540D01*
X28291510Y-32228450D01*
X28284750Y-32240830D01*
X25000000Y-32240830D01*
X25000000Y-31067969D01*
X27675668Y-31067969D01*
X27688176Y-31284900D01*
X27689612Y-31295120D01*
X27737382Y-31507089D01*
X27740461Y-31516917D01*
X27822215Y-31718252D01*
X27826858Y-31727443D01*
X27911334Y-31865296D01*
X27921790Y-31874756D01*
X27930568Y-31870972D01*
X28691978Y-31109562D01*
X28698356Y-31097882D01*
X29428408Y-31097882D01*
X29428539Y-31099715D01*
X29432790Y-31106330D01*
X30193320Y-31866860D01*
X30205330Y-31873419D01*
X30217069Y-31864451D01*
X30251625Y-31816361D01*
X30256936Y-31807522D01*
X30353206Y-31612733D01*
X30357005Y-31603137D01*
X30420170Y-31395241D01*
X30422349Y-31385160D01*
X30450949Y-31167925D01*
X30451468Y-31161252D01*
X30452962Y-31100115D01*
X30452768Y-31093396D01*
X30434816Y-30875044D01*
X30433131Y-30864864D01*
X30380196Y-30654121D01*
X30376876Y-30644370D01*
X30290229Y-30445093D01*
X30285362Y-30436018D01*
X30216083Y-30328928D01*
X30205398Y-30319725D01*
X30195831Y-30324129D01*
X29436022Y-31083938D01*
X29428408Y-31097882D01*
X28698356Y-31097882D01*
X28699592Y-31095618D01*
X28699461Y-31093785D01*
X28695210Y-31087170D01*
X27934922Y-30326882D01*
X27923386Y-30320582D01*
X27911104Y-30330205D01*
X27859143Y-30406377D01*
X27854058Y-30415328D01*
X27762571Y-30612421D01*
X27759008Y-30622108D01*
X27700942Y-30831486D01*
X27699011Y-30841606D01*
X27675920Y-31057680D01*
X27675668Y-31067969D01*
X25000000Y-31067969D01*
X25000000Y-28522800D01*
X27674869Y-28522800D01*
X27675166Y-28527952D01*
X27675166Y-28527956D01*
X27677216Y-28563500D01*
X27687977Y-28750137D01*
X27689112Y-28755174D01*
X27689113Y-28755180D01*
X27728234Y-28928772D01*
X27738039Y-28972281D01*
X27739983Y-28977067D01*
X27739984Y-28977072D01*
X27821675Y-29178252D01*
X27823711Y-29183265D01*
X27942692Y-29377424D01*
X28091786Y-29549543D01*
X28266989Y-29694999D01*
X28271441Y-29697601D01*
X28271446Y-29697604D01*
X28304733Y-29717055D01*
X28353456Y-29768694D01*
X28366527Y-29838477D01*
X28339795Y-29904249D01*
X28316813Y-29926604D01*
X28294890Y-29943064D01*
X28286436Y-29954390D01*
X28293180Y-29966720D01*
X29051188Y-30724728D01*
X29065132Y-30732342D01*
X29066965Y-30732211D01*
X29073580Y-30727960D01*
X29836115Y-29965425D01*
X29843136Y-29952569D01*
X29835607Y-29942236D01*
X29828161Y-29937289D01*
X29825880Y-29936030D01*
X29825137Y-29935280D01*
X29823853Y-29934427D01*
X29824029Y-29934162D01*
X29775908Y-29885599D01*
X29761134Y-29816156D01*
X29786249Y-29749750D01*
X29813602Y-29723141D01*
X29814428Y-29722552D01*
X29960893Y-29618080D01*
X30122193Y-29457342D01*
X30127373Y-29450134D01*
X30252055Y-29276619D01*
X30255073Y-29272419D01*
X30257494Y-29267522D01*
X30353673Y-29072918D01*
X30353674Y-29072916D01*
X30355967Y-29068276D01*
X30422164Y-28850396D01*
X30434700Y-28755180D01*
X30451450Y-28627951D01*
X30451451Y-28627944D01*
X30451887Y-28624629D01*
X30453546Y-28556750D01*
X30451180Y-28527969D01*
X42915668Y-28527969D01*
X42928176Y-28744900D01*
X42929612Y-28755120D01*
X42977382Y-28967089D01*
X42980461Y-28976917D01*
X43062215Y-29178252D01*
X43066858Y-29187443D01*
X43151334Y-29325296D01*
X43161790Y-29334756D01*
X43170568Y-29330972D01*
X43931978Y-28569562D01*
X43938356Y-28557882D01*
X44668408Y-28557882D01*
X44668539Y-28559715D01*
X44672790Y-28566330D01*
X45433320Y-29326860D01*
X45445330Y-29333419D01*
X45457069Y-29324451D01*
X45491625Y-29276361D01*
X45496936Y-29267522D01*
X45593206Y-29072733D01*
X45597005Y-29063137D01*
X45660170Y-28855241D01*
X45662349Y-28845160D01*
X45690949Y-28627925D01*
X45691468Y-28621252D01*
X45692962Y-28560115D01*
X45692768Y-28553396D01*
X45674816Y-28335044D01*
X45673131Y-28324864D01*
X45620196Y-28114121D01*
X45616876Y-28104370D01*
X45530229Y-27905093D01*
X45525362Y-27896018D01*
X45456083Y-27788928D01*
X45445398Y-27779725D01*
X45435831Y-27784129D01*
X44676022Y-28543938D01*
X44668408Y-28557882D01*
X43938356Y-28557882D01*
X43939592Y-28555618D01*
X43939461Y-28553785D01*
X43935210Y-28547170D01*
X43174922Y-27786882D01*
X43163386Y-27780582D01*
X43151104Y-27790205D01*
X43099143Y-27866377D01*
X43094058Y-27875328D01*
X43002571Y-28072421D01*
X42999008Y-28082108D01*
X42940942Y-28291486D01*
X42939011Y-28301606D01*
X42915920Y-28517680D01*
X42915668Y-28527969D01*
X30451180Y-28527969D01*
X30446179Y-28467143D01*
X30435311Y-28334952D01*
X30435310Y-28334946D01*
X30434887Y-28329801D01*
X30400327Y-28192211D01*
X30380672Y-28113958D01*
X30380671Y-28113954D01*
X30379413Y-28108947D01*
X30367743Y-28082108D01*
X30290672Y-27904856D01*
X30290670Y-27904853D01*
X30288612Y-27900119D01*
X30164923Y-27708925D01*
X30047846Y-27580259D01*
X30016795Y-27516413D01*
X30025190Y-27445914D01*
X30070366Y-27391146D01*
X30096809Y-27377478D01*
X30166412Y-27351385D01*
X30178595Y-27346818D01*
X30178596Y-27346817D01*
X30187005Y-27343665D01*
X30303561Y-27256311D01*
X30390915Y-27139755D01*
X30442045Y-27003366D01*
X30448800Y-26941184D01*
X30448800Y-25982800D01*
X42914869Y-25982800D01*
X42915166Y-25987952D01*
X42915166Y-25987956D01*
X42917242Y-26023961D01*
X42927977Y-26210137D01*
X42978039Y-26432281D01*
X42979983Y-26437067D01*
X42979984Y-26437072D01*
X43061767Y-26638478D01*
X43063711Y-26643265D01*
X43182692Y-26837424D01*
X43331786Y-27009543D01*
X43506989Y-27154999D01*
X43511441Y-27157601D01*
X43511446Y-27157604D01*
X43544733Y-27177055D01*
X43593456Y-27228694D01*
X43606527Y-27298477D01*
X43579795Y-27364249D01*
X43556813Y-27386604D01*
X43534890Y-27403064D01*
X43526436Y-27414390D01*
X43533180Y-27426720D01*
X44291188Y-28184728D01*
X44305132Y-28192342D01*
X44306965Y-28192211D01*
X44313580Y-28187960D01*
X45076115Y-27425425D01*
X45083136Y-27412569D01*
X45075607Y-27402236D01*
X45068161Y-27397289D01*
X45065880Y-27396030D01*
X45065137Y-27395280D01*
X45063853Y-27394427D01*
X45064029Y-27394162D01*
X45015908Y-27345599D01*
X45001134Y-27276156D01*
X45026249Y-27209750D01*
X45053602Y-27183141D01*
X45200893Y-27078080D01*
X45362193Y-26917342D01*
X45495073Y-26732419D01*
X45595967Y-26528276D01*
X45662164Y-26310396D01*
X45674700Y-26215180D01*
X45691450Y-26087951D01*
X45691451Y-26087944D01*
X45691887Y-26084629D01*
X45693546Y-26016750D01*
X45686115Y-25926366D01*
X45675311Y-25794952D01*
X45675310Y-25794946D01*
X45674887Y-25789801D01*
X45619413Y-25568947D01*
X45617354Y-25564211D01*
X45530672Y-25364856D01*
X45530670Y-25364853D01*
X45528612Y-25360119D01*
X45404923Y-25168925D01*
X45251668Y-25000500D01*
X45072963Y-24859368D01*
X44873607Y-24749317D01*
X44757598Y-24708236D01*
X44663829Y-24675030D01*
X44663825Y-24675029D01*
X44658954Y-24673304D01*
X44653861Y-24672397D01*
X44653858Y-24672396D01*
X44439857Y-24634277D01*
X44439851Y-24634276D01*
X44434768Y-24633371D01*
X44347698Y-24632307D01*
X44212239Y-24630652D01*
X44212237Y-24630652D01*
X44207070Y-24630589D01*
X43981976Y-24665033D01*
X43765529Y-24735779D01*
X43563544Y-24840926D01*
X43559411Y-24844029D01*
X43559408Y-24844031D01*
X43385579Y-24974545D01*
X43381444Y-24977650D01*
X43224120Y-25142280D01*
X43221206Y-25146552D01*
X43221205Y-25146553D01*
X43160234Y-25235933D01*
X43095797Y-25330395D01*
X42999921Y-25536942D01*
X42939067Y-25756375D01*
X42914869Y-25982800D01*
X30448800Y-25982800D01*
X30448800Y-25092316D01*
X30442045Y-25030134D01*
X30390915Y-24893745D01*
X30303561Y-24777189D01*
X30187005Y-24689835D01*
X30050616Y-24638705D01*
X29988434Y-24631950D01*
X28139566Y-24631950D01*
X28077384Y-24638705D01*
X27940995Y-24689835D01*
X27824439Y-24777189D01*
X27737085Y-24893745D01*
X27685955Y-25030134D01*
X27679200Y-25092316D01*
X27679200Y-26941184D01*
X27685955Y-27003366D01*
X27737085Y-27139755D01*
X27824439Y-27256311D01*
X27940995Y-27343665D01*
X27949403Y-27346817D01*
X28032226Y-27377866D01*
X28088990Y-27420508D01*
X28113690Y-27487069D01*
X28098483Y-27556418D01*
X28079090Y-27582899D01*
X28039616Y-27624206D01*
X27984120Y-27682280D01*
X27981206Y-27686552D01*
X27981205Y-27686553D01*
X27937605Y-27750469D01*
X27855797Y-27870395D01*
X27759921Y-28076942D01*
X27758539Y-28081924D01*
X27758539Y-28081925D01*
X27751045Y-28108947D01*
X27699067Y-28296375D01*
X27674869Y-28522800D01*
X25000000Y-28522800D01*
X25000000Y-19584000D01*
X25020002Y-19515879D01*
X25073658Y-19469386D01*
X25126000Y-19458000D01*
X57694925Y-19458000D01*
X57763046Y-19478002D01*
G37*
%TD.AperFunction*%
%TD*%
M02*
