%TF.GenerationSoftware,KiCad,Pcbnew,(6.0.9)*%
%TF.CreationDate,2022-11-30T18:47:25+00:00*%
%TF.ProjectId,PocketPad,506f636b-6574-4506-9164-2e6b69636164,rev?*%
%TF.SameCoordinates,Original*%
%TF.FileFunction,Soldermask,Bot*%
%TF.FilePolarity,Negative*%
%FSLAX46Y46*%
G04 Gerber Fmt 4.6, Leading zero omitted, Abs format (unit mm)*
G04 Created by KiCad (PCBNEW (6.0.9)) date 2022-11-30 18:47:25*
%MOMM*%
%LPD*%
G01*
G04 APERTURE LIST*
%ADD10O,1.600000X1.600000*%
%ADD11R,1.600000X1.600000*%
%ADD12C,1.752600*%
%ADD13R,1.752600X1.752600*%
%ADD14C,2.200000*%
G04 APERTURE END LIST*
D10*
%TO.C,D2*%
X80880000Y-20982000D03*
D11*
X80880000Y-28602000D03*
%TD*%
D10*
%TO.C,D0*%
X58020000Y-20982000D03*
D11*
X58020000Y-28602000D03*
%TD*%
D10*
%TO.C,D16*%
X36684000Y-57304000D03*
D11*
X36684000Y-64924000D03*
%TD*%
D10*
%TO.C,D13*%
X61068000Y-24792000D03*
D11*
X61068000Y-32412000D03*
%TD*%
D10*
%TO.C,D8*%
X52432000Y-23522000D03*
D11*
X52432000Y-31142000D03*
%TD*%
D10*
%TO.C,D10*%
X75292000Y-23522000D03*
D11*
X75292000Y-31142000D03*
%TD*%
D12*
%TO.C,MCU1*%
X41764000Y-53956750D03*
X39224000Y-53956750D03*
X36684000Y-53956750D03*
X34144000Y-53956750D03*
X31604000Y-53956750D03*
X44304000Y-26016750D03*
X44304000Y-28556750D03*
X44304000Y-31096750D03*
X44304000Y-33636750D03*
X44304000Y-36176750D03*
X44304000Y-38716750D03*
X44304000Y-41256750D03*
X44304000Y-43796750D03*
X44304000Y-46336750D03*
X44304000Y-48876750D03*
X44304000Y-51416750D03*
X44304000Y-53956750D03*
X29292600Y-53956750D03*
X29064000Y-51416750D03*
X29064000Y-48876750D03*
X29064000Y-46336750D03*
X29064000Y-43796750D03*
X29064000Y-41256750D03*
X29064000Y-38716750D03*
X29064000Y-36176750D03*
X29064000Y-33636750D03*
X29064000Y-31096750D03*
X29064000Y-28556750D03*
D13*
X29064000Y-26016750D03*
%TD*%
D10*
%TO.C,D18*%
X45828000Y-57304000D03*
D11*
X45828000Y-64924000D03*
%TD*%
D10*
%TO.C,D3*%
X92310000Y-20982000D03*
D11*
X92310000Y-28602000D03*
%TD*%
D10*
%TO.C,D7*%
X89516000Y-22252000D03*
D11*
X89516000Y-29872000D03*
%TD*%
D10*
%TO.C,D12*%
X49638000Y-24792000D03*
D11*
X49638000Y-32412000D03*
%TD*%
D10*
%TO.C,D17*%
X41510000Y-57304000D03*
D11*
X41510000Y-64924000D03*
%TD*%
D10*
%TO.C,D5*%
X66656000Y-22252000D03*
D11*
X66656000Y-29872000D03*
%TD*%
D14*
%TO.C,REF\u002A\u002A*%
X23730000Y-79910000D03*
%TD*%
%TO.C,REF\u002A\u002A*%
X95358000Y-18188000D03*
%TD*%
D10*
%TO.C,D4*%
X55226000Y-22252000D03*
D11*
X55226000Y-29872000D03*
%TD*%
D10*
%TO.C,D6*%
X78086000Y-22252000D03*
D11*
X78086000Y-29872000D03*
%TD*%
D14*
%TO.C,REF\u002A\u002A*%
X23730000Y-18188000D03*
%TD*%
D10*
%TO.C,D15*%
X83928000Y-24792000D03*
D11*
X83928000Y-32412000D03*
%TD*%
D10*
%TO.C,D11*%
X86722000Y-23522000D03*
D11*
X86722000Y-31142000D03*
%TD*%
D14*
%TO.C,REF\u002A\u002A*%
X95358000Y-79910000D03*
%TD*%
D10*
%TO.C,D9*%
X63862000Y-23522000D03*
D11*
X63862000Y-31142000D03*
%TD*%
D10*
%TO.C,D14*%
X72498000Y-24792000D03*
D11*
X72498000Y-32412000D03*
%TD*%
D10*
%TO.C,D1*%
X69450000Y-20982000D03*
D11*
X69450000Y-28602000D03*
%TD*%
M02*
