%TF.GenerationSoftware,KiCad,Pcbnew,(6.0.9)*%
%TF.CreationDate,2022-11-30T18:47:25+00:00*%
%TF.ProjectId,PocketPad,506f636b-6574-4506-9164-2e6b69636164,rev?*%
%TF.SameCoordinates,Original*%
%TF.FileFunction,Copper,L2,Bot*%
%TF.FilePolarity,Positive*%
%FSLAX46Y46*%
G04 Gerber Fmt 4.6, Leading zero omitted, Abs format (unit mm)*
G04 Created by KiCad (PCBNEW (6.0.9)) date 2022-11-30 18:47:25*
%MOMM*%
%LPD*%
G01*
G04 APERTURE LIST*
%TA.AperFunction,ComponentPad*%
%ADD10O,1.600000X1.600000*%
%TD*%
%TA.AperFunction,ComponentPad*%
%ADD11R,1.600000X1.600000*%
%TD*%
%TA.AperFunction,ComponentPad*%
%ADD12C,1.752600*%
%TD*%
%TA.AperFunction,ComponentPad*%
%ADD13R,1.752600X1.752600*%
%TD*%
%TA.AperFunction,ViaPad*%
%ADD14C,0.800000*%
%TD*%
%TA.AperFunction,Conductor*%
%ADD15C,0.250000*%
%TD*%
G04 APERTURE END LIST*
D10*
%TO.P,D2,2,K*%
%TO.N,ROW0*%
X80880000Y-20982000D03*
D11*
%TO.P,D2,1,A*%
%TO.N,Net-(D2-Pad1)*%
X80880000Y-28602000D03*
%TD*%
D10*
%TO.P,D0,2,K*%
%TO.N,ROW0*%
X58020000Y-20982000D03*
D11*
%TO.P,D0,1,A*%
%TO.N,Net-(D0-Pad1)*%
X58020000Y-28602000D03*
%TD*%
D10*
%TO.P,D16,2,K*%
%TO.N,ROW4*%
X36684000Y-57304000D03*
D11*
%TO.P,D16,1,A*%
%TO.N,Net-(D16-Pad1)*%
X36684000Y-64924000D03*
%TD*%
D10*
%TO.P,D13,2,K*%
%TO.N,ROW3*%
X61068000Y-24792000D03*
D11*
%TO.P,D13,1,A*%
%TO.N,Net-(D13-Pad1)*%
X61068000Y-32412000D03*
%TD*%
D10*
%TO.P,D8,2,K*%
%TO.N,ROW2*%
X52432000Y-23522000D03*
D11*
%TO.P,D8,1,A*%
%TO.N,Net-(D8-Pad1)*%
X52432000Y-31142000D03*
%TD*%
D10*
%TO.P,D10,2,K*%
%TO.N,ROW2*%
X75292000Y-23522000D03*
D11*
%TO.P,D10,1,A*%
%TO.N,Net-(D10-Pad1)*%
X75292000Y-31142000D03*
%TD*%
D12*
%TO.P,MCU1,29,F0*%
%TO.N,unconnected-(MCU1-Pad29)*%
X41764000Y-53956750D03*
%TO.P,MCU1,28,F1*%
%TO.N,COL3*%
X39224000Y-53956750D03*
%TO.P,MCU1,27,C7*%
%TO.N,COL2*%
X36684000Y-53956750D03*
%TO.P,MCU1,26,D5*%
%TO.N,COL1*%
X34144000Y-53956750D03*
%TO.P,MCU1,25,B7*%
%TO.N,COL0*%
X31604000Y-53956750D03*
%TO.P,MCU1,24,B0*%
%TO.N,unconnected-(MCU1-Pad24)*%
X44304000Y-26016750D03*
%TO.P,MCU1,23,GND*%
%TO.N,GND*%
X44304000Y-28556750D03*
%TO.P,MCU1,22,RST*%
%TO.N,unconnected-(MCU1-Pad22)*%
X44304000Y-31096750D03*
%TO.P,MCU1,21,VCC*%
%TO.N,unconnected-(MCU1-Pad21)*%
X44304000Y-33636750D03*
%TO.P,MCU1,20,A3/PF4*%
%TO.N,ROW3*%
X44304000Y-36176750D03*
%TO.P,MCU1,19,A2/PF5*%
%TO.N,ROW2*%
X44304000Y-38716750D03*
%TO.P,MCU1,18,A1/PF6*%
%TO.N,ROW1*%
X44304000Y-41256750D03*
%TO.P,MCU1,17,A0/PF7*%
%TO.N,ROW0*%
X44304000Y-43796750D03*
%TO.P,MCU1,16,15/PB1*%
%TO.N,ROW4*%
X44304000Y-46336750D03*
%TO.P,MCU1,15,14/PB3*%
%TO.N,unconnected-(MCU1-Pad15)*%
X44304000Y-48876750D03*
%TO.P,MCU1,14,16/PB2*%
%TO.N,unconnected-(MCU1-Pad14)*%
X44304000Y-51416750D03*
%TO.P,MCU1,13,10/PB6*%
%TO.N,unconnected-(MCU1-Pad13)*%
X44304000Y-53956750D03*
%TO.P,MCU1,12,9/PB5*%
%TO.N,unconnected-(MCU1-Pad12)*%
X29292600Y-53956750D03*
%TO.P,MCU1,11,8/PB4*%
%TO.N,unconnected-(MCU1-Pad11)*%
X29064000Y-51416750D03*
%TO.P,MCU1,10,7/PE6*%
%TO.N,unconnected-(MCU1-Pad10)*%
X29064000Y-48876750D03*
%TO.P,MCU1,9,6/PD7*%
%TO.N,unconnected-(MCU1-Pad9)*%
X29064000Y-46336750D03*
%TO.P,MCU1,8,5/PC6*%
%TO.N,unconnected-(MCU1-Pad8)*%
X29064000Y-43796750D03*
%TO.P,MCU1,7,4/PD4*%
%TO.N,unconnected-(MCU1-Pad7)*%
X29064000Y-41256750D03*
%TO.P,MCU1,6,3/PD0*%
%TO.N,unconnected-(MCU1-Pad6)*%
X29064000Y-38716750D03*
%TO.P,MCU1,5,2/PD1*%
%TO.N,unconnected-(MCU1-Pad5)*%
X29064000Y-36176750D03*
%TO.P,MCU1,4,GND*%
%TO.N,GND*%
X29064000Y-33636750D03*
%TO.P,MCU1,3,GND*%
X29064000Y-31096750D03*
%TO.P,MCU1,2,RX1/PD2*%
%TO.N,unconnected-(MCU1-Pad2)*%
X29064000Y-28556750D03*
D13*
%TO.P,MCU1,1,TX0/PD3*%
%TO.N,unconnected-(MCU1-Pad1)*%
X29064000Y-26016750D03*
%TD*%
D10*
%TO.P,D18,2,K*%
%TO.N,ROW4*%
X45828000Y-57304000D03*
D11*
%TO.P,D18,1,A*%
%TO.N,Net-(D18-Pad1)*%
X45828000Y-64924000D03*
%TD*%
D10*
%TO.P,D3,2,K*%
%TO.N,ROW0*%
X92310000Y-20982000D03*
D11*
%TO.P,D3,1,A*%
%TO.N,Net-(D3-Pad1)*%
X92310000Y-28602000D03*
%TD*%
D10*
%TO.P,D7,2,K*%
%TO.N,ROW1*%
X89516000Y-22252000D03*
D11*
%TO.P,D7,1,A*%
%TO.N,Net-(D7-Pad1)*%
X89516000Y-29872000D03*
%TD*%
D10*
%TO.P,D12,2,K*%
%TO.N,ROW3*%
X49638000Y-24792000D03*
D11*
%TO.P,D12,1,A*%
%TO.N,Net-(D12-Pad1)*%
X49638000Y-32412000D03*
%TD*%
D10*
%TO.P,D17,2,K*%
%TO.N,ROW4*%
X41510000Y-57304000D03*
D11*
%TO.P,D17,1,A*%
%TO.N,Net-(D17-Pad1)*%
X41510000Y-64924000D03*
%TD*%
D10*
%TO.P,D5,2,K*%
%TO.N,ROW1*%
X66656000Y-22252000D03*
D11*
%TO.P,D5,1,A*%
%TO.N,Net-(D5-Pad1)*%
X66656000Y-29872000D03*
%TD*%
D10*
%TO.P,D4,2,K*%
%TO.N,ROW1*%
X55226000Y-22252000D03*
D11*
%TO.P,D4,1,A*%
%TO.N,Net-(D4-Pad1)*%
X55226000Y-29872000D03*
%TD*%
D10*
%TO.P,D6,2,K*%
%TO.N,ROW1*%
X78086000Y-22252000D03*
D11*
%TO.P,D6,1,A*%
%TO.N,Net-(D6-Pad1)*%
X78086000Y-29872000D03*
%TD*%
D10*
%TO.P,D15,2,K*%
%TO.N,ROW3*%
X83928000Y-24792000D03*
D11*
%TO.P,D15,1,A*%
%TO.N,Net-(D15-Pad1)*%
X83928000Y-32412000D03*
%TD*%
D10*
%TO.P,D11,2,K*%
%TO.N,ROW2*%
X86722000Y-23522000D03*
D11*
%TO.P,D11,1,A*%
%TO.N,Net-(D11-Pad1)*%
X86722000Y-31142000D03*
%TD*%
D10*
%TO.P,D9,2,K*%
%TO.N,ROW2*%
X63862000Y-23522000D03*
D11*
%TO.P,D9,1,A*%
%TO.N,Net-(D9-Pad1)*%
X63862000Y-31142000D03*
%TD*%
D10*
%TO.P,D14,2,K*%
%TO.N,ROW3*%
X72498000Y-24792000D03*
D11*
%TO.P,D14,1,A*%
%TO.N,Net-(D14-Pad1)*%
X72498000Y-32412000D03*
%TD*%
D10*
%TO.P,D1,2,K*%
%TO.N,ROW0*%
X69450000Y-20982000D03*
D11*
%TO.P,D1,1,A*%
%TO.N,Net-(D1-Pad1)*%
X69450000Y-28602000D03*
%TD*%
D14*
%TO.N,Net-(D17-Pad1)*%
X48368000Y-70258000D03*
%TO.N,Net-(D18-Pad1)*%
X63608000Y-70512000D03*
%TD*%
D15*
%TO.N,Net-(D17-Pad1)*%
X46844000Y-70258000D02*
X48368000Y-70258000D01*
X41510000Y-64924000D02*
X46844000Y-70258000D01*
%TO.N,ROW0*%
X58020000Y-22252000D02*
X58020000Y-21236000D01*
X49120396Y-27470000D02*
X50772792Y-27470000D01*
X54212792Y-24030000D02*
X56242000Y-24030000D01*
X44304000Y-43796750D02*
X47802000Y-40298750D01*
X50772792Y-27470000D02*
X54212792Y-24030000D01*
X47802000Y-28788396D02*
X49120396Y-27470000D01*
X47802000Y-40298750D02*
X47802000Y-28788396D01*
X56242000Y-24030000D02*
X58020000Y-22252000D01*
%TO.N,ROW1*%
X50586396Y-27020000D02*
X55226000Y-22380396D01*
X48934000Y-27020000D02*
X50586396Y-27020000D01*
X47352000Y-38208750D02*
X47352000Y-28602000D01*
X47352000Y-28602000D02*
X48934000Y-27020000D01*
X55226000Y-22380396D02*
X55226000Y-22252000D01*
X44304000Y-41256750D02*
X47352000Y-38208750D01*
%TO.N,ROW2*%
X46844000Y-28348000D02*
X48622000Y-26570000D01*
X50400000Y-26570000D02*
X52432000Y-24538000D01*
X48622000Y-26570000D02*
X50400000Y-26570000D01*
X52432000Y-24538000D02*
X52432000Y-23522000D01*
X44304000Y-38716750D02*
X46844000Y-36176750D01*
X46844000Y-36176750D02*
X46844000Y-28348000D01*
%TO.N,ROW3*%
X44304000Y-35605000D02*
X46336000Y-33573000D01*
X46336000Y-28094000D02*
X49638000Y-24792000D01*
X46336000Y-33573000D02*
X46336000Y-28094000D01*
X44304000Y-36176750D02*
X44304000Y-35605000D01*
%TO.N,Net-(D18-Pad1)*%
X45828000Y-67210000D02*
X47860000Y-69242000D01*
X47860000Y-69242000D02*
X62338000Y-69242000D01*
X62338000Y-69242000D02*
X63608000Y-70512000D01*
X45828000Y-64924000D02*
X45828000Y-67210000D01*
%TD*%
M02*
