%TF.GenerationSoftware,KiCad,Pcbnew,(6.0.9)*%
%TF.CreationDate,2022-12-01T15:49:56+00:00*%
%TF.ProjectId,PocketPad,506f636b-6574-4506-9164-2e6b69636164,rev?*%
%TF.SameCoordinates,Original*%
%TF.FileFunction,Legend,Bot*%
%TF.FilePolarity,Positive*%
%FSLAX46Y46*%
G04 Gerber Fmt 4.6, Leading zero omitted, Abs format (unit mm)*
G04 Created by KiCad (PCBNEW (6.0.9)) date 2022-12-01 15:49:56*
%MOMM*%
%LPD*%
G01*
G04 APERTURE LIST*
%ADD10C,0.381000*%
%ADD11C,0.150000*%
%ADD12R,1.752600X1.752600*%
%ADD13C,1.752600*%
G04 APERTURE END LIST*
D10*
%TO.C,MCU1*%
X27794000Y-55226750D02*
X45574000Y-55226750D01*
X27794000Y-22206750D02*
X27794000Y-55226750D01*
X30334000Y-24746750D02*
X27794000Y-24746750D01*
X30334000Y-27286750D02*
X27794000Y-27286750D01*
X45574000Y-22206750D02*
X27794000Y-22206750D01*
X30334000Y-24746750D02*
X30334000Y-27286750D01*
X45574000Y-55226750D02*
X45574000Y-22206750D01*
G36*
X42828635Y-31135780D02*
G01*
X42728635Y-31135780D01*
X42728635Y-31035780D01*
X42828635Y-31035780D01*
X42828635Y-31135780D01*
G37*
D11*
X42828635Y-31135780D02*
X42728635Y-31135780D01*
X42728635Y-31035780D01*
X42828635Y-31035780D01*
X42828635Y-31135780D01*
G36*
X42628635Y-31435780D02*
G01*
X42528635Y-31435780D01*
X42528635Y-31235780D01*
X42628635Y-31235780D01*
X42628635Y-31435780D01*
G37*
X42628635Y-31435780D02*
X42528635Y-31435780D01*
X42528635Y-31235780D01*
X42628635Y-31235780D01*
X42628635Y-31435780D01*
G36*
X42628635Y-30935780D02*
G01*
X42528635Y-30935780D01*
X42528635Y-30635780D01*
X42628635Y-30635780D01*
X42628635Y-30935780D01*
G37*
X42628635Y-30935780D02*
X42528635Y-30935780D01*
X42528635Y-30635780D01*
X42628635Y-30635780D01*
X42628635Y-30935780D01*
G36*
X43028635Y-30735780D02*
G01*
X42528635Y-30735780D01*
X42528635Y-30635780D01*
X43028635Y-30635780D01*
X43028635Y-30735780D01*
G37*
X43028635Y-30735780D02*
X42528635Y-30735780D01*
X42528635Y-30635780D01*
X43028635Y-30635780D01*
X43028635Y-30735780D01*
G36*
X43028635Y-31435780D02*
G01*
X42928635Y-31435780D01*
X42928635Y-30635780D01*
X43028635Y-30635780D01*
X43028635Y-31435780D01*
G37*
X43028635Y-31435780D02*
X42928635Y-31435780D01*
X42928635Y-30635780D01*
X43028635Y-30635780D01*
X43028635Y-31435780D01*
%TD*%
D12*
%TO.C,MCU1*%
X29064000Y-26016750D03*
D13*
X29064000Y-28556750D03*
X29064000Y-31096750D03*
X29064000Y-33636750D03*
X29064000Y-36176750D03*
X29064000Y-38716750D03*
X29064000Y-41256750D03*
X29064000Y-43796750D03*
X29064000Y-46336750D03*
X29064000Y-48876750D03*
X29064000Y-51416750D03*
X29292600Y-53956750D03*
X44304000Y-53956750D03*
X44304000Y-51416750D03*
X44304000Y-48876750D03*
X44304000Y-46336750D03*
X44304000Y-43796750D03*
X44304000Y-41256750D03*
X44304000Y-38716750D03*
X44304000Y-36176750D03*
X44304000Y-33636750D03*
X44304000Y-31096750D03*
X44304000Y-28556750D03*
X44304000Y-26016750D03*
X31604000Y-53956750D03*
X34144000Y-53956750D03*
X36684000Y-53956750D03*
X39224000Y-53956750D03*
X41764000Y-53956750D03*
%TD*%
M02*
