M48
; DRILL file {KiCad (6.0.9)} date Wed Nov 30 18:47:20 2022
; FORMAT={-:-/ absolute / inch / decimal}
; #@! TF.CreationDate,2022-11-30T18:47:20+00:00
; #@! TF.GenerationSoftware,Kicad,Pcbnew,(6.0.9)
; #@! TF.FileFunction,Plated,1,2,PTH
FMAT,2
INCH
; #@! TA.AperFunction,Plated,PTH,ViaDrill
T1C0.0157
; #@! TA.AperFunction,Plated,PTH,ComponentDrill
T2C0.0315
; #@! TA.AperFunction,Plated,PTH,ComponentDrill
T3C0.0430
%
G90
G05
T1
X1.9043Y-2.7661
X2.5043Y-2.7761
T2
X1.4443Y-2.2561
X1.4443Y-2.5561
X1.6343Y-2.2561
X1.6343Y-2.5561
X1.8043Y-2.2561
X1.8043Y-2.5561
X1.9543Y-0.9761
X1.9543Y-1.2761
X2.0643Y-0.9261
X2.0643Y-1.2261
X2.1743Y-0.8761
X2.1743Y-1.1761
X2.2843Y-0.8261
X2.2843Y-1.1261
X2.4043Y-0.9761
X2.4043Y-1.2761
X2.5143Y-0.9261
X2.5143Y-1.2261
X2.6243Y-0.8761
X2.6243Y-1.1761
X2.7343Y-0.8261
X2.7343Y-1.1261
X2.8543Y-0.9761
X2.8543Y-1.2761
X2.9643Y-0.9261
X2.9643Y-1.2261
X3.0743Y-0.8761
X3.0743Y-1.1761
X3.1843Y-0.8261
X3.1843Y-1.1261
X3.3043Y-0.9761
X3.3043Y-1.2761
X3.4143Y-0.9261
X3.4143Y-1.2261
X3.5243Y-0.8761
X3.5243Y-1.1761
X3.6343Y-0.8261
X3.6343Y-1.1261
T3
X1.1443Y-1.0243
X1.1443Y-1.1243
X1.1443Y-1.2243
X1.1443Y-1.3243
X1.1443Y-1.4243
X1.1443Y-1.5243
X1.1443Y-1.6243
X1.1443Y-1.7243
X1.1443Y-1.8243
X1.1443Y-1.9243
X1.1443Y-2.0243
X1.1533Y-2.1243
X1.2443Y-2.1243
X1.3443Y-2.1243
X1.4443Y-2.1243
X1.5443Y-2.1243
X1.6443Y-2.1243
X1.7443Y-1.0243
X1.7443Y-1.1243
X1.7443Y-1.2243
X1.7443Y-1.3243
X1.7443Y-1.4243
X1.7443Y-1.5243
X1.7443Y-1.6243
X1.7443Y-1.7243
X1.7443Y-1.8243
X1.7443Y-1.9243
X1.7443Y-2.0243
X1.7443Y-2.1243
T0
M30
