%TF.GenerationSoftware,KiCad,Pcbnew,(6.0.9)*%
%TF.CreationDate,2022-11-30T18:47:25+00:00*%
%TF.ProjectId,PocketPad,506f636b-6574-4506-9164-2e6b69636164,rev?*%
%TF.SameCoordinates,Original*%
%TF.FileFunction,Legend,Top*%
%TF.FilePolarity,Positive*%
%FSLAX46Y46*%
G04 Gerber Fmt 4.6, Leading zero omitted, Abs format (unit mm)*
G04 Created by KiCad (PCBNEW (6.0.9)) date 2022-11-30 18:47:25*
%MOMM*%
%LPD*%
G01*
G04 APERTURE LIST*
%ADD10C,0.150000*%
%ADD11C,0.120000*%
%ADD12C,0.381000*%
%ADD13C,1.752600*%
%ADD14R,1.752600X1.752600*%
G04 APERTURE END LIST*
D10*
%TO.C,SW11*%
X85166476Y-69908761D02*
X85309333Y-69956380D01*
X85547428Y-69956380D01*
X85642666Y-69908761D01*
X85690285Y-69861142D01*
X85737904Y-69765904D01*
X85737904Y-69670666D01*
X85690285Y-69575428D01*
X85642666Y-69527809D01*
X85547428Y-69480190D01*
X85356952Y-69432571D01*
X85261714Y-69384952D01*
X85214095Y-69337333D01*
X85166476Y-69242095D01*
X85166476Y-69146857D01*
X85214095Y-69051619D01*
X85261714Y-69004000D01*
X85356952Y-68956380D01*
X85595047Y-68956380D01*
X85737904Y-69004000D01*
X86071238Y-68956380D02*
X86309333Y-69956380D01*
X86499809Y-69242095D01*
X86690285Y-69956380D01*
X86928380Y-68956380D01*
X87833142Y-69956380D02*
X87261714Y-69956380D01*
X87547428Y-69956380D02*
X87547428Y-68956380D01*
X87452190Y-69099238D01*
X87356952Y-69194476D01*
X87261714Y-69242095D01*
X88785523Y-69956380D02*
X88214095Y-69956380D01*
X88499809Y-69956380D02*
X88499809Y-68956380D01*
X88404571Y-69099238D01*
X88309333Y-69194476D01*
X88214095Y-69242095D01*
%TO.C,D16*%
X35016380Y-62328285D02*
X34016380Y-62328285D01*
X34016380Y-62090190D01*
X34064000Y-61947333D01*
X34159238Y-61852095D01*
X34254476Y-61804476D01*
X34444952Y-61756857D01*
X34587809Y-61756857D01*
X34778285Y-61804476D01*
X34873523Y-61852095D01*
X34968761Y-61947333D01*
X35016380Y-62090190D01*
X35016380Y-62328285D01*
X35016380Y-60804476D02*
X35016380Y-61375904D01*
X35016380Y-61090190D02*
X34016380Y-61090190D01*
X34159238Y-61185428D01*
X34254476Y-61280666D01*
X34302095Y-61375904D01*
X34016380Y-59947333D02*
X34016380Y-60137809D01*
X34064000Y-60233047D01*
X34111619Y-60280666D01*
X34254476Y-60375904D01*
X34444952Y-60423523D01*
X34825904Y-60423523D01*
X34921142Y-60375904D01*
X34968761Y-60328285D01*
X35016380Y-60233047D01*
X35016380Y-60042571D01*
X34968761Y-59947333D01*
X34921142Y-59899714D01*
X34825904Y-59852095D01*
X34587809Y-59852095D01*
X34492571Y-59899714D01*
X34444952Y-59947333D01*
X34397333Y-60042571D01*
X34397333Y-60233047D01*
X34444952Y-60328285D01*
X34492571Y-60375904D01*
X34587809Y-60423523D01*
X35336380Y-65185904D02*
X34336380Y-65185904D01*
X35336380Y-64614476D02*
X34764952Y-65043047D01*
X34336380Y-64614476D02*
X34907809Y-65185904D01*
%TO.C,SW14*%
X73990476Y-65336761D02*
X74133333Y-65384380D01*
X74371428Y-65384380D01*
X74466666Y-65336761D01*
X74514285Y-65289142D01*
X74561904Y-65193904D01*
X74561904Y-65098666D01*
X74514285Y-65003428D01*
X74466666Y-64955809D01*
X74371428Y-64908190D01*
X74180952Y-64860571D01*
X74085714Y-64812952D01*
X74038095Y-64765333D01*
X73990476Y-64670095D01*
X73990476Y-64574857D01*
X74038095Y-64479619D01*
X74085714Y-64432000D01*
X74180952Y-64384380D01*
X74419047Y-64384380D01*
X74561904Y-64432000D01*
X74895238Y-64384380D02*
X75133333Y-65384380D01*
X75323809Y-64670095D01*
X75514285Y-65384380D01*
X75752380Y-64384380D01*
X76657142Y-65384380D02*
X76085714Y-65384380D01*
X76371428Y-65384380D02*
X76371428Y-64384380D01*
X76276190Y-64527238D01*
X76180952Y-64622476D01*
X76085714Y-64670095D01*
X77514285Y-64717714D02*
X77514285Y-65384380D01*
X77276190Y-64336761D02*
X77038095Y-65051047D01*
X77657142Y-65051047D01*
%TO.C,MCU1*%
X30670619Y-48819607D02*
X30937285Y-48819607D01*
X31051571Y-49238654D02*
X30670619Y-49238654D01*
X30670619Y-48438654D01*
X31051571Y-48438654D01*
X31737285Y-48438654D02*
X31584904Y-48438654D01*
X31508714Y-48476750D01*
X31470619Y-48514845D01*
X31394428Y-48629130D01*
X31356333Y-48781511D01*
X31356333Y-49086273D01*
X31394428Y-49162464D01*
X31432523Y-49200559D01*
X31508714Y-49238654D01*
X31661095Y-49238654D01*
X31737285Y-49200559D01*
X31775380Y-49162464D01*
X31813476Y-49086273D01*
X31813476Y-48895797D01*
X31775380Y-48819607D01*
X31737285Y-48781511D01*
X31661095Y-48743416D01*
X31508714Y-48743416D01*
X31432523Y-48781511D01*
X31394428Y-48819607D01*
X31356333Y-48895797D01*
X30632523Y-39078654D02*
X30632523Y-38278654D01*
X30823000Y-38278654D01*
X30937285Y-38316750D01*
X31013476Y-38392940D01*
X31051571Y-38469130D01*
X31089666Y-38621511D01*
X31089666Y-38735797D01*
X31051571Y-38888178D01*
X31013476Y-38964369D01*
X30937285Y-39040559D01*
X30823000Y-39078654D01*
X30632523Y-39078654D01*
X31584904Y-38278654D02*
X31661095Y-38278654D01*
X31737285Y-38316750D01*
X31775380Y-38354845D01*
X31813476Y-38431035D01*
X31851571Y-38583416D01*
X31851571Y-38773892D01*
X31813476Y-38926273D01*
X31775380Y-39002464D01*
X31737285Y-39040559D01*
X31661095Y-39078654D01*
X31584904Y-39078654D01*
X31508714Y-39040559D01*
X31470619Y-39002464D01*
X31432523Y-38926273D01*
X31394428Y-38773892D01*
X31394428Y-38583416D01*
X31432523Y-38431035D01*
X31470619Y-38354845D01*
X31508714Y-38316750D01*
X31584904Y-38278654D01*
X30921651Y-25578654D02*
X31378794Y-25578654D01*
X31150223Y-26378654D02*
X31150223Y-25578654D01*
X31569270Y-25578654D02*
X32102604Y-26378654D01*
X32102604Y-25578654D02*
X31569270Y-26378654D01*
X32559747Y-25578654D02*
X32635937Y-25578654D01*
X32712128Y-25616750D01*
X32750223Y-25654845D01*
X32788318Y-25731035D01*
X32826413Y-25883416D01*
X32826413Y-26073892D01*
X32788318Y-26226273D01*
X32750223Y-26302464D01*
X32712128Y-26340559D01*
X32635937Y-26378654D01*
X32559747Y-26378654D01*
X32483556Y-26340559D01*
X32445461Y-26302464D01*
X32407366Y-26226273D01*
X32369270Y-26073892D01*
X32369270Y-25883416D01*
X32407366Y-25731035D01*
X32445461Y-25654845D01*
X32483556Y-25616750D01*
X32559747Y-25578654D01*
X33740699Y-25540559D02*
X33054985Y-26569130D01*
X34007366Y-26378654D02*
X34007366Y-25578654D01*
X34197842Y-25578654D01*
X34312128Y-25616750D01*
X34388318Y-25692940D01*
X34426413Y-25769130D01*
X34464508Y-25921511D01*
X34464508Y-26035797D01*
X34426413Y-26188178D01*
X34388318Y-26264369D01*
X34312128Y-26340559D01*
X34197842Y-26378654D01*
X34007366Y-26378654D01*
X34731175Y-25578654D02*
X35226413Y-25578654D01*
X34959747Y-25883416D01*
X35074032Y-25883416D01*
X35150223Y-25921511D01*
X35188318Y-25959607D01*
X35226413Y-26035797D01*
X35226413Y-26226273D01*
X35188318Y-26302464D01*
X35150223Y-26340559D01*
X35074032Y-26378654D01*
X34845461Y-26378654D01*
X34769270Y-26340559D01*
X34731175Y-26302464D01*
X30613476Y-33236750D02*
X30537285Y-33198654D01*
X30423000Y-33198654D01*
X30308714Y-33236750D01*
X30232523Y-33312940D01*
X30194428Y-33389130D01*
X30156333Y-33541511D01*
X30156333Y-33655797D01*
X30194428Y-33808178D01*
X30232523Y-33884369D01*
X30308714Y-33960559D01*
X30423000Y-33998654D01*
X30499190Y-33998654D01*
X30613476Y-33960559D01*
X30651571Y-33922464D01*
X30651571Y-33655797D01*
X30499190Y-33655797D01*
X30994428Y-33998654D02*
X30994428Y-33198654D01*
X31451571Y-33998654D01*
X31451571Y-33198654D01*
X31832523Y-33998654D02*
X31832523Y-33198654D01*
X32023000Y-33198654D01*
X32137285Y-33236750D01*
X32213476Y-33312940D01*
X32251571Y-33389130D01*
X32289666Y-33541511D01*
X32289666Y-33655797D01*
X32251571Y-33808178D01*
X32213476Y-33884369D01*
X32137285Y-33960559D01*
X32023000Y-33998654D01*
X31832523Y-33998654D01*
X30899190Y-51359607D02*
X31013476Y-51397702D01*
X31051571Y-51435797D01*
X31089666Y-51511988D01*
X31089666Y-51626273D01*
X31051571Y-51702464D01*
X31013476Y-51740559D01*
X30937285Y-51778654D01*
X30632523Y-51778654D01*
X30632523Y-50978654D01*
X30899190Y-50978654D01*
X30975380Y-51016750D01*
X31013476Y-51054845D01*
X31051571Y-51131035D01*
X31051571Y-51207226D01*
X31013476Y-51283416D01*
X30975380Y-51321511D01*
X30899190Y-51359607D01*
X30632523Y-51359607D01*
X31775380Y-51245321D02*
X31775380Y-51778654D01*
X31584904Y-50940559D02*
X31394428Y-51511988D01*
X31889666Y-51511988D01*
X30448991Y-52922452D02*
X30401851Y-52828171D01*
X30401851Y-52781030D01*
X30425421Y-52710320D01*
X30496132Y-52639609D01*
X30566842Y-52616039D01*
X30613983Y-52616039D01*
X30684693Y-52639609D01*
X30873255Y-52828171D01*
X30378280Y-53323146D01*
X30213289Y-53158154D01*
X30189719Y-53087443D01*
X30189719Y-53040303D01*
X30213289Y-52969592D01*
X30260429Y-52922452D01*
X30331140Y-52898882D01*
X30378280Y-52898882D01*
X30448991Y-52922452D01*
X30613983Y-53087443D01*
X29647603Y-52592469D02*
X29883306Y-52828171D01*
X30142578Y-52616039D01*
X30095438Y-52616039D01*
X30024727Y-52592469D01*
X29906876Y-52474617D01*
X29883306Y-52403907D01*
X29883306Y-52356766D01*
X29906876Y-52286056D01*
X30024727Y-52168205D01*
X30095438Y-52144634D01*
X30142578Y-52144634D01*
X30213289Y-52168205D01*
X30331140Y-52286056D01*
X30354710Y-52356766D01*
X30354710Y-52403907D01*
X41535476Y-28156750D02*
X41459285Y-28118654D01*
X41345000Y-28118654D01*
X41230714Y-28156750D01*
X41154523Y-28232940D01*
X41116428Y-28309130D01*
X41078333Y-28461511D01*
X41078333Y-28575797D01*
X41116428Y-28728178D01*
X41154523Y-28804369D01*
X41230714Y-28880559D01*
X41345000Y-28918654D01*
X41421190Y-28918654D01*
X41535476Y-28880559D01*
X41573571Y-28842464D01*
X41573571Y-28575797D01*
X41421190Y-28575797D01*
X41916428Y-28918654D02*
X41916428Y-28118654D01*
X42373571Y-28918654D01*
X42373571Y-28118654D01*
X42754523Y-28918654D02*
X42754523Y-28118654D01*
X42945000Y-28118654D01*
X43059285Y-28156750D01*
X43135476Y-28232940D01*
X43173571Y-28309130D01*
X43211666Y-28461511D01*
X43211666Y-28575797D01*
X43173571Y-28728178D01*
X43135476Y-28804369D01*
X43059285Y-28880559D01*
X42945000Y-28918654D01*
X42754523Y-28918654D01*
X41878333Y-43739607D02*
X41611666Y-43739607D01*
X41611666Y-44158654D02*
X41611666Y-43358654D01*
X41992619Y-43358654D01*
X42221190Y-43358654D02*
X42754523Y-43358654D01*
X42411666Y-44158654D01*
X36550666Y-52672464D02*
X36512571Y-52710559D01*
X36398285Y-52748654D01*
X36322095Y-52748654D01*
X36207809Y-52710559D01*
X36131619Y-52634369D01*
X36093523Y-52558178D01*
X36055428Y-52405797D01*
X36055428Y-52291511D01*
X36093523Y-52139130D01*
X36131619Y-52062940D01*
X36207809Y-51986750D01*
X36322095Y-51948654D01*
X36398285Y-51948654D01*
X36512571Y-51986750D01*
X36550666Y-52024845D01*
X36817333Y-51948654D02*
X37350666Y-51948654D01*
X37007809Y-52748654D01*
X41078333Y-33198654D02*
X41345000Y-33998654D01*
X41611666Y-33198654D01*
X42335476Y-33922464D02*
X42297380Y-33960559D01*
X42183095Y-33998654D01*
X42106904Y-33998654D01*
X41992619Y-33960559D01*
X41916428Y-33884369D01*
X41878333Y-33808178D01*
X41840238Y-33655797D01*
X41840238Y-33541511D01*
X41878333Y-33389130D01*
X41916428Y-33312940D01*
X41992619Y-33236750D01*
X42106904Y-33198654D01*
X42183095Y-33198654D01*
X42297380Y-33236750D01*
X42335476Y-33274845D01*
X43135476Y-33922464D02*
X43097380Y-33960559D01*
X42983095Y-33998654D01*
X42906904Y-33998654D01*
X42792619Y-33960559D01*
X42716428Y-33884369D01*
X42678333Y-33808178D01*
X42640238Y-33655797D01*
X42640238Y-33541511D01*
X42678333Y-33389130D01*
X42716428Y-33312940D01*
X42792619Y-33236750D01*
X42906904Y-33198654D01*
X42983095Y-33198654D01*
X43097380Y-33236750D01*
X43135476Y-33274845D01*
X38957333Y-52329607D02*
X38690666Y-52329607D01*
X38690666Y-52748654D02*
X38690666Y-51948654D01*
X39071619Y-51948654D01*
X39795428Y-52748654D02*
X39338285Y-52748654D01*
X39566857Y-52748654D02*
X39566857Y-51948654D01*
X39490666Y-52062940D01*
X39414476Y-52139130D01*
X39338285Y-52177226D01*
X41821190Y-48819607D02*
X41935476Y-48857702D01*
X41973571Y-48895797D01*
X42011666Y-48971988D01*
X42011666Y-49086273D01*
X41973571Y-49162464D01*
X41935476Y-49200559D01*
X41859285Y-49238654D01*
X41554523Y-49238654D01*
X41554523Y-48438654D01*
X41821190Y-48438654D01*
X41897380Y-48476750D01*
X41935476Y-48514845D01*
X41973571Y-48591035D01*
X41973571Y-48667226D01*
X41935476Y-48743416D01*
X41897380Y-48781511D01*
X41821190Y-48819607D01*
X41554523Y-48819607D01*
X42278333Y-48438654D02*
X42773571Y-48438654D01*
X42506904Y-48743416D01*
X42621190Y-48743416D01*
X42697380Y-48781511D01*
X42735476Y-48819607D01*
X42773571Y-48895797D01*
X42773571Y-49086273D01*
X42735476Y-49162464D01*
X42697380Y-49200559D01*
X42621190Y-49238654D01*
X42392619Y-49238654D01*
X42316428Y-49200559D01*
X42278333Y-49162464D01*
X30613476Y-30696750D02*
X30537285Y-30658654D01*
X30423000Y-30658654D01*
X30308714Y-30696750D01*
X30232523Y-30772940D01*
X30194428Y-30849130D01*
X30156333Y-31001511D01*
X30156333Y-31115797D01*
X30194428Y-31268178D01*
X30232523Y-31344369D01*
X30308714Y-31420559D01*
X30423000Y-31458654D01*
X30499190Y-31458654D01*
X30613476Y-31420559D01*
X30651571Y-31382464D01*
X30651571Y-31115797D01*
X30499190Y-31115797D01*
X30994428Y-31458654D02*
X30994428Y-30658654D01*
X31451571Y-31458654D01*
X31451571Y-30658654D01*
X31832523Y-31458654D02*
X31832523Y-30658654D01*
X32023000Y-30658654D01*
X32137285Y-30696750D01*
X32213476Y-30772940D01*
X32251571Y-30849130D01*
X32289666Y-31001511D01*
X32289666Y-31115797D01*
X32251571Y-31268178D01*
X32213476Y-31344369D01*
X32137285Y-31420559D01*
X32023000Y-31458654D01*
X31832523Y-31458654D01*
X30632523Y-46698654D02*
X30632523Y-45898654D01*
X30823000Y-45898654D01*
X30937285Y-45936750D01*
X31013476Y-46012940D01*
X31051571Y-46089130D01*
X31089666Y-46241511D01*
X31089666Y-46355797D01*
X31051571Y-46508178D01*
X31013476Y-46584369D01*
X30937285Y-46660559D01*
X30823000Y-46698654D01*
X30632523Y-46698654D01*
X31356333Y-45898654D02*
X31889666Y-45898654D01*
X31546809Y-46698654D01*
X41821190Y-51359607D02*
X41935476Y-51397702D01*
X41973571Y-51435797D01*
X42011666Y-51511988D01*
X42011666Y-51626273D01*
X41973571Y-51702464D01*
X41935476Y-51740559D01*
X41859285Y-51778654D01*
X41554523Y-51778654D01*
X41554523Y-50978654D01*
X41821190Y-50978654D01*
X41897380Y-51016750D01*
X41935476Y-51054845D01*
X41973571Y-51131035D01*
X41973571Y-51207226D01*
X41935476Y-51283416D01*
X41897380Y-51321511D01*
X41821190Y-51359607D01*
X41554523Y-51359607D01*
X42316428Y-51054845D02*
X42354523Y-51016750D01*
X42430714Y-50978654D01*
X42621190Y-50978654D01*
X42697380Y-51016750D01*
X42735476Y-51054845D01*
X42773571Y-51131035D01*
X42773571Y-51207226D01*
X42735476Y-51321511D01*
X42278333Y-51778654D01*
X42773571Y-51778654D01*
X40950666Y-52536750D02*
X40717333Y-52536750D01*
X40717333Y-52903416D02*
X40717333Y-52203416D01*
X41050666Y-52203416D01*
X41450666Y-52203416D02*
X41517333Y-52203416D01*
X41584000Y-52236750D01*
X41617333Y-52270083D01*
X41650666Y-52336750D01*
X41684000Y-52470083D01*
X41684000Y-52636750D01*
X41650666Y-52770083D01*
X41617333Y-52836750D01*
X41584000Y-52870083D01*
X41517333Y-52903416D01*
X41450666Y-52903416D01*
X41384000Y-52870083D01*
X41350666Y-52836750D01*
X41317333Y-52770083D01*
X41284000Y-52636750D01*
X41284000Y-52470083D01*
X41317333Y-52336750D01*
X41350666Y-52270083D01*
X41384000Y-52236750D01*
X41450666Y-52203416D01*
X30632523Y-41618654D02*
X30632523Y-40818654D01*
X30823000Y-40818654D01*
X30937285Y-40856750D01*
X31013476Y-40932940D01*
X31051571Y-41009130D01*
X31089666Y-41161511D01*
X31089666Y-41275797D01*
X31051571Y-41428178D01*
X31013476Y-41504369D01*
X30937285Y-41580559D01*
X30823000Y-41618654D01*
X30632523Y-41618654D01*
X31775380Y-41085321D02*
X31775380Y-41618654D01*
X31584904Y-40780559D02*
X31394428Y-41351988D01*
X31889666Y-41351988D01*
X30632523Y-36538654D02*
X30632523Y-35738654D01*
X30823000Y-35738654D01*
X30937285Y-35776750D01*
X31013476Y-35852940D01*
X31051571Y-35929130D01*
X31089666Y-36081511D01*
X31089666Y-36195797D01*
X31051571Y-36348178D01*
X31013476Y-36424369D01*
X30937285Y-36500559D01*
X30823000Y-36538654D01*
X30632523Y-36538654D01*
X31851571Y-36538654D02*
X31394428Y-36538654D01*
X31623000Y-36538654D02*
X31623000Y-35738654D01*
X31546809Y-35852940D01*
X31470619Y-35929130D01*
X31394428Y-35967226D01*
X42848297Y-52851741D02*
X42942578Y-52804601D01*
X42989719Y-52804601D01*
X43060429Y-52828171D01*
X43131140Y-52898882D01*
X43154710Y-52969592D01*
X43154710Y-53016733D01*
X43131140Y-53087443D01*
X42942578Y-53276005D01*
X42447603Y-52781030D01*
X42612595Y-52616039D01*
X42683306Y-52592469D01*
X42730446Y-52592469D01*
X42801157Y-52616039D01*
X42848297Y-52663179D01*
X42871867Y-52733890D01*
X42871867Y-52781030D01*
X42848297Y-52851741D01*
X42683306Y-53016733D01*
X43154710Y-52073924D02*
X43060429Y-52168205D01*
X43036859Y-52238915D01*
X43036859Y-52286056D01*
X43060429Y-52403907D01*
X43131140Y-52521758D01*
X43319702Y-52710320D01*
X43390412Y-52733890D01*
X43437553Y-52733890D01*
X43508264Y-52710320D01*
X43602544Y-52616039D01*
X43626115Y-52545328D01*
X43626115Y-52498188D01*
X43602544Y-52427477D01*
X43484693Y-52309626D01*
X43413983Y-52286056D01*
X43366842Y-52286056D01*
X43296132Y-52309626D01*
X43201851Y-52403907D01*
X43178280Y-52474617D01*
X43178280Y-52521758D01*
X43201851Y-52592469D01*
X41883786Y-31390559D02*
X41998072Y-31428654D01*
X42188548Y-31428654D01*
X42264739Y-31390559D01*
X42302834Y-31352464D01*
X42340929Y-31276273D01*
X42340929Y-31200083D01*
X42302834Y-31123892D01*
X42264739Y-31085797D01*
X42188548Y-31047702D01*
X42036167Y-31009607D01*
X41959977Y-30971511D01*
X41921881Y-30933416D01*
X41883786Y-30857226D01*
X41883786Y-30781035D01*
X41921881Y-30704845D01*
X41959977Y-30666750D01*
X42036167Y-30628654D01*
X42226643Y-30628654D01*
X42340929Y-30666750D01*
X42569500Y-30628654D02*
X43026643Y-30628654D01*
X42798072Y-31428654D02*
X42798072Y-30628654D01*
X33553523Y-52748654D02*
X33553523Y-51948654D01*
X33744000Y-51948654D01*
X33858285Y-51986750D01*
X33934476Y-52062940D01*
X33972571Y-52139130D01*
X34010666Y-52291511D01*
X34010666Y-52405797D01*
X33972571Y-52558178D01*
X33934476Y-52634369D01*
X33858285Y-52710559D01*
X33744000Y-52748654D01*
X33553523Y-52748654D01*
X34734476Y-51948654D02*
X34353523Y-51948654D01*
X34315428Y-52329607D01*
X34353523Y-52291511D01*
X34429714Y-52253416D01*
X34620190Y-52253416D01*
X34696380Y-52291511D01*
X34734476Y-52329607D01*
X34772571Y-52405797D01*
X34772571Y-52596273D01*
X34734476Y-52672464D01*
X34696380Y-52710559D01*
X34620190Y-52748654D01*
X34429714Y-52748654D01*
X34353523Y-52710559D01*
X34315428Y-52672464D01*
X41878333Y-36119607D02*
X41611666Y-36119607D01*
X41611666Y-36538654D02*
X41611666Y-35738654D01*
X41992619Y-35738654D01*
X42640238Y-36005321D02*
X42640238Y-36538654D01*
X42449761Y-35700559D02*
X42259285Y-36271988D01*
X42754523Y-36271988D01*
X41878333Y-41199607D02*
X41611666Y-41199607D01*
X41611666Y-41618654D02*
X41611666Y-40818654D01*
X41992619Y-40818654D01*
X42640238Y-40818654D02*
X42487857Y-40818654D01*
X42411666Y-40856750D01*
X42373571Y-40894845D01*
X42297380Y-41009130D01*
X42259285Y-41161511D01*
X42259285Y-41466273D01*
X42297380Y-41542464D01*
X42335476Y-41580559D01*
X42411666Y-41618654D01*
X42564047Y-41618654D01*
X42640238Y-41580559D01*
X42678333Y-41542464D01*
X42716428Y-41466273D01*
X42716428Y-41275797D01*
X42678333Y-41199607D01*
X42640238Y-41161511D01*
X42564047Y-41123416D01*
X42411666Y-41123416D01*
X42335476Y-41161511D01*
X42297380Y-41199607D01*
X42259285Y-41275797D01*
X30632523Y-28918654D02*
X30632523Y-28118654D01*
X30823000Y-28118654D01*
X30937285Y-28156750D01*
X31013476Y-28232940D01*
X31051571Y-28309130D01*
X31089666Y-28461511D01*
X31089666Y-28575797D01*
X31051571Y-28728178D01*
X31013476Y-28804369D01*
X30937285Y-28880559D01*
X30823000Y-28918654D01*
X30632523Y-28918654D01*
X31394428Y-28194845D02*
X31432523Y-28156750D01*
X31508714Y-28118654D01*
X31699190Y-28118654D01*
X31775380Y-28156750D01*
X31813476Y-28194845D01*
X31851571Y-28271035D01*
X31851571Y-28347226D01*
X31813476Y-28461511D01*
X31356333Y-28918654D01*
X31851571Y-28918654D01*
X41878333Y-38659607D02*
X41611666Y-38659607D01*
X41611666Y-39078654D02*
X41611666Y-38278654D01*
X41992619Y-38278654D01*
X42678333Y-38278654D02*
X42297380Y-38278654D01*
X42259285Y-38659607D01*
X42297380Y-38621511D01*
X42373571Y-38583416D01*
X42564047Y-38583416D01*
X42640238Y-38621511D01*
X42678333Y-38659607D01*
X42716428Y-38735797D01*
X42716428Y-38926273D01*
X42678333Y-39002464D01*
X42640238Y-39040559D01*
X42564047Y-39078654D01*
X42373571Y-39078654D01*
X42297380Y-39040559D01*
X42259285Y-39002464D01*
X31089666Y-44082464D02*
X31051571Y-44120559D01*
X30937285Y-44158654D01*
X30861095Y-44158654D01*
X30746809Y-44120559D01*
X30670619Y-44044369D01*
X30632523Y-43968178D01*
X30594428Y-43815797D01*
X30594428Y-43701511D01*
X30632523Y-43549130D01*
X30670619Y-43472940D01*
X30746809Y-43396750D01*
X30861095Y-43358654D01*
X30937285Y-43358654D01*
X31051571Y-43396750D01*
X31089666Y-43434845D01*
X31775380Y-43358654D02*
X31623000Y-43358654D01*
X31546809Y-43396750D01*
X31508714Y-43434845D01*
X31432523Y-43549130D01*
X31394428Y-43701511D01*
X31394428Y-44006273D01*
X31432523Y-44082464D01*
X31470619Y-44120559D01*
X31546809Y-44158654D01*
X31699190Y-44158654D01*
X31775380Y-44120559D01*
X31813476Y-44082464D01*
X31851571Y-44006273D01*
X31851571Y-43815797D01*
X31813476Y-43739607D01*
X31775380Y-43701511D01*
X31699190Y-43663416D01*
X31546809Y-43663416D01*
X31470619Y-43701511D01*
X31432523Y-43739607D01*
X31394428Y-43815797D01*
X41821190Y-46279607D02*
X41935476Y-46317702D01*
X41973571Y-46355797D01*
X42011666Y-46431988D01*
X42011666Y-46546273D01*
X41973571Y-46622464D01*
X41935476Y-46660559D01*
X41859285Y-46698654D01*
X41554523Y-46698654D01*
X41554523Y-45898654D01*
X41821190Y-45898654D01*
X41897380Y-45936750D01*
X41935476Y-45974845D01*
X41973571Y-46051035D01*
X41973571Y-46127226D01*
X41935476Y-46203416D01*
X41897380Y-46241511D01*
X41821190Y-46279607D01*
X41554523Y-46279607D01*
X42773571Y-46698654D02*
X42316428Y-46698654D01*
X42545000Y-46698654D02*
X42545000Y-45898654D01*
X42468809Y-46012940D01*
X42392619Y-46089130D01*
X42316428Y-46127226D01*
X41821190Y-25959607D02*
X41935476Y-25997702D01*
X41973571Y-26035797D01*
X42011666Y-26111988D01*
X42011666Y-26226273D01*
X41973571Y-26302464D01*
X41935476Y-26340559D01*
X41859285Y-26378654D01*
X41554523Y-26378654D01*
X41554523Y-25578654D01*
X41821190Y-25578654D01*
X41897380Y-25616750D01*
X41935476Y-25654845D01*
X41973571Y-25731035D01*
X41973571Y-25807226D01*
X41935476Y-25883416D01*
X41897380Y-25921511D01*
X41821190Y-25959607D01*
X41554523Y-25959607D01*
X42506904Y-25578654D02*
X42583095Y-25578654D01*
X42659285Y-25616750D01*
X42697380Y-25654845D01*
X42735476Y-25731035D01*
X42773571Y-25883416D01*
X42773571Y-26073892D01*
X42735476Y-26226273D01*
X42697380Y-26302464D01*
X42659285Y-26340559D01*
X42583095Y-26378654D01*
X42506904Y-26378654D01*
X42430714Y-26340559D01*
X42392619Y-26302464D01*
X42354523Y-26226273D01*
X42316428Y-26073892D01*
X42316428Y-25883416D01*
X42354523Y-25731035D01*
X42392619Y-25654845D01*
X42430714Y-25616750D01*
X42506904Y-25578654D01*
X31900666Y-52536750D02*
X32000666Y-52570083D01*
X32034000Y-52603416D01*
X32067333Y-52670083D01*
X32067333Y-52770083D01*
X32034000Y-52836750D01*
X32000666Y-52870083D01*
X31934000Y-52903416D01*
X31667333Y-52903416D01*
X31667333Y-52203416D01*
X31900666Y-52203416D01*
X31967333Y-52236750D01*
X32000666Y-52270083D01*
X32034000Y-52336750D01*
X32034000Y-52403416D01*
X32000666Y-52470083D01*
X31967333Y-52503416D01*
X31900666Y-52536750D01*
X31667333Y-52536750D01*
X32300666Y-52203416D02*
X32767333Y-52203416D01*
X32467333Y-52903416D01*
%TO.C,SW1*%
X63290666Y-37650761D02*
X63433523Y-37698380D01*
X63671619Y-37698380D01*
X63766857Y-37650761D01*
X63814476Y-37603142D01*
X63862095Y-37507904D01*
X63862095Y-37412666D01*
X63814476Y-37317428D01*
X63766857Y-37269809D01*
X63671619Y-37222190D01*
X63481142Y-37174571D01*
X63385904Y-37126952D01*
X63338285Y-37079333D01*
X63290666Y-36984095D01*
X63290666Y-36888857D01*
X63338285Y-36793619D01*
X63385904Y-36746000D01*
X63481142Y-36698380D01*
X63719238Y-36698380D01*
X63862095Y-36746000D01*
X64195428Y-36698380D02*
X64433523Y-37698380D01*
X64624000Y-36984095D01*
X64814476Y-37698380D01*
X65052571Y-36698380D01*
X65957333Y-37698380D02*
X65385904Y-37698380D01*
X65671619Y-37698380D02*
X65671619Y-36698380D01*
X65576380Y-36841238D01*
X65481142Y-36936476D01*
X65385904Y-36984095D01*
%TO.C,D18*%
X44160380Y-62328285D02*
X43160380Y-62328285D01*
X43160380Y-62090190D01*
X43208000Y-61947333D01*
X43303238Y-61852095D01*
X43398476Y-61804476D01*
X43588952Y-61756857D01*
X43731809Y-61756857D01*
X43922285Y-61804476D01*
X44017523Y-61852095D01*
X44112761Y-61947333D01*
X44160380Y-62090190D01*
X44160380Y-62328285D01*
X44160380Y-60804476D02*
X44160380Y-61375904D01*
X44160380Y-61090190D02*
X43160380Y-61090190D01*
X43303238Y-61185428D01*
X43398476Y-61280666D01*
X43446095Y-61375904D01*
X43588952Y-60233047D02*
X43541333Y-60328285D01*
X43493714Y-60375904D01*
X43398476Y-60423523D01*
X43350857Y-60423523D01*
X43255619Y-60375904D01*
X43208000Y-60328285D01*
X43160380Y-60233047D01*
X43160380Y-60042571D01*
X43208000Y-59947333D01*
X43255619Y-59899714D01*
X43350857Y-59852095D01*
X43398476Y-59852095D01*
X43493714Y-59899714D01*
X43541333Y-59947333D01*
X43588952Y-60042571D01*
X43588952Y-60233047D01*
X43636571Y-60328285D01*
X43684190Y-60375904D01*
X43779428Y-60423523D01*
X43969904Y-60423523D01*
X44065142Y-60375904D01*
X44112761Y-60328285D01*
X44160380Y-60233047D01*
X44160380Y-60042571D01*
X44112761Y-59947333D01*
X44065142Y-59899714D01*
X43969904Y-59852095D01*
X43779428Y-59852095D01*
X43684190Y-59899714D01*
X43636571Y-59947333D01*
X43588952Y-60042571D01*
X44480380Y-65185904D02*
X43480380Y-65185904D01*
X44480380Y-64614476D02*
X43908952Y-65043047D01*
X43480380Y-64614476D02*
X44051809Y-65185904D01*
%TO.C,SW17*%
X42240476Y-74734761D02*
X42383333Y-74782380D01*
X42621428Y-74782380D01*
X42716666Y-74734761D01*
X42764285Y-74687142D01*
X42811904Y-74591904D01*
X42811904Y-74496666D01*
X42764285Y-74401428D01*
X42716666Y-74353809D01*
X42621428Y-74306190D01*
X42430952Y-74258571D01*
X42335714Y-74210952D01*
X42288095Y-74163333D01*
X42240476Y-74068095D01*
X42240476Y-73972857D01*
X42288095Y-73877619D01*
X42335714Y-73830000D01*
X42430952Y-73782380D01*
X42669047Y-73782380D01*
X42811904Y-73830000D01*
X43145238Y-73782380D02*
X43383333Y-74782380D01*
X43573809Y-74068095D01*
X43764285Y-74782380D01*
X44002380Y-73782380D01*
X44907142Y-74782380D02*
X44335714Y-74782380D01*
X44621428Y-74782380D02*
X44621428Y-73782380D01*
X44526190Y-73925238D01*
X44430952Y-74020476D01*
X44335714Y-74068095D01*
X45240476Y-73782380D02*
X45907142Y-73782380D01*
X45478571Y-74782380D01*
%TO.C,SW2*%
X74466666Y-37650761D02*
X74609523Y-37698380D01*
X74847619Y-37698380D01*
X74942857Y-37650761D01*
X74990476Y-37603142D01*
X75038095Y-37507904D01*
X75038095Y-37412666D01*
X74990476Y-37317428D01*
X74942857Y-37269809D01*
X74847619Y-37222190D01*
X74657142Y-37174571D01*
X74561904Y-37126952D01*
X74514285Y-37079333D01*
X74466666Y-36984095D01*
X74466666Y-36888857D01*
X74514285Y-36793619D01*
X74561904Y-36746000D01*
X74657142Y-36698380D01*
X74895238Y-36698380D01*
X75038095Y-36746000D01*
X75371428Y-36698380D02*
X75609523Y-37698380D01*
X75800000Y-36984095D01*
X75990476Y-37698380D01*
X76228571Y-36698380D01*
X76561904Y-36793619D02*
X76609523Y-36746000D01*
X76704761Y-36698380D01*
X76942857Y-36698380D01*
X77038095Y-36746000D01*
X77085714Y-36793619D01*
X77133333Y-36888857D01*
X77133333Y-36984095D01*
X77085714Y-37126952D01*
X76514285Y-37698380D01*
X77133333Y-37698380D01*
%TO.C,SW7*%
X85642666Y-51366761D02*
X85785523Y-51414380D01*
X86023619Y-51414380D01*
X86118857Y-51366761D01*
X86166476Y-51319142D01*
X86214095Y-51223904D01*
X86214095Y-51128666D01*
X86166476Y-51033428D01*
X86118857Y-50985809D01*
X86023619Y-50938190D01*
X85833142Y-50890571D01*
X85737904Y-50842952D01*
X85690285Y-50795333D01*
X85642666Y-50700095D01*
X85642666Y-50604857D01*
X85690285Y-50509619D01*
X85737904Y-50462000D01*
X85833142Y-50414380D01*
X86071238Y-50414380D01*
X86214095Y-50462000D01*
X86547428Y-50414380D02*
X86785523Y-51414380D01*
X86976000Y-50700095D01*
X87166476Y-51414380D01*
X87404571Y-50414380D01*
X87690285Y-50414380D02*
X88356952Y-50414380D01*
X87928380Y-51414380D01*
%TO.C,SW16*%
X30810476Y-74734761D02*
X30953333Y-74782380D01*
X31191428Y-74782380D01*
X31286666Y-74734761D01*
X31334285Y-74687142D01*
X31381904Y-74591904D01*
X31381904Y-74496666D01*
X31334285Y-74401428D01*
X31286666Y-74353809D01*
X31191428Y-74306190D01*
X31000952Y-74258571D01*
X30905714Y-74210952D01*
X30858095Y-74163333D01*
X30810476Y-74068095D01*
X30810476Y-73972857D01*
X30858095Y-73877619D01*
X30905714Y-73830000D01*
X31000952Y-73782380D01*
X31239047Y-73782380D01*
X31381904Y-73830000D01*
X31715238Y-73782380D02*
X31953333Y-74782380D01*
X32143809Y-74068095D01*
X32334285Y-74782380D01*
X32572380Y-73782380D01*
X33477142Y-74782380D02*
X32905714Y-74782380D01*
X33191428Y-74782380D02*
X33191428Y-73782380D01*
X33096190Y-73925238D01*
X33000952Y-74020476D01*
X32905714Y-74068095D01*
X34334285Y-73782380D02*
X34143809Y-73782380D01*
X34048571Y-73830000D01*
X34000952Y-73877619D01*
X33905714Y-74020476D01*
X33858095Y-74210952D01*
X33858095Y-74591904D01*
X33905714Y-74687142D01*
X33953333Y-74734761D01*
X34048571Y-74782380D01*
X34239047Y-74782380D01*
X34334285Y-74734761D01*
X34381904Y-74687142D01*
X34429523Y-74591904D01*
X34429523Y-74353809D01*
X34381904Y-74258571D01*
X34334285Y-74210952D01*
X34239047Y-74163333D01*
X34048571Y-74163333D01*
X33953333Y-74210952D01*
X33905714Y-74258571D01*
X33858095Y-74353809D01*
%TO.C,SW4*%
X52046666Y-46780761D02*
X52189523Y-46828380D01*
X52427619Y-46828380D01*
X52522857Y-46780761D01*
X52570476Y-46733142D01*
X52618095Y-46637904D01*
X52618095Y-46542666D01*
X52570476Y-46447428D01*
X52522857Y-46399809D01*
X52427619Y-46352190D01*
X52237142Y-46304571D01*
X52141904Y-46256952D01*
X52094285Y-46209333D01*
X52046666Y-46114095D01*
X52046666Y-46018857D01*
X52094285Y-45923619D01*
X52141904Y-45876000D01*
X52237142Y-45828380D01*
X52475238Y-45828380D01*
X52618095Y-45876000D01*
X52951428Y-45828380D02*
X53189523Y-46828380D01*
X53380000Y-46114095D01*
X53570476Y-46828380D01*
X53808571Y-45828380D01*
X54618095Y-46161714D02*
X54618095Y-46828380D01*
X54380000Y-45780761D02*
X54141904Y-46495047D01*
X54760952Y-46495047D01*
%TO.C,D17*%
X39842380Y-62328285D02*
X38842380Y-62328285D01*
X38842380Y-62090190D01*
X38890000Y-61947333D01*
X38985238Y-61852095D01*
X39080476Y-61804476D01*
X39270952Y-61756857D01*
X39413809Y-61756857D01*
X39604285Y-61804476D01*
X39699523Y-61852095D01*
X39794761Y-61947333D01*
X39842380Y-62090190D01*
X39842380Y-62328285D01*
X39842380Y-60804476D02*
X39842380Y-61375904D01*
X39842380Y-61090190D02*
X38842380Y-61090190D01*
X38985238Y-61185428D01*
X39080476Y-61280666D01*
X39128095Y-61375904D01*
X38842380Y-60471142D02*
X38842380Y-59804476D01*
X39842380Y-60233047D01*
X40162380Y-65185904D02*
X39162380Y-65185904D01*
X40162380Y-64614476D02*
X39590952Y-65043047D01*
X39162380Y-64614476D02*
X39733809Y-65185904D01*
%TO.C,SW18*%
X57480476Y-74734761D02*
X57623333Y-74782380D01*
X57861428Y-74782380D01*
X57956666Y-74734761D01*
X58004285Y-74687142D01*
X58051904Y-74591904D01*
X58051904Y-74496666D01*
X58004285Y-74401428D01*
X57956666Y-74353809D01*
X57861428Y-74306190D01*
X57670952Y-74258571D01*
X57575714Y-74210952D01*
X57528095Y-74163333D01*
X57480476Y-74068095D01*
X57480476Y-73972857D01*
X57528095Y-73877619D01*
X57575714Y-73830000D01*
X57670952Y-73782380D01*
X57909047Y-73782380D01*
X58051904Y-73830000D01*
X58385238Y-73782380D02*
X58623333Y-74782380D01*
X58813809Y-74068095D01*
X59004285Y-74782380D01*
X59242380Y-73782380D01*
X60147142Y-74782380D02*
X59575714Y-74782380D01*
X59861428Y-74782380D02*
X59861428Y-73782380D01*
X59766190Y-73925238D01*
X59670952Y-74020476D01*
X59575714Y-74068095D01*
X60718571Y-74210952D02*
X60623333Y-74163333D01*
X60575714Y-74115714D01*
X60528095Y-74020476D01*
X60528095Y-73972857D01*
X60575714Y-73877619D01*
X60623333Y-73830000D01*
X60718571Y-73782380D01*
X60909047Y-73782380D01*
X61004285Y-73830000D01*
X61051904Y-73877619D01*
X61099523Y-73972857D01*
X61099523Y-74020476D01*
X61051904Y-74115714D01*
X61004285Y-74163333D01*
X60909047Y-74210952D01*
X60718571Y-74210952D01*
X60623333Y-74258571D01*
X60575714Y-74306190D01*
X60528095Y-74401428D01*
X60528095Y-74591904D01*
X60575714Y-74687142D01*
X60623333Y-74734761D01*
X60718571Y-74782380D01*
X60909047Y-74782380D01*
X61004285Y-74734761D01*
X61051904Y-74687142D01*
X61099523Y-74591904D01*
X61099523Y-74401428D01*
X61051904Y-74306190D01*
X61004285Y-74258571D01*
X60909047Y-74210952D01*
%TO.C,SW12*%
X51570476Y-65322761D02*
X51713333Y-65370380D01*
X51951428Y-65370380D01*
X52046666Y-65322761D01*
X52094285Y-65275142D01*
X52141904Y-65179904D01*
X52141904Y-65084666D01*
X52094285Y-64989428D01*
X52046666Y-64941809D01*
X51951428Y-64894190D01*
X51760952Y-64846571D01*
X51665714Y-64798952D01*
X51618095Y-64751333D01*
X51570476Y-64656095D01*
X51570476Y-64560857D01*
X51618095Y-64465619D01*
X51665714Y-64418000D01*
X51760952Y-64370380D01*
X51999047Y-64370380D01*
X52141904Y-64418000D01*
X52475238Y-64370380D02*
X52713333Y-65370380D01*
X52903809Y-64656095D01*
X53094285Y-65370380D01*
X53332380Y-64370380D01*
X54237142Y-65370380D02*
X53665714Y-65370380D01*
X53951428Y-65370380D02*
X53951428Y-64370380D01*
X53856190Y-64513238D01*
X53760952Y-64608476D01*
X53665714Y-64656095D01*
X54618095Y-64465619D02*
X54665714Y-64418000D01*
X54760952Y-64370380D01*
X54999047Y-64370380D01*
X55094285Y-64418000D01*
X55141904Y-64465619D01*
X55189523Y-64560857D01*
X55189523Y-64656095D01*
X55141904Y-64798952D01*
X54570476Y-65370380D01*
X55189523Y-65370380D01*
%TO.C,SW8*%
X52046666Y-55924761D02*
X52189523Y-55972380D01*
X52427619Y-55972380D01*
X52522857Y-55924761D01*
X52570476Y-55877142D01*
X52618095Y-55781904D01*
X52618095Y-55686666D01*
X52570476Y-55591428D01*
X52522857Y-55543809D01*
X52427619Y-55496190D01*
X52237142Y-55448571D01*
X52141904Y-55400952D01*
X52094285Y-55353333D01*
X52046666Y-55258095D01*
X52046666Y-55162857D01*
X52094285Y-55067619D01*
X52141904Y-55020000D01*
X52237142Y-54972380D01*
X52475238Y-54972380D01*
X52618095Y-55020000D01*
X52951428Y-54972380D02*
X53189523Y-55972380D01*
X53380000Y-55258095D01*
X53570476Y-55972380D01*
X53808571Y-54972380D01*
X54332380Y-55400952D02*
X54237142Y-55353333D01*
X54189523Y-55305714D01*
X54141904Y-55210476D01*
X54141904Y-55162857D01*
X54189523Y-55067619D01*
X54237142Y-55020000D01*
X54332380Y-54972380D01*
X54522857Y-54972380D01*
X54618095Y-55020000D01*
X54665714Y-55067619D01*
X54713333Y-55162857D01*
X54713333Y-55210476D01*
X54665714Y-55305714D01*
X54618095Y-55353333D01*
X54522857Y-55400952D01*
X54332380Y-55400952D01*
X54237142Y-55448571D01*
X54189523Y-55496190D01*
X54141904Y-55591428D01*
X54141904Y-55781904D01*
X54189523Y-55877142D01*
X54237142Y-55924761D01*
X54332380Y-55972380D01*
X54522857Y-55972380D01*
X54618095Y-55924761D01*
X54665714Y-55877142D01*
X54713333Y-55781904D01*
X54713333Y-55591428D01*
X54665714Y-55496190D01*
X54618095Y-55448571D01*
X54522857Y-55400952D01*
%TO.C,SW10*%
X73990476Y-55938761D02*
X74133333Y-55986380D01*
X74371428Y-55986380D01*
X74466666Y-55938761D01*
X74514285Y-55891142D01*
X74561904Y-55795904D01*
X74561904Y-55700666D01*
X74514285Y-55605428D01*
X74466666Y-55557809D01*
X74371428Y-55510190D01*
X74180952Y-55462571D01*
X74085714Y-55414952D01*
X74038095Y-55367333D01*
X73990476Y-55272095D01*
X73990476Y-55176857D01*
X74038095Y-55081619D01*
X74085714Y-55034000D01*
X74180952Y-54986380D01*
X74419047Y-54986380D01*
X74561904Y-55034000D01*
X74895238Y-54986380D02*
X75133333Y-55986380D01*
X75323809Y-55272095D01*
X75514285Y-55986380D01*
X75752380Y-54986380D01*
X76657142Y-55986380D02*
X76085714Y-55986380D01*
X76371428Y-55986380D02*
X76371428Y-54986380D01*
X76276190Y-55129238D01*
X76180952Y-55224476D01*
X76085714Y-55272095D01*
X77276190Y-54986380D02*
X77371428Y-54986380D01*
X77466666Y-55034000D01*
X77514285Y-55081619D01*
X77561904Y-55176857D01*
X77609523Y-55367333D01*
X77609523Y-55605428D01*
X77561904Y-55795904D01*
X77514285Y-55891142D01*
X77466666Y-55938761D01*
X77371428Y-55986380D01*
X77276190Y-55986380D01*
X77180952Y-55938761D01*
X77133333Y-55891142D01*
X77085714Y-55795904D01*
X77038095Y-55605428D01*
X77038095Y-55367333D01*
X77085714Y-55176857D01*
X77133333Y-55081619D01*
X77180952Y-55034000D01*
X77276190Y-54986380D01*
%TO.C,SW3*%
X85896666Y-37650761D02*
X86039523Y-37698380D01*
X86277619Y-37698380D01*
X86372857Y-37650761D01*
X86420476Y-37603142D01*
X86468095Y-37507904D01*
X86468095Y-37412666D01*
X86420476Y-37317428D01*
X86372857Y-37269809D01*
X86277619Y-37222190D01*
X86087142Y-37174571D01*
X85991904Y-37126952D01*
X85944285Y-37079333D01*
X85896666Y-36984095D01*
X85896666Y-36888857D01*
X85944285Y-36793619D01*
X85991904Y-36746000D01*
X86087142Y-36698380D01*
X86325238Y-36698380D01*
X86468095Y-36746000D01*
X86801428Y-36698380D02*
X87039523Y-37698380D01*
X87230000Y-36984095D01*
X87420476Y-37698380D01*
X87658571Y-36698380D01*
X87944285Y-36698380D02*
X88563333Y-36698380D01*
X88230000Y-37079333D01*
X88372857Y-37079333D01*
X88468095Y-37126952D01*
X88515714Y-37174571D01*
X88563333Y-37269809D01*
X88563333Y-37507904D01*
X88515714Y-37603142D01*
X88468095Y-37650761D01*
X88372857Y-37698380D01*
X88087142Y-37698380D01*
X87991904Y-37650761D01*
X87944285Y-37603142D01*
%TO.C,SW0*%
X52046666Y-37636761D02*
X52189523Y-37684380D01*
X52427619Y-37684380D01*
X52522857Y-37636761D01*
X52570476Y-37589142D01*
X52618095Y-37493904D01*
X52618095Y-37398666D01*
X52570476Y-37303428D01*
X52522857Y-37255809D01*
X52427619Y-37208190D01*
X52237142Y-37160571D01*
X52141904Y-37112952D01*
X52094285Y-37065333D01*
X52046666Y-36970095D01*
X52046666Y-36874857D01*
X52094285Y-36779619D01*
X52141904Y-36732000D01*
X52237142Y-36684380D01*
X52475238Y-36684380D01*
X52618095Y-36732000D01*
X52951428Y-36684380D02*
X53189523Y-37684380D01*
X53380000Y-36970095D01*
X53570476Y-37684380D01*
X53808571Y-36684380D01*
X54380000Y-36684380D02*
X54475238Y-36684380D01*
X54570476Y-36732000D01*
X54618095Y-36779619D01*
X54665714Y-36874857D01*
X54713333Y-37065333D01*
X54713333Y-37303428D01*
X54665714Y-37493904D01*
X54618095Y-37589142D01*
X54570476Y-37636761D01*
X54475238Y-37684380D01*
X54380000Y-37684380D01*
X54284761Y-37636761D01*
X54237142Y-37589142D01*
X54189523Y-37493904D01*
X54141904Y-37303428D01*
X54141904Y-37065333D01*
X54189523Y-36874857D01*
X54237142Y-36779619D01*
X54284761Y-36732000D01*
X54380000Y-36684380D01*
%TO.C,SW5*%
X63290666Y-46794761D02*
X63433523Y-46842380D01*
X63671619Y-46842380D01*
X63766857Y-46794761D01*
X63814476Y-46747142D01*
X63862095Y-46651904D01*
X63862095Y-46556666D01*
X63814476Y-46461428D01*
X63766857Y-46413809D01*
X63671619Y-46366190D01*
X63481142Y-46318571D01*
X63385904Y-46270952D01*
X63338285Y-46223333D01*
X63290666Y-46128095D01*
X63290666Y-46032857D01*
X63338285Y-45937619D01*
X63385904Y-45890000D01*
X63481142Y-45842380D01*
X63719238Y-45842380D01*
X63862095Y-45890000D01*
X64195428Y-45842380D02*
X64433523Y-46842380D01*
X64624000Y-46128095D01*
X64814476Y-46842380D01*
X65052571Y-45842380D01*
X65909714Y-45842380D02*
X65433523Y-45842380D01*
X65385904Y-46318571D01*
X65433523Y-46270952D01*
X65528761Y-46223333D01*
X65766857Y-46223333D01*
X65862095Y-46270952D01*
X65909714Y-46318571D01*
X65957333Y-46413809D01*
X65957333Y-46651904D01*
X65909714Y-46747142D01*
X65862095Y-46794761D01*
X65766857Y-46842380D01*
X65528761Y-46842380D01*
X65433523Y-46794761D01*
X65385904Y-46747142D01*
%TO.C,SW6*%
X74466666Y-46794761D02*
X74609523Y-46842380D01*
X74847619Y-46842380D01*
X74942857Y-46794761D01*
X74990476Y-46747142D01*
X75038095Y-46651904D01*
X75038095Y-46556666D01*
X74990476Y-46461428D01*
X74942857Y-46413809D01*
X74847619Y-46366190D01*
X74657142Y-46318571D01*
X74561904Y-46270952D01*
X74514285Y-46223333D01*
X74466666Y-46128095D01*
X74466666Y-46032857D01*
X74514285Y-45937619D01*
X74561904Y-45890000D01*
X74657142Y-45842380D01*
X74895238Y-45842380D01*
X75038095Y-45890000D01*
X75371428Y-45842380D02*
X75609523Y-46842380D01*
X75800000Y-46128095D01*
X75990476Y-46842380D01*
X76228571Y-45842380D01*
X77038095Y-45842380D02*
X76847619Y-45842380D01*
X76752380Y-45890000D01*
X76704761Y-45937619D01*
X76609523Y-46080476D01*
X76561904Y-46270952D01*
X76561904Y-46651904D01*
X76609523Y-46747142D01*
X76657142Y-46794761D01*
X76752380Y-46842380D01*
X76942857Y-46842380D01*
X77038095Y-46794761D01*
X77085714Y-46747142D01*
X77133333Y-46651904D01*
X77133333Y-46413809D01*
X77085714Y-46318571D01*
X77038095Y-46270952D01*
X76942857Y-46223333D01*
X76752380Y-46223333D01*
X76657142Y-46270952D01*
X76609523Y-46318571D01*
X76561904Y-46413809D01*
%TO.C,SW15*%
X73990476Y-74734761D02*
X74133333Y-74782380D01*
X74371428Y-74782380D01*
X74466666Y-74734761D01*
X74514285Y-74687142D01*
X74561904Y-74591904D01*
X74561904Y-74496666D01*
X74514285Y-74401428D01*
X74466666Y-74353809D01*
X74371428Y-74306190D01*
X74180952Y-74258571D01*
X74085714Y-74210952D01*
X74038095Y-74163333D01*
X73990476Y-74068095D01*
X73990476Y-73972857D01*
X74038095Y-73877619D01*
X74085714Y-73830000D01*
X74180952Y-73782380D01*
X74419047Y-73782380D01*
X74561904Y-73830000D01*
X74895238Y-73782380D02*
X75133333Y-74782380D01*
X75323809Y-74068095D01*
X75514285Y-74782380D01*
X75752380Y-73782380D01*
X76657142Y-74782380D02*
X76085714Y-74782380D01*
X76371428Y-74782380D02*
X76371428Y-73782380D01*
X76276190Y-73925238D01*
X76180952Y-74020476D01*
X76085714Y-74068095D01*
X77561904Y-73782380D02*
X77085714Y-73782380D01*
X77038095Y-74258571D01*
X77085714Y-74210952D01*
X77180952Y-74163333D01*
X77419047Y-74163333D01*
X77514285Y-74210952D01*
X77561904Y-74258571D01*
X77609523Y-74353809D01*
X77609523Y-74591904D01*
X77561904Y-74687142D01*
X77514285Y-74734761D01*
X77419047Y-74782380D01*
X77180952Y-74782380D01*
X77085714Y-74734761D01*
X77038095Y-74687142D01*
%TO.C,SW9*%
X63290666Y-55938761D02*
X63433523Y-55986380D01*
X63671619Y-55986380D01*
X63766857Y-55938761D01*
X63814476Y-55891142D01*
X63862095Y-55795904D01*
X63862095Y-55700666D01*
X63814476Y-55605428D01*
X63766857Y-55557809D01*
X63671619Y-55510190D01*
X63481142Y-55462571D01*
X63385904Y-55414952D01*
X63338285Y-55367333D01*
X63290666Y-55272095D01*
X63290666Y-55176857D01*
X63338285Y-55081619D01*
X63385904Y-55034000D01*
X63481142Y-54986380D01*
X63719238Y-54986380D01*
X63862095Y-55034000D01*
X64195428Y-54986380D02*
X64433523Y-55986380D01*
X64624000Y-55272095D01*
X64814476Y-55986380D01*
X65052571Y-54986380D01*
X65481142Y-55986380D02*
X65671619Y-55986380D01*
X65766857Y-55938761D01*
X65814476Y-55891142D01*
X65909714Y-55748285D01*
X65957333Y-55557809D01*
X65957333Y-55176857D01*
X65909714Y-55081619D01*
X65862095Y-55034000D01*
X65766857Y-54986380D01*
X65576380Y-54986380D01*
X65481142Y-55034000D01*
X65433523Y-55081619D01*
X65385904Y-55176857D01*
X65385904Y-55414952D01*
X65433523Y-55510190D01*
X65481142Y-55557809D01*
X65576380Y-55605428D01*
X65766857Y-55605428D01*
X65862095Y-55557809D01*
X65909714Y-55510190D01*
X65957333Y-55414952D01*
%TO.C,SW13*%
X62814476Y-65336761D02*
X62957333Y-65384380D01*
X63195428Y-65384380D01*
X63290666Y-65336761D01*
X63338285Y-65289142D01*
X63385904Y-65193904D01*
X63385904Y-65098666D01*
X63338285Y-65003428D01*
X63290666Y-64955809D01*
X63195428Y-64908190D01*
X63004952Y-64860571D01*
X62909714Y-64812952D01*
X62862095Y-64765333D01*
X62814476Y-64670095D01*
X62814476Y-64574857D01*
X62862095Y-64479619D01*
X62909714Y-64432000D01*
X63004952Y-64384380D01*
X63243047Y-64384380D01*
X63385904Y-64432000D01*
X63719238Y-64384380D02*
X63957333Y-65384380D01*
X64147809Y-64670095D01*
X64338285Y-65384380D01*
X64576380Y-64384380D01*
X65481142Y-65384380D02*
X64909714Y-65384380D01*
X65195428Y-65384380D02*
X65195428Y-64384380D01*
X65100190Y-64527238D01*
X65004952Y-64622476D01*
X64909714Y-64670095D01*
X65814476Y-64384380D02*
X66433523Y-64384380D01*
X66100190Y-64765333D01*
X66243047Y-64765333D01*
X66338285Y-64812952D01*
X66385904Y-64860571D01*
X66433523Y-64955809D01*
X66433523Y-65193904D01*
X66385904Y-65289142D01*
X66338285Y-65336761D01*
X66243047Y-65384380D01*
X65957333Y-65384380D01*
X65862095Y-65336761D01*
X65814476Y-65289142D01*
D11*
%TO.C,D2*%
X82000000Y-22672000D02*
X79760000Y-22672000D01*
X82000000Y-26912000D02*
X82000000Y-22672000D01*
X79760000Y-26312000D02*
X82000000Y-26312000D01*
X79760000Y-22672000D02*
X79760000Y-26912000D01*
X79760000Y-26072000D02*
X82000000Y-26072000D01*
X80880000Y-22022000D02*
X80880000Y-22672000D01*
X79760000Y-26912000D02*
X82000000Y-26912000D01*
X80880000Y-27562000D02*
X80880000Y-26912000D01*
X79760000Y-26192000D02*
X82000000Y-26192000D01*
%TO.C,D0*%
X58020000Y-27562000D02*
X58020000Y-26912000D01*
X56900000Y-26192000D02*
X59140000Y-26192000D01*
X56900000Y-26912000D02*
X59140000Y-26912000D01*
X56900000Y-26312000D02*
X59140000Y-26312000D01*
X58020000Y-22022000D02*
X58020000Y-22672000D01*
X59140000Y-26912000D02*
X59140000Y-22672000D01*
X56900000Y-22672000D02*
X56900000Y-26912000D01*
X56900000Y-26072000D02*
X59140000Y-26072000D01*
X59140000Y-22672000D02*
X56900000Y-22672000D01*
%TO.C,SW11*%
X83976000Y-67004000D02*
X83976000Y-73004000D01*
X89976000Y-73004000D02*
X83976000Y-73004000D01*
X89976000Y-67004000D02*
X89976000Y-73004000D01*
X89976000Y-68504000D02*
X89976000Y-70404000D01*
X83976000Y-70354000D02*
X83976000Y-68504000D01*
X83976000Y-67004000D02*
X89976000Y-67004000D01*
%TO.C,D16*%
X37804000Y-58994000D02*
X35564000Y-58994000D01*
X35564000Y-62394000D02*
X37804000Y-62394000D01*
X36684000Y-58344000D02*
X36684000Y-58994000D01*
X37804000Y-63234000D02*
X37804000Y-58994000D01*
X36684000Y-63884000D02*
X36684000Y-63234000D01*
X35564000Y-58994000D02*
X35564000Y-63234000D01*
X35564000Y-62514000D02*
X37804000Y-62514000D01*
X35564000Y-63234000D02*
X37804000Y-63234000D01*
X35564000Y-62634000D02*
X37804000Y-62634000D01*
%TO.C,D13*%
X59948000Y-30002000D02*
X62188000Y-30002000D01*
X62188000Y-30722000D02*
X62188000Y-26482000D01*
X59948000Y-26482000D02*
X59948000Y-30722000D01*
X62188000Y-26482000D02*
X59948000Y-26482000D01*
X59948000Y-30722000D02*
X62188000Y-30722000D01*
X61068000Y-25832000D02*
X61068000Y-26482000D01*
X59948000Y-30122000D02*
X62188000Y-30122000D01*
X59948000Y-29882000D02*
X62188000Y-29882000D01*
X61068000Y-31372000D02*
X61068000Y-30722000D01*
%TO.C,D8*%
X52432000Y-30102000D02*
X52432000Y-29452000D01*
X51312000Y-28852000D02*
X53552000Y-28852000D01*
X51312000Y-28732000D02*
X53552000Y-28732000D01*
X51312000Y-28612000D02*
X53552000Y-28612000D01*
X52432000Y-24562000D02*
X52432000Y-25212000D01*
X51312000Y-25212000D02*
X51312000Y-29452000D01*
X53552000Y-29452000D02*
X53552000Y-25212000D01*
X51312000Y-29452000D02*
X53552000Y-29452000D01*
X53552000Y-25212000D02*
X51312000Y-25212000D01*
%TO.C,SW14*%
X72800000Y-62432000D02*
X72800000Y-68432000D01*
X78800000Y-63932000D02*
X78800000Y-65832000D01*
X78800000Y-68432000D02*
X72800000Y-68432000D01*
X78800000Y-62432000D02*
X78800000Y-68432000D01*
X72800000Y-65782000D02*
X72800000Y-63932000D01*
X72800000Y-62432000D02*
X78800000Y-62432000D01*
%TO.C,D10*%
X74172000Y-28732000D02*
X76412000Y-28732000D01*
X76412000Y-25212000D02*
X74172000Y-25212000D01*
X75292000Y-30102000D02*
X75292000Y-29452000D01*
X74172000Y-25212000D02*
X74172000Y-29452000D01*
X74172000Y-28612000D02*
X76412000Y-28612000D01*
X76412000Y-29452000D02*
X76412000Y-25212000D01*
X74172000Y-29452000D02*
X76412000Y-29452000D01*
X74172000Y-28852000D02*
X76412000Y-28852000D01*
X75292000Y-24562000D02*
X75292000Y-25212000D01*
%TO.C,MCU1*%
G36*
X41415568Y-31126110D02*
G01*
X41315568Y-31126110D01*
X41315568Y-31026110D01*
X41415568Y-31026110D01*
X41415568Y-31126110D01*
G37*
D10*
X41415568Y-31126110D02*
X41315568Y-31126110D01*
X41315568Y-31026110D01*
X41415568Y-31026110D01*
X41415568Y-31126110D01*
G36*
X41615568Y-31426110D02*
G01*
X41515568Y-31426110D01*
X41515568Y-31226110D01*
X41615568Y-31226110D01*
X41615568Y-31426110D01*
G37*
X41615568Y-31426110D02*
X41515568Y-31426110D01*
X41515568Y-31226110D01*
X41615568Y-31226110D01*
X41615568Y-31426110D01*
G36*
X41615568Y-30726110D02*
G01*
X41115568Y-30726110D01*
X41115568Y-30626110D01*
X41615568Y-30626110D01*
X41615568Y-30726110D01*
G37*
X41615568Y-30726110D02*
X41115568Y-30726110D01*
X41115568Y-30626110D01*
X41615568Y-30626110D01*
X41615568Y-30726110D01*
G36*
X41615568Y-30926110D02*
G01*
X41515568Y-30926110D01*
X41515568Y-30626110D01*
X41615568Y-30626110D01*
X41615568Y-30926110D01*
G37*
X41615568Y-30926110D02*
X41515568Y-30926110D01*
X41515568Y-30626110D01*
X41615568Y-30626110D01*
X41615568Y-30926110D01*
G36*
X41215568Y-31426110D02*
G01*
X41115568Y-31426110D01*
X41115568Y-30626110D01*
X41215568Y-30626110D01*
X41215568Y-31426110D01*
G37*
X41215568Y-31426110D02*
X41115568Y-31426110D01*
X41115568Y-30626110D01*
X41215568Y-30626110D01*
X41215568Y-31426110D01*
D12*
X45574000Y-24746750D02*
X45574000Y-22206750D01*
X30334000Y-27286750D02*
X27794000Y-27286750D01*
X30334000Y-24746750D02*
X30334000Y-27286750D01*
X45574000Y-55226750D02*
X45574000Y-24746750D01*
X27794000Y-22206750D02*
X27794000Y-24746750D01*
X30334000Y-24746750D02*
X27794000Y-24746750D01*
X27794000Y-55226750D02*
X45574000Y-55226750D01*
X27794000Y-24746750D02*
X27794000Y-55226750D01*
X45574000Y-22206750D02*
X27794000Y-22206750D01*
D11*
%TO.C,SW1*%
X61624000Y-34746000D02*
X67624000Y-34746000D01*
X67624000Y-40746000D02*
X61624000Y-40746000D01*
X67624000Y-36246000D02*
X67624000Y-38146000D01*
X61624000Y-34746000D02*
X61624000Y-40746000D01*
X67624000Y-34746000D02*
X67624000Y-40746000D01*
X61624000Y-38096000D02*
X61624000Y-36246000D01*
%TO.C,D18*%
X44708000Y-63234000D02*
X46948000Y-63234000D01*
X46948000Y-63234000D02*
X46948000Y-58994000D01*
X45828000Y-63884000D02*
X45828000Y-63234000D01*
X44708000Y-62634000D02*
X46948000Y-62634000D01*
X44708000Y-58994000D02*
X44708000Y-63234000D01*
X45828000Y-58344000D02*
X45828000Y-58994000D01*
X44708000Y-62514000D02*
X46948000Y-62514000D01*
X46948000Y-58994000D02*
X44708000Y-58994000D01*
X44708000Y-62394000D02*
X46948000Y-62394000D01*
%TO.C,SW17*%
X41050000Y-71830000D02*
X47050000Y-71830000D01*
X47050000Y-71830000D02*
X47050000Y-77830000D01*
X47050000Y-73330000D02*
X47050000Y-75230000D01*
X47050000Y-77830000D02*
X41050000Y-77830000D01*
X41050000Y-71830000D02*
X41050000Y-77830000D01*
X41050000Y-75180000D02*
X41050000Y-73330000D01*
%TO.C,D3*%
X91190000Y-22672000D02*
X91190000Y-26912000D01*
X91190000Y-26312000D02*
X93430000Y-26312000D01*
X91190000Y-26912000D02*
X93430000Y-26912000D01*
X92310000Y-27562000D02*
X92310000Y-26912000D01*
X93430000Y-22672000D02*
X91190000Y-22672000D01*
X92310000Y-22022000D02*
X92310000Y-22672000D01*
X91190000Y-26072000D02*
X93430000Y-26072000D01*
X93430000Y-26912000D02*
X93430000Y-22672000D01*
X91190000Y-26192000D02*
X93430000Y-26192000D01*
%TO.C,D7*%
X89516000Y-28832000D02*
X89516000Y-28182000D01*
X90636000Y-28182000D02*
X90636000Y-23942000D01*
X90636000Y-23942000D02*
X88396000Y-23942000D01*
X89516000Y-23292000D02*
X89516000Y-23942000D01*
X88396000Y-27582000D02*
X90636000Y-27582000D01*
X88396000Y-28182000D02*
X90636000Y-28182000D01*
X88396000Y-27462000D02*
X90636000Y-27462000D01*
X88396000Y-27342000D02*
X90636000Y-27342000D01*
X88396000Y-23942000D02*
X88396000Y-28182000D01*
%TO.C,SW2*%
X78800000Y-34746000D02*
X78800000Y-40746000D01*
X72800000Y-38096000D02*
X72800000Y-36246000D01*
X78800000Y-40746000D02*
X72800000Y-40746000D01*
X78800000Y-36246000D02*
X78800000Y-38146000D01*
X72800000Y-34746000D02*
X72800000Y-40746000D01*
X72800000Y-34746000D02*
X78800000Y-34746000D01*
%TO.C,SW7*%
X89976000Y-48462000D02*
X89976000Y-54462000D01*
X83976000Y-48462000D02*
X89976000Y-48462000D01*
X83976000Y-51812000D02*
X83976000Y-49962000D01*
X89976000Y-54462000D02*
X83976000Y-54462000D01*
X89976000Y-49962000D02*
X89976000Y-51862000D01*
X83976000Y-48462000D02*
X83976000Y-54462000D01*
%TO.C,D12*%
X48518000Y-26482000D02*
X48518000Y-30722000D01*
X48518000Y-29882000D02*
X50758000Y-29882000D01*
X50758000Y-30722000D02*
X50758000Y-26482000D01*
X50758000Y-26482000D02*
X48518000Y-26482000D01*
X49638000Y-25832000D02*
X49638000Y-26482000D01*
X48518000Y-30002000D02*
X50758000Y-30002000D01*
X48518000Y-30722000D02*
X50758000Y-30722000D01*
X49638000Y-31372000D02*
X49638000Y-30722000D01*
X48518000Y-30122000D02*
X50758000Y-30122000D01*
%TO.C,SW16*%
X35620000Y-73330000D02*
X35620000Y-75230000D01*
X29620000Y-71830000D02*
X29620000Y-77830000D01*
X35620000Y-71830000D02*
X35620000Y-77830000D01*
X29620000Y-71830000D02*
X35620000Y-71830000D01*
X35620000Y-77830000D02*
X29620000Y-77830000D01*
X29620000Y-75180000D02*
X29620000Y-73330000D01*
%TO.C,SW4*%
X56380000Y-43876000D02*
X56380000Y-49876000D01*
X50380000Y-43876000D02*
X50380000Y-49876000D01*
X56380000Y-45376000D02*
X56380000Y-47276000D01*
X56380000Y-49876000D02*
X50380000Y-49876000D01*
X50380000Y-47226000D02*
X50380000Y-45376000D01*
X50380000Y-43876000D02*
X56380000Y-43876000D01*
%TO.C,D17*%
X42630000Y-58994000D02*
X40390000Y-58994000D01*
X42630000Y-63234000D02*
X42630000Y-58994000D01*
X41510000Y-58344000D02*
X41510000Y-58994000D01*
X40390000Y-62394000D02*
X42630000Y-62394000D01*
X40390000Y-63234000D02*
X42630000Y-63234000D01*
X40390000Y-62634000D02*
X42630000Y-62634000D01*
X40390000Y-62514000D02*
X42630000Y-62514000D01*
X41510000Y-63884000D02*
X41510000Y-63234000D01*
X40390000Y-58994000D02*
X40390000Y-63234000D01*
%TO.C,SW18*%
X62290000Y-73330000D02*
X62290000Y-75230000D01*
X62290000Y-77830000D02*
X56290000Y-77830000D01*
X62290000Y-71830000D02*
X62290000Y-77830000D01*
X56290000Y-71830000D02*
X62290000Y-71830000D01*
X56290000Y-71830000D02*
X56290000Y-77830000D01*
X56290000Y-75180000D02*
X56290000Y-73330000D01*
%TO.C,SW12*%
X56380000Y-68418000D02*
X50380000Y-68418000D01*
X50380000Y-65768000D02*
X50380000Y-63918000D01*
X50380000Y-62418000D02*
X50380000Y-68418000D01*
X56380000Y-62418000D02*
X56380000Y-68418000D01*
X56380000Y-63918000D02*
X56380000Y-65818000D01*
X50380000Y-62418000D02*
X56380000Y-62418000D01*
%TO.C,D5*%
X65536000Y-27342000D02*
X67776000Y-27342000D01*
X67776000Y-28182000D02*
X67776000Y-23942000D01*
X65536000Y-27582000D02*
X67776000Y-27582000D01*
X65536000Y-27462000D02*
X67776000Y-27462000D01*
X66656000Y-23292000D02*
X66656000Y-23942000D01*
X65536000Y-28182000D02*
X67776000Y-28182000D01*
X65536000Y-23942000D02*
X65536000Y-28182000D01*
X67776000Y-23942000D02*
X65536000Y-23942000D01*
X66656000Y-28832000D02*
X66656000Y-28182000D01*
%TO.C,SW8*%
X56380000Y-53020000D02*
X56380000Y-59020000D01*
X50380000Y-53020000D02*
X56380000Y-53020000D01*
X50380000Y-56370000D02*
X50380000Y-54520000D01*
X50380000Y-53020000D02*
X50380000Y-59020000D01*
X56380000Y-54520000D02*
X56380000Y-56420000D01*
X56380000Y-59020000D02*
X50380000Y-59020000D01*
%TO.C,SW10*%
X72800000Y-53034000D02*
X78800000Y-53034000D01*
X78800000Y-59034000D02*
X72800000Y-59034000D01*
X78800000Y-53034000D02*
X78800000Y-59034000D01*
X72800000Y-53034000D02*
X72800000Y-59034000D01*
X72800000Y-56384000D02*
X72800000Y-54534000D01*
X78800000Y-54534000D02*
X78800000Y-56434000D01*
%TO.C,D4*%
X56346000Y-23942000D02*
X54106000Y-23942000D01*
X55226000Y-23292000D02*
X55226000Y-23942000D01*
X54106000Y-27462000D02*
X56346000Y-27462000D01*
X56346000Y-28182000D02*
X56346000Y-23942000D01*
X54106000Y-27342000D02*
X56346000Y-27342000D01*
X54106000Y-23942000D02*
X54106000Y-28182000D01*
X55226000Y-28832000D02*
X55226000Y-28182000D01*
X54106000Y-28182000D02*
X56346000Y-28182000D01*
X54106000Y-27582000D02*
X56346000Y-27582000D01*
%TO.C,D6*%
X76966000Y-27582000D02*
X79206000Y-27582000D01*
X76966000Y-27342000D02*
X79206000Y-27342000D01*
X76966000Y-28182000D02*
X79206000Y-28182000D01*
X78086000Y-28832000D02*
X78086000Y-28182000D01*
X79206000Y-23942000D02*
X76966000Y-23942000D01*
X78086000Y-23292000D02*
X78086000Y-23942000D01*
X79206000Y-28182000D02*
X79206000Y-23942000D01*
X76966000Y-27462000D02*
X79206000Y-27462000D01*
X76966000Y-23942000D02*
X76966000Y-28182000D01*
%TO.C,D15*%
X82808000Y-29882000D02*
X85048000Y-29882000D01*
X85048000Y-30722000D02*
X85048000Y-26482000D01*
X82808000Y-30002000D02*
X85048000Y-30002000D01*
X83928000Y-25832000D02*
X83928000Y-26482000D01*
X82808000Y-26482000D02*
X82808000Y-30722000D01*
X83928000Y-31372000D02*
X83928000Y-30722000D01*
X82808000Y-30122000D02*
X85048000Y-30122000D01*
X85048000Y-26482000D02*
X82808000Y-26482000D01*
X82808000Y-30722000D02*
X85048000Y-30722000D01*
%TO.C,SW3*%
X90230000Y-34746000D02*
X90230000Y-40746000D01*
X84230000Y-38096000D02*
X84230000Y-36246000D01*
X84230000Y-34746000D02*
X84230000Y-40746000D01*
X90230000Y-36246000D02*
X90230000Y-38146000D01*
X90230000Y-40746000D02*
X84230000Y-40746000D01*
X84230000Y-34746000D02*
X90230000Y-34746000D01*
%TO.C,D11*%
X85602000Y-29452000D02*
X87842000Y-29452000D01*
X86722000Y-24562000D02*
X86722000Y-25212000D01*
X86722000Y-30102000D02*
X86722000Y-29452000D01*
X85602000Y-25212000D02*
X85602000Y-29452000D01*
X87842000Y-29452000D02*
X87842000Y-25212000D01*
X85602000Y-28852000D02*
X87842000Y-28852000D01*
X85602000Y-28612000D02*
X87842000Y-28612000D01*
X87842000Y-25212000D02*
X85602000Y-25212000D01*
X85602000Y-28732000D02*
X87842000Y-28732000D01*
%TO.C,SW0*%
X56380000Y-36232000D02*
X56380000Y-38132000D01*
X50380000Y-34732000D02*
X50380000Y-40732000D01*
X50380000Y-38082000D02*
X50380000Y-36232000D01*
X56380000Y-40732000D02*
X50380000Y-40732000D01*
X56380000Y-34732000D02*
X56380000Y-40732000D01*
X50380000Y-34732000D02*
X56380000Y-34732000D01*
%TO.C,SW5*%
X61624000Y-47240000D02*
X61624000Y-45390000D01*
X67624000Y-43890000D02*
X67624000Y-49890000D01*
X61624000Y-43890000D02*
X61624000Y-49890000D01*
X67624000Y-45390000D02*
X67624000Y-47290000D01*
X61624000Y-43890000D02*
X67624000Y-43890000D01*
X67624000Y-49890000D02*
X61624000Y-49890000D01*
%TO.C,SW6*%
X78800000Y-45390000D02*
X78800000Y-47290000D01*
X72800000Y-43890000D02*
X72800000Y-49890000D01*
X78800000Y-43890000D02*
X78800000Y-49890000D01*
X72800000Y-47240000D02*
X72800000Y-45390000D01*
X78800000Y-49890000D02*
X72800000Y-49890000D01*
X72800000Y-43890000D02*
X78800000Y-43890000D01*
%TO.C,SW15*%
X72800000Y-71830000D02*
X72800000Y-77830000D01*
X78800000Y-77830000D02*
X72800000Y-77830000D01*
X78800000Y-73330000D02*
X78800000Y-75230000D01*
X72800000Y-71830000D02*
X78800000Y-71830000D01*
X72800000Y-75180000D02*
X72800000Y-73330000D01*
X78800000Y-71830000D02*
X78800000Y-77830000D01*
%TO.C,SW9*%
X61624000Y-56384000D02*
X61624000Y-54534000D01*
X61624000Y-53034000D02*
X67624000Y-53034000D01*
X61624000Y-53034000D02*
X61624000Y-59034000D01*
X67624000Y-54534000D02*
X67624000Y-56434000D01*
X67624000Y-59034000D02*
X61624000Y-59034000D01*
X67624000Y-53034000D02*
X67624000Y-59034000D01*
%TO.C,D9*%
X62742000Y-29452000D02*
X64982000Y-29452000D01*
X63862000Y-24562000D02*
X63862000Y-25212000D01*
X62742000Y-25212000D02*
X62742000Y-29452000D01*
X64982000Y-25212000D02*
X62742000Y-25212000D01*
X62742000Y-28612000D02*
X64982000Y-28612000D01*
X64982000Y-29452000D02*
X64982000Y-25212000D01*
X63862000Y-30102000D02*
X63862000Y-29452000D01*
X62742000Y-28852000D02*
X64982000Y-28852000D01*
X62742000Y-28732000D02*
X64982000Y-28732000D01*
%TO.C,SW13*%
X67624000Y-62432000D02*
X67624000Y-68432000D01*
X61624000Y-62432000D02*
X61624000Y-68432000D01*
X61624000Y-62432000D02*
X67624000Y-62432000D01*
X61624000Y-65782000D02*
X61624000Y-63932000D01*
X67624000Y-63932000D02*
X67624000Y-65832000D01*
X67624000Y-68432000D02*
X61624000Y-68432000D01*
%TO.C,D14*%
X71378000Y-30722000D02*
X73618000Y-30722000D01*
X73618000Y-26482000D02*
X71378000Y-26482000D01*
X72498000Y-25832000D02*
X72498000Y-26482000D01*
X71378000Y-30122000D02*
X73618000Y-30122000D01*
X72498000Y-31372000D02*
X72498000Y-30722000D01*
X71378000Y-26482000D02*
X71378000Y-30722000D01*
X73618000Y-30722000D02*
X73618000Y-26482000D01*
X71378000Y-29882000D02*
X73618000Y-29882000D01*
X71378000Y-30002000D02*
X73618000Y-30002000D01*
%TO.C,D1*%
X69450000Y-22022000D02*
X69450000Y-22672000D01*
X68330000Y-26312000D02*
X70570000Y-26312000D01*
X68330000Y-22672000D02*
X68330000Y-26912000D01*
X69450000Y-27562000D02*
X69450000Y-26912000D01*
X68330000Y-26192000D02*
X70570000Y-26192000D01*
X68330000Y-26072000D02*
X70570000Y-26072000D01*
X70570000Y-26912000D02*
X70570000Y-22672000D01*
X70570000Y-22672000D02*
X68330000Y-22672000D01*
X68330000Y-26912000D02*
X70570000Y-26912000D01*
%TD*%
D13*
%TO.C,MCU1*%
X41764000Y-53956750D03*
X39224000Y-53956750D03*
X36684000Y-53956750D03*
X34144000Y-53956750D03*
X31604000Y-53956750D03*
X44304000Y-26016750D03*
X44304000Y-28556750D03*
X44304000Y-31096750D03*
X44304000Y-33636750D03*
X44304000Y-36176750D03*
X44304000Y-38716750D03*
X44304000Y-41256750D03*
X44304000Y-43796750D03*
X44304000Y-46336750D03*
X44304000Y-48876750D03*
X44304000Y-51416750D03*
X44304000Y-53956750D03*
X29292600Y-53956750D03*
X29064000Y-51416750D03*
X29064000Y-48876750D03*
X29064000Y-46336750D03*
X29064000Y-43796750D03*
X29064000Y-41256750D03*
X29064000Y-38716750D03*
X29064000Y-36176750D03*
X29064000Y-33636750D03*
X29064000Y-31096750D03*
X29064000Y-28556750D03*
D14*
X29064000Y-26016750D03*
%TD*%
M02*
