%TF.GenerationSoftware,KiCad,Pcbnew,(6.0.9)*%
%TF.CreationDate,2022-12-01T16:54:59+00:00*%
%TF.ProjectId,PocketPad,506f636b-6574-4506-9164-2e6b69636164,rev?*%
%TF.SameCoordinates,Original*%
%TF.FileFunction,Legend,Top*%
%TF.FilePolarity,Positive*%
%FSLAX46Y46*%
G04 Gerber Fmt 4.6, Leading zero omitted, Abs format (unit mm)*
G04 Created by KiCad (PCBNEW (6.0.9)) date 2022-12-01 16:54:59*
%MOMM*%
%LPD*%
G01*
G04 APERTURE LIST*
%ADD10C,0.150000*%
%ADD11C,0.203200*%
%ADD12C,0.120000*%
%ADD13C,0.381000*%
%ADD14R,1.752600X1.752600*%
%ADD15C,1.752600*%
%ADD16O,2.159000X1.905000*%
%ADD17R,2.159000X1.905000*%
G04 APERTURE END LIST*
D10*
%TO.C,SW2*%
X74358666Y-37750761D02*
X74501523Y-37798380D01*
X74739619Y-37798380D01*
X74834857Y-37750761D01*
X74882476Y-37703142D01*
X74930095Y-37607904D01*
X74930095Y-37512666D01*
X74882476Y-37417428D01*
X74834857Y-37369809D01*
X74739619Y-37322190D01*
X74549142Y-37274571D01*
X74453904Y-37226952D01*
X74406285Y-37179333D01*
X74358666Y-37084095D01*
X74358666Y-36988857D01*
X74406285Y-36893619D01*
X74453904Y-36846000D01*
X74549142Y-36798380D01*
X74787238Y-36798380D01*
X74930095Y-36846000D01*
X75263428Y-36798380D02*
X75501523Y-37798380D01*
X75692000Y-37084095D01*
X75882476Y-37798380D01*
X76120571Y-36798380D01*
X76453904Y-36893619D02*
X76501523Y-36846000D01*
X76596761Y-36798380D01*
X76834857Y-36798380D01*
X76930095Y-36846000D01*
X76977714Y-36893619D01*
X77025333Y-36988857D01*
X77025333Y-37084095D01*
X76977714Y-37226952D01*
X76406285Y-37798380D01*
X77025333Y-37798380D01*
%TO.C,SW7*%
X85788666Y-51466761D02*
X85931523Y-51514380D01*
X86169619Y-51514380D01*
X86264857Y-51466761D01*
X86312476Y-51419142D01*
X86360095Y-51323904D01*
X86360095Y-51228666D01*
X86312476Y-51133428D01*
X86264857Y-51085809D01*
X86169619Y-51038190D01*
X85979142Y-50990571D01*
X85883904Y-50942952D01*
X85836285Y-50895333D01*
X85788666Y-50800095D01*
X85788666Y-50704857D01*
X85836285Y-50609619D01*
X85883904Y-50562000D01*
X85979142Y-50514380D01*
X86217238Y-50514380D01*
X86360095Y-50562000D01*
X86693428Y-50514380D02*
X86931523Y-51514380D01*
X87122000Y-50800095D01*
X87312476Y-51514380D01*
X87550571Y-50514380D01*
X87836285Y-50514380D02*
X88502952Y-50514380D01*
X88074380Y-51514380D01*
%TO.C,SW3*%
X85788666Y-37750761D02*
X85931523Y-37798380D01*
X86169619Y-37798380D01*
X86264857Y-37750761D01*
X86312476Y-37703142D01*
X86360095Y-37607904D01*
X86360095Y-37512666D01*
X86312476Y-37417428D01*
X86264857Y-37369809D01*
X86169619Y-37322190D01*
X85979142Y-37274571D01*
X85883904Y-37226952D01*
X85836285Y-37179333D01*
X85788666Y-37084095D01*
X85788666Y-36988857D01*
X85836285Y-36893619D01*
X85883904Y-36846000D01*
X85979142Y-36798380D01*
X86217238Y-36798380D01*
X86360095Y-36846000D01*
X86693428Y-36798380D02*
X86931523Y-37798380D01*
X87122000Y-37084095D01*
X87312476Y-37798380D01*
X87550571Y-36798380D01*
X87836285Y-36798380D02*
X88455333Y-36798380D01*
X88122000Y-37179333D01*
X88264857Y-37179333D01*
X88360095Y-37226952D01*
X88407714Y-37274571D01*
X88455333Y-37369809D01*
X88455333Y-37607904D01*
X88407714Y-37703142D01*
X88360095Y-37750761D01*
X88264857Y-37798380D01*
X87979142Y-37798380D01*
X87883904Y-37750761D01*
X87836285Y-37703142D01*
%TO.C,SW16*%
X41370476Y-74580761D02*
X41513333Y-74628380D01*
X41751428Y-74628380D01*
X41846666Y-74580761D01*
X41894285Y-74533142D01*
X41941904Y-74437904D01*
X41941904Y-74342666D01*
X41894285Y-74247428D01*
X41846666Y-74199809D01*
X41751428Y-74152190D01*
X41560952Y-74104571D01*
X41465714Y-74056952D01*
X41418095Y-74009333D01*
X41370476Y-73914095D01*
X41370476Y-73818857D01*
X41418095Y-73723619D01*
X41465714Y-73676000D01*
X41560952Y-73628380D01*
X41799047Y-73628380D01*
X41941904Y-73676000D01*
X42275238Y-73628380D02*
X42513333Y-74628380D01*
X42703809Y-73914095D01*
X42894285Y-74628380D01*
X43132380Y-73628380D01*
X44037142Y-74628380D02*
X43465714Y-74628380D01*
X43751428Y-74628380D02*
X43751428Y-73628380D01*
X43656190Y-73771238D01*
X43560952Y-73866476D01*
X43465714Y-73914095D01*
X44894285Y-73628380D02*
X44703809Y-73628380D01*
X44608571Y-73676000D01*
X44560952Y-73723619D01*
X44465714Y-73866476D01*
X44418095Y-74056952D01*
X44418095Y-74437904D01*
X44465714Y-74533142D01*
X44513333Y-74580761D01*
X44608571Y-74628380D01*
X44799047Y-74628380D01*
X44894285Y-74580761D01*
X44941904Y-74533142D01*
X44989523Y-74437904D01*
X44989523Y-74199809D01*
X44941904Y-74104571D01*
X44894285Y-74056952D01*
X44799047Y-74009333D01*
X44608571Y-74009333D01*
X44513333Y-74056952D01*
X44465714Y-74104571D01*
X44418095Y-74199809D01*
%TO.C,SW17*%
X57372476Y-74834761D02*
X57515333Y-74882380D01*
X57753428Y-74882380D01*
X57848666Y-74834761D01*
X57896285Y-74787142D01*
X57943904Y-74691904D01*
X57943904Y-74596666D01*
X57896285Y-74501428D01*
X57848666Y-74453809D01*
X57753428Y-74406190D01*
X57562952Y-74358571D01*
X57467714Y-74310952D01*
X57420095Y-74263333D01*
X57372476Y-74168095D01*
X57372476Y-74072857D01*
X57420095Y-73977619D01*
X57467714Y-73930000D01*
X57562952Y-73882380D01*
X57801047Y-73882380D01*
X57943904Y-73930000D01*
X58277238Y-73882380D02*
X58515333Y-74882380D01*
X58705809Y-74168095D01*
X58896285Y-74882380D01*
X59134380Y-73882380D01*
X60039142Y-74882380D02*
X59467714Y-74882380D01*
X59753428Y-74882380D02*
X59753428Y-73882380D01*
X59658190Y-74025238D01*
X59562952Y-74120476D01*
X59467714Y-74168095D01*
X60372476Y-73882380D02*
X61039142Y-73882380D01*
X60610571Y-74882380D01*
%TO.C,SW8*%
X52006666Y-56038761D02*
X52149523Y-56086380D01*
X52387619Y-56086380D01*
X52482857Y-56038761D01*
X52530476Y-55991142D01*
X52578095Y-55895904D01*
X52578095Y-55800666D01*
X52530476Y-55705428D01*
X52482857Y-55657809D01*
X52387619Y-55610190D01*
X52197142Y-55562571D01*
X52101904Y-55514952D01*
X52054285Y-55467333D01*
X52006666Y-55372095D01*
X52006666Y-55276857D01*
X52054285Y-55181619D01*
X52101904Y-55134000D01*
X52197142Y-55086380D01*
X52435238Y-55086380D01*
X52578095Y-55134000D01*
X52911428Y-55086380D02*
X53149523Y-56086380D01*
X53340000Y-55372095D01*
X53530476Y-56086380D01*
X53768571Y-55086380D01*
X54292380Y-55514952D02*
X54197142Y-55467333D01*
X54149523Y-55419714D01*
X54101904Y-55324476D01*
X54101904Y-55276857D01*
X54149523Y-55181619D01*
X54197142Y-55134000D01*
X54292380Y-55086380D01*
X54482857Y-55086380D01*
X54578095Y-55134000D01*
X54625714Y-55181619D01*
X54673333Y-55276857D01*
X54673333Y-55324476D01*
X54625714Y-55419714D01*
X54578095Y-55467333D01*
X54482857Y-55514952D01*
X54292380Y-55514952D01*
X54197142Y-55562571D01*
X54149523Y-55610190D01*
X54101904Y-55705428D01*
X54101904Y-55895904D01*
X54149523Y-55991142D01*
X54197142Y-56038761D01*
X54292380Y-56086380D01*
X54482857Y-56086380D01*
X54578095Y-56038761D01*
X54625714Y-55991142D01*
X54673333Y-55895904D01*
X54673333Y-55705428D01*
X54625714Y-55610190D01*
X54578095Y-55562571D01*
X54482857Y-55514952D01*
%TO.C,D16*%
X41600380Y-62428285D02*
X40600380Y-62428285D01*
X40600380Y-62190190D01*
X40648000Y-62047333D01*
X40743238Y-61952095D01*
X40838476Y-61904476D01*
X41028952Y-61856857D01*
X41171809Y-61856857D01*
X41362285Y-61904476D01*
X41457523Y-61952095D01*
X41552761Y-62047333D01*
X41600380Y-62190190D01*
X41600380Y-62428285D01*
X41600380Y-60904476D02*
X41600380Y-61475904D01*
X41600380Y-61190190D02*
X40600380Y-61190190D01*
X40743238Y-61285428D01*
X40838476Y-61380666D01*
X40886095Y-61475904D01*
X40600380Y-60047333D02*
X40600380Y-60237809D01*
X40648000Y-60333047D01*
X40695619Y-60380666D01*
X40838476Y-60475904D01*
X41028952Y-60523523D01*
X41409904Y-60523523D01*
X41505142Y-60475904D01*
X41552761Y-60428285D01*
X41600380Y-60333047D01*
X41600380Y-60142571D01*
X41552761Y-60047333D01*
X41505142Y-59999714D01*
X41409904Y-59952095D01*
X41171809Y-59952095D01*
X41076571Y-59999714D01*
X41028952Y-60047333D01*
X40981333Y-60142571D01*
X40981333Y-60333047D01*
X41028952Y-60428285D01*
X41076571Y-60475904D01*
X41171809Y-60523523D01*
%TO.C,D1*%
X61412380Y-28678095D02*
X60412380Y-28678095D01*
X60412380Y-28440000D01*
X60460000Y-28297142D01*
X60555238Y-28201904D01*
X60650476Y-28154285D01*
X60840952Y-28106666D01*
X60983809Y-28106666D01*
X61174285Y-28154285D01*
X61269523Y-28201904D01*
X61364761Y-28297142D01*
X61412380Y-28440000D01*
X61412380Y-28678095D01*
X61412380Y-27154285D02*
X61412380Y-27725714D01*
X61412380Y-27440000D02*
X60412380Y-27440000D01*
X60555238Y-27535238D01*
X60650476Y-27630476D01*
X60698095Y-27725714D01*
%TO.C,D5*%
X64206380Y-27408095D02*
X63206380Y-27408095D01*
X63206380Y-27170000D01*
X63254000Y-27027142D01*
X63349238Y-26931904D01*
X63444476Y-26884285D01*
X63634952Y-26836666D01*
X63777809Y-26836666D01*
X63968285Y-26884285D01*
X64063523Y-26931904D01*
X64158761Y-27027142D01*
X64206380Y-27170000D01*
X64206380Y-27408095D01*
X63206380Y-25931904D02*
X63206380Y-26408095D01*
X63682571Y-26455714D01*
X63634952Y-26408095D01*
X63587333Y-26312857D01*
X63587333Y-26074761D01*
X63634952Y-25979523D01*
X63682571Y-25931904D01*
X63777809Y-25884285D01*
X64015904Y-25884285D01*
X64111142Y-25931904D01*
X64158761Y-25979523D01*
X64206380Y-26074761D01*
X64206380Y-26312857D01*
X64158761Y-26408095D01*
X64111142Y-26455714D01*
%TO.C,D13*%
X69794380Y-25598285D02*
X68794380Y-25598285D01*
X68794380Y-25360190D01*
X68842000Y-25217333D01*
X68937238Y-25122095D01*
X69032476Y-25074476D01*
X69222952Y-25026857D01*
X69365809Y-25026857D01*
X69556285Y-25074476D01*
X69651523Y-25122095D01*
X69746761Y-25217333D01*
X69794380Y-25360190D01*
X69794380Y-25598285D01*
X69794380Y-24074476D02*
X69794380Y-24645904D01*
X69794380Y-24360190D02*
X68794380Y-24360190D01*
X68937238Y-24455428D01*
X69032476Y-24550666D01*
X69080095Y-24645904D01*
X68794380Y-23741142D02*
X68794380Y-23122095D01*
X69175333Y-23455428D01*
X69175333Y-23312571D01*
X69222952Y-23217333D01*
X69270571Y-23169714D01*
X69365809Y-23122095D01*
X69603904Y-23122095D01*
X69699142Y-23169714D01*
X69746761Y-23217333D01*
X69794380Y-23312571D01*
X69794380Y-23598285D01*
X69746761Y-23693523D01*
X69699142Y-23741142D01*
%TO.C,SW13*%
X62706476Y-65436761D02*
X62849333Y-65484380D01*
X63087428Y-65484380D01*
X63182666Y-65436761D01*
X63230285Y-65389142D01*
X63277904Y-65293904D01*
X63277904Y-65198666D01*
X63230285Y-65103428D01*
X63182666Y-65055809D01*
X63087428Y-65008190D01*
X62896952Y-64960571D01*
X62801714Y-64912952D01*
X62754095Y-64865333D01*
X62706476Y-64770095D01*
X62706476Y-64674857D01*
X62754095Y-64579619D01*
X62801714Y-64532000D01*
X62896952Y-64484380D01*
X63135047Y-64484380D01*
X63277904Y-64532000D01*
X63611238Y-64484380D02*
X63849333Y-65484380D01*
X64039809Y-64770095D01*
X64230285Y-65484380D01*
X64468380Y-64484380D01*
X65373142Y-65484380D02*
X64801714Y-65484380D01*
X65087428Y-65484380D02*
X65087428Y-64484380D01*
X64992190Y-64627238D01*
X64896952Y-64722476D01*
X64801714Y-64770095D01*
X65706476Y-64484380D02*
X66325523Y-64484380D01*
X65992190Y-64865333D01*
X66135047Y-64865333D01*
X66230285Y-64912952D01*
X66277904Y-64960571D01*
X66325523Y-65055809D01*
X66325523Y-65293904D01*
X66277904Y-65389142D01*
X66230285Y-65436761D01*
X66135047Y-65484380D01*
X65849333Y-65484380D01*
X65754095Y-65436761D01*
X65706476Y-65389142D01*
%TO.C,SW14*%
X73882476Y-65436761D02*
X74025333Y-65484380D01*
X74263428Y-65484380D01*
X74358666Y-65436761D01*
X74406285Y-65389142D01*
X74453904Y-65293904D01*
X74453904Y-65198666D01*
X74406285Y-65103428D01*
X74358666Y-65055809D01*
X74263428Y-65008190D01*
X74072952Y-64960571D01*
X73977714Y-64912952D01*
X73930095Y-64865333D01*
X73882476Y-64770095D01*
X73882476Y-64674857D01*
X73930095Y-64579619D01*
X73977714Y-64532000D01*
X74072952Y-64484380D01*
X74311047Y-64484380D01*
X74453904Y-64532000D01*
X74787238Y-64484380D02*
X75025333Y-65484380D01*
X75215809Y-64770095D01*
X75406285Y-65484380D01*
X75644380Y-64484380D01*
X76549142Y-65484380D02*
X75977714Y-65484380D01*
X76263428Y-65484380D02*
X76263428Y-64484380D01*
X76168190Y-64627238D01*
X76072952Y-64722476D01*
X75977714Y-64770095D01*
X77406285Y-64817714D02*
X77406285Y-65484380D01*
X77168190Y-64436761D02*
X76930095Y-65151047D01*
X77549142Y-65151047D01*
%TO.C,SW6*%
X74358666Y-46894761D02*
X74501523Y-46942380D01*
X74739619Y-46942380D01*
X74834857Y-46894761D01*
X74882476Y-46847142D01*
X74930095Y-46751904D01*
X74930095Y-46656666D01*
X74882476Y-46561428D01*
X74834857Y-46513809D01*
X74739619Y-46466190D01*
X74549142Y-46418571D01*
X74453904Y-46370952D01*
X74406285Y-46323333D01*
X74358666Y-46228095D01*
X74358666Y-46132857D01*
X74406285Y-46037619D01*
X74453904Y-45990000D01*
X74549142Y-45942380D01*
X74787238Y-45942380D01*
X74930095Y-45990000D01*
X75263428Y-45942380D02*
X75501523Y-46942380D01*
X75692000Y-46228095D01*
X75882476Y-46942380D01*
X76120571Y-45942380D01*
X76930095Y-45942380D02*
X76739619Y-45942380D01*
X76644380Y-45990000D01*
X76596761Y-46037619D01*
X76501523Y-46180476D01*
X76453904Y-46370952D01*
X76453904Y-46751904D01*
X76501523Y-46847142D01*
X76549142Y-46894761D01*
X76644380Y-46942380D01*
X76834857Y-46942380D01*
X76930095Y-46894761D01*
X76977714Y-46847142D01*
X77025333Y-46751904D01*
X77025333Y-46513809D01*
X76977714Y-46418571D01*
X76930095Y-46370952D01*
X76834857Y-46323333D01*
X76644380Y-46323333D01*
X76549142Y-46370952D01*
X76501523Y-46418571D01*
X76453904Y-46513809D01*
%TO.C,D4*%
X53030380Y-27662095D02*
X52030380Y-27662095D01*
X52030380Y-27424000D01*
X52078000Y-27281142D01*
X52173238Y-27185904D01*
X52268476Y-27138285D01*
X52458952Y-27090666D01*
X52601809Y-27090666D01*
X52792285Y-27138285D01*
X52887523Y-27185904D01*
X52982761Y-27281142D01*
X53030380Y-27424000D01*
X53030380Y-27662095D01*
X52363714Y-26233523D02*
X53030380Y-26233523D01*
X51982761Y-26471619D02*
X52697047Y-26709714D01*
X52697047Y-26090666D01*
%TO.C,MCU1*%
X30613476Y-30696750D02*
X30537285Y-30658654D01*
X30423000Y-30658654D01*
X30308714Y-30696750D01*
X30232523Y-30772940D01*
X30194428Y-30849130D01*
X30156333Y-31001511D01*
X30156333Y-31115797D01*
X30194428Y-31268178D01*
X30232523Y-31344369D01*
X30308714Y-31420559D01*
X30423000Y-31458654D01*
X30499190Y-31458654D01*
X30613476Y-31420559D01*
X30651571Y-31382464D01*
X30651571Y-31115797D01*
X30499190Y-31115797D01*
X30994428Y-31458654D02*
X30994428Y-30658654D01*
X31451571Y-31458654D01*
X31451571Y-30658654D01*
X31832523Y-31458654D02*
X31832523Y-30658654D01*
X32023000Y-30658654D01*
X32137285Y-30696750D01*
X32213476Y-30772940D01*
X32251571Y-30849130D01*
X32289666Y-31001511D01*
X32289666Y-31115797D01*
X32251571Y-31268178D01*
X32213476Y-31344369D01*
X32137285Y-31420559D01*
X32023000Y-31458654D01*
X31832523Y-31458654D01*
X41122666Y-31565809D02*
X41236952Y-31603904D01*
X41427428Y-31603904D01*
X41503619Y-31565809D01*
X41541714Y-31527714D01*
X41579809Y-31451523D01*
X41579809Y-31375333D01*
X41541714Y-31299142D01*
X41503619Y-31261047D01*
X41427428Y-31222952D01*
X41275047Y-31184857D01*
X41198857Y-31146761D01*
X41160761Y-31108666D01*
X41122666Y-31032476D01*
X41122666Y-30956285D01*
X41160761Y-30880095D01*
X41198857Y-30842000D01*
X41275047Y-30803904D01*
X41465523Y-30803904D01*
X41579809Y-30842000D01*
X41808380Y-30803904D02*
X42265523Y-30803904D01*
X42036952Y-31603904D02*
X42036952Y-30803904D01*
X41535476Y-28156750D02*
X41459285Y-28118654D01*
X41345000Y-28118654D01*
X41230714Y-28156750D01*
X41154523Y-28232940D01*
X41116428Y-28309130D01*
X41078333Y-28461511D01*
X41078333Y-28575797D01*
X41116428Y-28728178D01*
X41154523Y-28804369D01*
X41230714Y-28880559D01*
X41345000Y-28918654D01*
X41421190Y-28918654D01*
X41535476Y-28880559D01*
X41573571Y-28842464D01*
X41573571Y-28575797D01*
X41421190Y-28575797D01*
X41916428Y-28918654D02*
X41916428Y-28118654D01*
X42373571Y-28918654D01*
X42373571Y-28118654D01*
X42754523Y-28918654D02*
X42754523Y-28118654D01*
X42945000Y-28118654D01*
X43059285Y-28156750D01*
X43135476Y-28232940D01*
X43173571Y-28309130D01*
X43211666Y-28461511D01*
X43211666Y-28575797D01*
X43173571Y-28728178D01*
X43135476Y-28804369D01*
X43059285Y-28880559D01*
X42945000Y-28918654D01*
X42754523Y-28918654D01*
X30448991Y-52922452D02*
X30401851Y-52828171D01*
X30401851Y-52781030D01*
X30425421Y-52710320D01*
X30496132Y-52639609D01*
X30566842Y-52616039D01*
X30613983Y-52616039D01*
X30684693Y-52639609D01*
X30873255Y-52828171D01*
X30378280Y-53323146D01*
X30213289Y-53158154D01*
X30189719Y-53087443D01*
X30189719Y-53040303D01*
X30213289Y-52969592D01*
X30260429Y-52922452D01*
X30331140Y-52898882D01*
X30378280Y-52898882D01*
X30448991Y-52922452D01*
X30613983Y-53087443D01*
X29647603Y-52592469D02*
X29883306Y-52828171D01*
X30142578Y-52616039D01*
X30095438Y-52616039D01*
X30024727Y-52592469D01*
X29906876Y-52474617D01*
X29883306Y-52403907D01*
X29883306Y-52356766D01*
X29906876Y-52286056D01*
X30024727Y-52168205D01*
X30095438Y-52144634D01*
X30142578Y-52144634D01*
X30213289Y-52168205D01*
X30331140Y-52286056D01*
X30354710Y-52356766D01*
X30354710Y-52403907D01*
X41821190Y-25959607D02*
X41935476Y-25997702D01*
X41973571Y-26035797D01*
X42011666Y-26111988D01*
X42011666Y-26226273D01*
X41973571Y-26302464D01*
X41935476Y-26340559D01*
X41859285Y-26378654D01*
X41554523Y-26378654D01*
X41554523Y-25578654D01*
X41821190Y-25578654D01*
X41897380Y-25616750D01*
X41935476Y-25654845D01*
X41973571Y-25731035D01*
X41973571Y-25807226D01*
X41935476Y-25883416D01*
X41897380Y-25921511D01*
X41821190Y-25959607D01*
X41554523Y-25959607D01*
X42506904Y-25578654D02*
X42583095Y-25578654D01*
X42659285Y-25616750D01*
X42697380Y-25654845D01*
X42735476Y-25731035D01*
X42773571Y-25883416D01*
X42773571Y-26073892D01*
X42735476Y-26226273D01*
X42697380Y-26302464D01*
X42659285Y-26340559D01*
X42583095Y-26378654D01*
X42506904Y-26378654D01*
X42430714Y-26340559D01*
X42392619Y-26302464D01*
X42354523Y-26226273D01*
X42316428Y-26073892D01*
X42316428Y-25883416D01*
X42354523Y-25731035D01*
X42392619Y-25654845D01*
X42430714Y-25616750D01*
X42506904Y-25578654D01*
X30921651Y-25578654D02*
X31378794Y-25578654D01*
X31150223Y-26378654D02*
X31150223Y-25578654D01*
X31569270Y-25578654D02*
X32102604Y-26378654D01*
X32102604Y-25578654D02*
X31569270Y-26378654D01*
X32559747Y-25578654D02*
X32635937Y-25578654D01*
X32712128Y-25616750D01*
X32750223Y-25654845D01*
X32788318Y-25731035D01*
X32826413Y-25883416D01*
X32826413Y-26073892D01*
X32788318Y-26226273D01*
X32750223Y-26302464D01*
X32712128Y-26340559D01*
X32635937Y-26378654D01*
X32559747Y-26378654D01*
X32483556Y-26340559D01*
X32445461Y-26302464D01*
X32407366Y-26226273D01*
X32369270Y-26073892D01*
X32369270Y-25883416D01*
X32407366Y-25731035D01*
X32445461Y-25654845D01*
X32483556Y-25616750D01*
X32559747Y-25578654D01*
X33740699Y-25540559D02*
X33054985Y-26569130D01*
X34007366Y-26378654D02*
X34007366Y-25578654D01*
X34197842Y-25578654D01*
X34312128Y-25616750D01*
X34388318Y-25692940D01*
X34426413Y-25769130D01*
X34464508Y-25921511D01*
X34464508Y-26035797D01*
X34426413Y-26188178D01*
X34388318Y-26264369D01*
X34312128Y-26340559D01*
X34197842Y-26378654D01*
X34007366Y-26378654D01*
X34731175Y-25578654D02*
X35226413Y-25578654D01*
X34959747Y-25883416D01*
X35074032Y-25883416D01*
X35150223Y-25921511D01*
X35188318Y-25959607D01*
X35226413Y-26035797D01*
X35226413Y-26226273D01*
X35188318Y-26302464D01*
X35150223Y-26340559D01*
X35074032Y-26378654D01*
X34845461Y-26378654D01*
X34769270Y-26340559D01*
X34731175Y-26302464D01*
X41878333Y-41199607D02*
X41611666Y-41199607D01*
X41611666Y-41618654D02*
X41611666Y-40818654D01*
X41992619Y-40818654D01*
X42640238Y-40818654D02*
X42487857Y-40818654D01*
X42411666Y-40856750D01*
X42373571Y-40894845D01*
X42297380Y-41009130D01*
X42259285Y-41161511D01*
X42259285Y-41466273D01*
X42297380Y-41542464D01*
X42335476Y-41580559D01*
X42411666Y-41618654D01*
X42564047Y-41618654D01*
X42640238Y-41580559D01*
X42678333Y-41542464D01*
X42716428Y-41466273D01*
X42716428Y-41275797D01*
X42678333Y-41199607D01*
X42640238Y-41161511D01*
X42564047Y-41123416D01*
X42411666Y-41123416D01*
X42335476Y-41161511D01*
X42297380Y-41199607D01*
X42259285Y-41275797D01*
X41821190Y-46279607D02*
X41935476Y-46317702D01*
X41973571Y-46355797D01*
X42011666Y-46431988D01*
X42011666Y-46546273D01*
X41973571Y-46622464D01*
X41935476Y-46660559D01*
X41859285Y-46698654D01*
X41554523Y-46698654D01*
X41554523Y-45898654D01*
X41821190Y-45898654D01*
X41897380Y-45936750D01*
X41935476Y-45974845D01*
X41973571Y-46051035D01*
X41973571Y-46127226D01*
X41935476Y-46203416D01*
X41897380Y-46241511D01*
X41821190Y-46279607D01*
X41554523Y-46279607D01*
X42773571Y-46698654D02*
X42316428Y-46698654D01*
X42545000Y-46698654D02*
X42545000Y-45898654D01*
X42468809Y-46012940D01*
X42392619Y-46089130D01*
X42316428Y-46127226D01*
X36550666Y-52672464D02*
X36512571Y-52710559D01*
X36398285Y-52748654D01*
X36322095Y-52748654D01*
X36207809Y-52710559D01*
X36131619Y-52634369D01*
X36093523Y-52558178D01*
X36055428Y-52405797D01*
X36055428Y-52291511D01*
X36093523Y-52139130D01*
X36131619Y-52062940D01*
X36207809Y-51986750D01*
X36322095Y-51948654D01*
X36398285Y-51948654D01*
X36512571Y-51986750D01*
X36550666Y-52024845D01*
X36817333Y-51948654D02*
X37350666Y-51948654D01*
X37007809Y-52748654D01*
X41078333Y-33198654D02*
X41345000Y-33998654D01*
X41611666Y-33198654D01*
X42335476Y-33922464D02*
X42297380Y-33960559D01*
X42183095Y-33998654D01*
X42106904Y-33998654D01*
X41992619Y-33960559D01*
X41916428Y-33884369D01*
X41878333Y-33808178D01*
X41840238Y-33655797D01*
X41840238Y-33541511D01*
X41878333Y-33389130D01*
X41916428Y-33312940D01*
X41992619Y-33236750D01*
X42106904Y-33198654D01*
X42183095Y-33198654D01*
X42297380Y-33236750D01*
X42335476Y-33274845D01*
X43135476Y-33922464D02*
X43097380Y-33960559D01*
X42983095Y-33998654D01*
X42906904Y-33998654D01*
X42792619Y-33960559D01*
X42716428Y-33884369D01*
X42678333Y-33808178D01*
X42640238Y-33655797D01*
X42640238Y-33541511D01*
X42678333Y-33389130D01*
X42716428Y-33312940D01*
X42792619Y-33236750D01*
X42906904Y-33198654D01*
X42983095Y-33198654D01*
X43097380Y-33236750D01*
X43135476Y-33274845D01*
X30899190Y-51359607D02*
X31013476Y-51397702D01*
X31051571Y-51435797D01*
X31089666Y-51511988D01*
X31089666Y-51626273D01*
X31051571Y-51702464D01*
X31013476Y-51740559D01*
X30937285Y-51778654D01*
X30632523Y-51778654D01*
X30632523Y-50978654D01*
X30899190Y-50978654D01*
X30975380Y-51016750D01*
X31013476Y-51054845D01*
X31051571Y-51131035D01*
X31051571Y-51207226D01*
X31013476Y-51283416D01*
X30975380Y-51321511D01*
X30899190Y-51359607D01*
X30632523Y-51359607D01*
X31775380Y-51245321D02*
X31775380Y-51778654D01*
X31584904Y-50940559D02*
X31394428Y-51511988D01*
X31889666Y-51511988D01*
X30632523Y-39078654D02*
X30632523Y-38278654D01*
X30823000Y-38278654D01*
X30937285Y-38316750D01*
X31013476Y-38392940D01*
X31051571Y-38469130D01*
X31089666Y-38621511D01*
X31089666Y-38735797D01*
X31051571Y-38888178D01*
X31013476Y-38964369D01*
X30937285Y-39040559D01*
X30823000Y-39078654D01*
X30632523Y-39078654D01*
X31584904Y-38278654D02*
X31661095Y-38278654D01*
X31737285Y-38316750D01*
X31775380Y-38354845D01*
X31813476Y-38431035D01*
X31851571Y-38583416D01*
X31851571Y-38773892D01*
X31813476Y-38926273D01*
X31775380Y-39002464D01*
X31737285Y-39040559D01*
X31661095Y-39078654D01*
X31584904Y-39078654D01*
X31508714Y-39040559D01*
X31470619Y-39002464D01*
X31432523Y-38926273D01*
X31394428Y-38773892D01*
X31394428Y-38583416D01*
X31432523Y-38431035D01*
X31470619Y-38354845D01*
X31508714Y-38316750D01*
X31584904Y-38278654D01*
X31900666Y-52536750D02*
X32000666Y-52570083D01*
X32034000Y-52603416D01*
X32067333Y-52670083D01*
X32067333Y-52770083D01*
X32034000Y-52836750D01*
X32000666Y-52870083D01*
X31934000Y-52903416D01*
X31667333Y-52903416D01*
X31667333Y-52203416D01*
X31900666Y-52203416D01*
X31967333Y-52236750D01*
X32000666Y-52270083D01*
X32034000Y-52336750D01*
X32034000Y-52403416D01*
X32000666Y-52470083D01*
X31967333Y-52503416D01*
X31900666Y-52536750D01*
X31667333Y-52536750D01*
X32300666Y-52203416D02*
X32767333Y-52203416D01*
X32467333Y-52903416D01*
X30632523Y-41618654D02*
X30632523Y-40818654D01*
X30823000Y-40818654D01*
X30937285Y-40856750D01*
X31013476Y-40932940D01*
X31051571Y-41009130D01*
X31089666Y-41161511D01*
X31089666Y-41275797D01*
X31051571Y-41428178D01*
X31013476Y-41504369D01*
X30937285Y-41580559D01*
X30823000Y-41618654D01*
X30632523Y-41618654D01*
X31775380Y-41085321D02*
X31775380Y-41618654D01*
X31584904Y-40780559D02*
X31394428Y-41351988D01*
X31889666Y-41351988D01*
X31089666Y-44082464D02*
X31051571Y-44120559D01*
X30937285Y-44158654D01*
X30861095Y-44158654D01*
X30746809Y-44120559D01*
X30670619Y-44044369D01*
X30632523Y-43968178D01*
X30594428Y-43815797D01*
X30594428Y-43701511D01*
X30632523Y-43549130D01*
X30670619Y-43472940D01*
X30746809Y-43396750D01*
X30861095Y-43358654D01*
X30937285Y-43358654D01*
X31051571Y-43396750D01*
X31089666Y-43434845D01*
X31775380Y-43358654D02*
X31623000Y-43358654D01*
X31546809Y-43396750D01*
X31508714Y-43434845D01*
X31432523Y-43549130D01*
X31394428Y-43701511D01*
X31394428Y-44006273D01*
X31432523Y-44082464D01*
X31470619Y-44120559D01*
X31546809Y-44158654D01*
X31699190Y-44158654D01*
X31775380Y-44120559D01*
X31813476Y-44082464D01*
X31851571Y-44006273D01*
X31851571Y-43815797D01*
X31813476Y-43739607D01*
X31775380Y-43701511D01*
X31699190Y-43663416D01*
X31546809Y-43663416D01*
X31470619Y-43701511D01*
X31432523Y-43739607D01*
X31394428Y-43815797D01*
X41878333Y-43739607D02*
X41611666Y-43739607D01*
X41611666Y-44158654D02*
X41611666Y-43358654D01*
X41992619Y-43358654D01*
X42221190Y-43358654D02*
X42754523Y-43358654D01*
X42411666Y-44158654D01*
X30632523Y-36538654D02*
X30632523Y-35738654D01*
X30823000Y-35738654D01*
X30937285Y-35776750D01*
X31013476Y-35852940D01*
X31051571Y-35929130D01*
X31089666Y-36081511D01*
X31089666Y-36195797D01*
X31051571Y-36348178D01*
X31013476Y-36424369D01*
X30937285Y-36500559D01*
X30823000Y-36538654D01*
X30632523Y-36538654D01*
X31851571Y-36538654D02*
X31394428Y-36538654D01*
X31623000Y-36538654D02*
X31623000Y-35738654D01*
X31546809Y-35852940D01*
X31470619Y-35929130D01*
X31394428Y-35967226D01*
X41878333Y-36119607D02*
X41611666Y-36119607D01*
X41611666Y-36538654D02*
X41611666Y-35738654D01*
X41992619Y-35738654D01*
X42640238Y-36005321D02*
X42640238Y-36538654D01*
X42449761Y-35700559D02*
X42259285Y-36271988D01*
X42754523Y-36271988D01*
X30632523Y-28918654D02*
X30632523Y-28118654D01*
X30823000Y-28118654D01*
X30937285Y-28156750D01*
X31013476Y-28232940D01*
X31051571Y-28309130D01*
X31089666Y-28461511D01*
X31089666Y-28575797D01*
X31051571Y-28728178D01*
X31013476Y-28804369D01*
X30937285Y-28880559D01*
X30823000Y-28918654D01*
X30632523Y-28918654D01*
X31394428Y-28194845D02*
X31432523Y-28156750D01*
X31508714Y-28118654D01*
X31699190Y-28118654D01*
X31775380Y-28156750D01*
X31813476Y-28194845D01*
X31851571Y-28271035D01*
X31851571Y-28347226D01*
X31813476Y-28461511D01*
X31356333Y-28918654D01*
X31851571Y-28918654D01*
X41821190Y-48819607D02*
X41935476Y-48857702D01*
X41973571Y-48895797D01*
X42011666Y-48971988D01*
X42011666Y-49086273D01*
X41973571Y-49162464D01*
X41935476Y-49200559D01*
X41859285Y-49238654D01*
X41554523Y-49238654D01*
X41554523Y-48438654D01*
X41821190Y-48438654D01*
X41897380Y-48476750D01*
X41935476Y-48514845D01*
X41973571Y-48591035D01*
X41973571Y-48667226D01*
X41935476Y-48743416D01*
X41897380Y-48781511D01*
X41821190Y-48819607D01*
X41554523Y-48819607D01*
X42278333Y-48438654D02*
X42773571Y-48438654D01*
X42506904Y-48743416D01*
X42621190Y-48743416D01*
X42697380Y-48781511D01*
X42735476Y-48819607D01*
X42773571Y-48895797D01*
X42773571Y-49086273D01*
X42735476Y-49162464D01*
X42697380Y-49200559D01*
X42621190Y-49238654D01*
X42392619Y-49238654D01*
X42316428Y-49200559D01*
X42278333Y-49162464D01*
X30613476Y-33236750D02*
X30537285Y-33198654D01*
X30423000Y-33198654D01*
X30308714Y-33236750D01*
X30232523Y-33312940D01*
X30194428Y-33389130D01*
X30156333Y-33541511D01*
X30156333Y-33655797D01*
X30194428Y-33808178D01*
X30232523Y-33884369D01*
X30308714Y-33960559D01*
X30423000Y-33998654D01*
X30499190Y-33998654D01*
X30613476Y-33960559D01*
X30651571Y-33922464D01*
X30651571Y-33655797D01*
X30499190Y-33655797D01*
X30994428Y-33998654D02*
X30994428Y-33198654D01*
X31451571Y-33998654D01*
X31451571Y-33198654D01*
X31832523Y-33998654D02*
X31832523Y-33198654D01*
X32023000Y-33198654D01*
X32137285Y-33236750D01*
X32213476Y-33312940D01*
X32251571Y-33389130D01*
X32289666Y-33541511D01*
X32289666Y-33655797D01*
X32251571Y-33808178D01*
X32213476Y-33884369D01*
X32137285Y-33960559D01*
X32023000Y-33998654D01*
X31832523Y-33998654D01*
X33553523Y-52748654D02*
X33553523Y-51948654D01*
X33744000Y-51948654D01*
X33858285Y-51986750D01*
X33934476Y-52062940D01*
X33972571Y-52139130D01*
X34010666Y-52291511D01*
X34010666Y-52405797D01*
X33972571Y-52558178D01*
X33934476Y-52634369D01*
X33858285Y-52710559D01*
X33744000Y-52748654D01*
X33553523Y-52748654D01*
X34734476Y-51948654D02*
X34353523Y-51948654D01*
X34315428Y-52329607D01*
X34353523Y-52291511D01*
X34429714Y-52253416D01*
X34620190Y-52253416D01*
X34696380Y-52291511D01*
X34734476Y-52329607D01*
X34772571Y-52405797D01*
X34772571Y-52596273D01*
X34734476Y-52672464D01*
X34696380Y-52710559D01*
X34620190Y-52748654D01*
X34429714Y-52748654D01*
X34353523Y-52710559D01*
X34315428Y-52672464D01*
X42848297Y-52851741D02*
X42942578Y-52804601D01*
X42989719Y-52804601D01*
X43060429Y-52828171D01*
X43131140Y-52898882D01*
X43154710Y-52969592D01*
X43154710Y-53016733D01*
X43131140Y-53087443D01*
X42942578Y-53276005D01*
X42447603Y-52781030D01*
X42612595Y-52616039D01*
X42683306Y-52592469D01*
X42730446Y-52592469D01*
X42801157Y-52616039D01*
X42848297Y-52663179D01*
X42871867Y-52733890D01*
X42871867Y-52781030D01*
X42848297Y-52851741D01*
X42683306Y-53016733D01*
X43154710Y-52073924D02*
X43060429Y-52168205D01*
X43036859Y-52238915D01*
X43036859Y-52286056D01*
X43060429Y-52403907D01*
X43131140Y-52521758D01*
X43319702Y-52710320D01*
X43390412Y-52733890D01*
X43437553Y-52733890D01*
X43508264Y-52710320D01*
X43602544Y-52616039D01*
X43626115Y-52545328D01*
X43626115Y-52498188D01*
X43602544Y-52427477D01*
X43484693Y-52309626D01*
X43413983Y-52286056D01*
X43366842Y-52286056D01*
X43296132Y-52309626D01*
X43201851Y-52403907D01*
X43178280Y-52474617D01*
X43178280Y-52521758D01*
X43201851Y-52592469D01*
X41878333Y-38659607D02*
X41611666Y-38659607D01*
X41611666Y-39078654D02*
X41611666Y-38278654D01*
X41992619Y-38278654D01*
X42678333Y-38278654D02*
X42297380Y-38278654D01*
X42259285Y-38659607D01*
X42297380Y-38621511D01*
X42373571Y-38583416D01*
X42564047Y-38583416D01*
X42640238Y-38621511D01*
X42678333Y-38659607D01*
X42716428Y-38735797D01*
X42716428Y-38926273D01*
X42678333Y-39002464D01*
X42640238Y-39040559D01*
X42564047Y-39078654D01*
X42373571Y-39078654D01*
X42297380Y-39040559D01*
X42259285Y-39002464D01*
X30670619Y-48819607D02*
X30937285Y-48819607D01*
X31051571Y-49238654D02*
X30670619Y-49238654D01*
X30670619Y-48438654D01*
X31051571Y-48438654D01*
X31737285Y-48438654D02*
X31584904Y-48438654D01*
X31508714Y-48476750D01*
X31470619Y-48514845D01*
X31394428Y-48629130D01*
X31356333Y-48781511D01*
X31356333Y-49086273D01*
X31394428Y-49162464D01*
X31432523Y-49200559D01*
X31508714Y-49238654D01*
X31661095Y-49238654D01*
X31737285Y-49200559D01*
X31775380Y-49162464D01*
X31813476Y-49086273D01*
X31813476Y-48895797D01*
X31775380Y-48819607D01*
X31737285Y-48781511D01*
X31661095Y-48743416D01*
X31508714Y-48743416D01*
X31432523Y-48781511D01*
X31394428Y-48819607D01*
X31356333Y-48895797D01*
X40950666Y-52536750D02*
X40717333Y-52536750D01*
X40717333Y-52903416D02*
X40717333Y-52203416D01*
X41050666Y-52203416D01*
X41450666Y-52203416D02*
X41517333Y-52203416D01*
X41584000Y-52236750D01*
X41617333Y-52270083D01*
X41650666Y-52336750D01*
X41684000Y-52470083D01*
X41684000Y-52636750D01*
X41650666Y-52770083D01*
X41617333Y-52836750D01*
X41584000Y-52870083D01*
X41517333Y-52903416D01*
X41450666Y-52903416D01*
X41384000Y-52870083D01*
X41350666Y-52836750D01*
X41317333Y-52770083D01*
X41284000Y-52636750D01*
X41284000Y-52470083D01*
X41317333Y-52336750D01*
X41350666Y-52270083D01*
X41384000Y-52236750D01*
X41450666Y-52203416D01*
X30632523Y-46698654D02*
X30632523Y-45898654D01*
X30823000Y-45898654D01*
X30937285Y-45936750D01*
X31013476Y-46012940D01*
X31051571Y-46089130D01*
X31089666Y-46241511D01*
X31089666Y-46355797D01*
X31051571Y-46508178D01*
X31013476Y-46584369D01*
X30937285Y-46660559D01*
X30823000Y-46698654D01*
X30632523Y-46698654D01*
X31356333Y-45898654D02*
X31889666Y-45898654D01*
X31546809Y-46698654D01*
X38957333Y-52329607D02*
X38690666Y-52329607D01*
X38690666Y-52748654D02*
X38690666Y-51948654D01*
X39071619Y-51948654D01*
X39795428Y-52748654D02*
X39338285Y-52748654D01*
X39566857Y-52748654D02*
X39566857Y-51948654D01*
X39490666Y-52062940D01*
X39414476Y-52139130D01*
X39338285Y-52177226D01*
X41821190Y-51359607D02*
X41935476Y-51397702D01*
X41973571Y-51435797D01*
X42011666Y-51511988D01*
X42011666Y-51626273D01*
X41973571Y-51702464D01*
X41935476Y-51740559D01*
X41859285Y-51778654D01*
X41554523Y-51778654D01*
X41554523Y-50978654D01*
X41821190Y-50978654D01*
X41897380Y-51016750D01*
X41935476Y-51054845D01*
X41973571Y-51131035D01*
X41973571Y-51207226D01*
X41935476Y-51283416D01*
X41897380Y-51321511D01*
X41821190Y-51359607D01*
X41554523Y-51359607D01*
X42316428Y-51054845D02*
X42354523Y-51016750D01*
X42430714Y-50978654D01*
X42621190Y-50978654D01*
X42697380Y-51016750D01*
X42735476Y-51054845D01*
X42773571Y-51131035D01*
X42773571Y-51207226D01*
X42735476Y-51321511D01*
X42278333Y-51778654D01*
X42773571Y-51778654D01*
%TO.C,D15*%
X92654380Y-25604285D02*
X91654380Y-25604285D01*
X91654380Y-25366190D01*
X91702000Y-25223333D01*
X91797238Y-25128095D01*
X91892476Y-25080476D01*
X92082952Y-25032857D01*
X92225809Y-25032857D01*
X92416285Y-25080476D01*
X92511523Y-25128095D01*
X92606761Y-25223333D01*
X92654380Y-25366190D01*
X92654380Y-25604285D01*
X92654380Y-24080476D02*
X92654380Y-24651904D01*
X92654380Y-24366190D02*
X91654380Y-24366190D01*
X91797238Y-24461428D01*
X91892476Y-24556666D01*
X91940095Y-24651904D01*
X91654380Y-23175714D02*
X91654380Y-23651904D01*
X92130571Y-23699523D01*
X92082952Y-23651904D01*
X92035333Y-23556666D01*
X92035333Y-23318571D01*
X92082952Y-23223333D01*
X92130571Y-23175714D01*
X92225809Y-23128095D01*
X92463904Y-23128095D01*
X92559142Y-23175714D01*
X92606761Y-23223333D01*
X92654380Y-23318571D01*
X92654380Y-23556666D01*
X92606761Y-23651904D01*
X92559142Y-23699523D01*
%TO.C,D3*%
X84272380Y-28678095D02*
X83272380Y-28678095D01*
X83272380Y-28440000D01*
X83320000Y-28297142D01*
X83415238Y-28201904D01*
X83510476Y-28154285D01*
X83700952Y-28106666D01*
X83843809Y-28106666D01*
X84034285Y-28154285D01*
X84129523Y-28201904D01*
X84224761Y-28297142D01*
X84272380Y-28440000D01*
X84272380Y-28678095D01*
X83272380Y-27773333D02*
X83272380Y-27154285D01*
X83653333Y-27487619D01*
X83653333Y-27344761D01*
X83700952Y-27249523D01*
X83748571Y-27201904D01*
X83843809Y-27154285D01*
X84081904Y-27154285D01*
X84177142Y-27201904D01*
X84224761Y-27249523D01*
X84272380Y-27344761D01*
X84272380Y-27630476D01*
X84224761Y-27725714D01*
X84177142Y-27773333D01*
D11*
%TO.C,ACT*%
X24456571Y-66251666D02*
X25182285Y-66251666D01*
X24311428Y-66614523D02*
X24819428Y-65344523D01*
X25327428Y-66614523D01*
X26706285Y-66493571D02*
X26633714Y-66554047D01*
X26416000Y-66614523D01*
X26270857Y-66614523D01*
X26053142Y-66554047D01*
X25908000Y-66433095D01*
X25835428Y-66312142D01*
X25762857Y-66070238D01*
X25762857Y-65888809D01*
X25835428Y-65646904D01*
X25908000Y-65525952D01*
X26053142Y-65405000D01*
X26270857Y-65344523D01*
X26416000Y-65344523D01*
X26633714Y-65405000D01*
X26706285Y-65465476D01*
X27141714Y-65344523D02*
X28012571Y-65344523D01*
X27577142Y-66614523D02*
X27577142Y-65344523D01*
D10*
%TO.C,D12*%
X58618380Y-25344285D02*
X57618380Y-25344285D01*
X57618380Y-25106190D01*
X57666000Y-24963333D01*
X57761238Y-24868095D01*
X57856476Y-24820476D01*
X58046952Y-24772857D01*
X58189809Y-24772857D01*
X58380285Y-24820476D01*
X58475523Y-24868095D01*
X58570761Y-24963333D01*
X58618380Y-25106190D01*
X58618380Y-25344285D01*
X58618380Y-23820476D02*
X58618380Y-24391904D01*
X58618380Y-24106190D02*
X57618380Y-24106190D01*
X57761238Y-24201428D01*
X57856476Y-24296666D01*
X57904095Y-24391904D01*
X57713619Y-23439523D02*
X57666000Y-23391904D01*
X57618380Y-23296666D01*
X57618380Y-23058571D01*
X57666000Y-22963333D01*
X57713619Y-22915714D01*
X57808857Y-22868095D01*
X57904095Y-22868095D01*
X58046952Y-22915714D01*
X58618380Y-23487142D01*
X58618380Y-22868095D01*
%TO.C,D11*%
X89860380Y-26614285D02*
X88860380Y-26614285D01*
X88860380Y-26376190D01*
X88908000Y-26233333D01*
X89003238Y-26138095D01*
X89098476Y-26090476D01*
X89288952Y-26042857D01*
X89431809Y-26042857D01*
X89622285Y-26090476D01*
X89717523Y-26138095D01*
X89812761Y-26233333D01*
X89860380Y-26376190D01*
X89860380Y-26614285D01*
X89860380Y-25090476D02*
X89860380Y-25661904D01*
X89860380Y-25376190D02*
X88860380Y-25376190D01*
X89003238Y-25471428D01*
X89098476Y-25566666D01*
X89146095Y-25661904D01*
X89860380Y-24138095D02*
X89860380Y-24709523D01*
X89860380Y-24423809D02*
X88860380Y-24423809D01*
X89003238Y-24519047D01*
X89098476Y-24614285D01*
X89146095Y-24709523D01*
%TO.C,D10*%
X78430380Y-26868285D02*
X77430380Y-26868285D01*
X77430380Y-26630190D01*
X77478000Y-26487333D01*
X77573238Y-26392095D01*
X77668476Y-26344476D01*
X77858952Y-26296857D01*
X78001809Y-26296857D01*
X78192285Y-26344476D01*
X78287523Y-26392095D01*
X78382761Y-26487333D01*
X78430380Y-26630190D01*
X78430380Y-26868285D01*
X78430380Y-25344476D02*
X78430380Y-25915904D01*
X78430380Y-25630190D02*
X77430380Y-25630190D01*
X77573238Y-25725428D01*
X77668476Y-25820666D01*
X77716095Y-25915904D01*
X77430380Y-24725428D02*
X77430380Y-24630190D01*
X77478000Y-24534952D01*
X77525619Y-24487333D01*
X77620857Y-24439714D01*
X77811333Y-24392095D01*
X78049428Y-24392095D01*
X78239904Y-24439714D01*
X78335142Y-24487333D01*
X78382761Y-24534952D01*
X78430380Y-24630190D01*
X78430380Y-24725428D01*
X78382761Y-24820666D01*
X78335142Y-24868285D01*
X78239904Y-24915904D01*
X78049428Y-24963523D01*
X77811333Y-24963523D01*
X77620857Y-24915904D01*
X77525619Y-24868285D01*
X77478000Y-24820666D01*
X77430380Y-24725428D01*
%TO.C,D8*%
X55824380Y-26392095D02*
X54824380Y-26392095D01*
X54824380Y-26154000D01*
X54872000Y-26011142D01*
X54967238Y-25915904D01*
X55062476Y-25868285D01*
X55252952Y-25820666D01*
X55395809Y-25820666D01*
X55586285Y-25868285D01*
X55681523Y-25915904D01*
X55776761Y-26011142D01*
X55824380Y-26154000D01*
X55824380Y-26392095D01*
X55252952Y-25249238D02*
X55205333Y-25344476D01*
X55157714Y-25392095D01*
X55062476Y-25439714D01*
X55014857Y-25439714D01*
X54919619Y-25392095D01*
X54872000Y-25344476D01*
X54824380Y-25249238D01*
X54824380Y-25058761D01*
X54872000Y-24963523D01*
X54919619Y-24915904D01*
X55014857Y-24868285D01*
X55062476Y-24868285D01*
X55157714Y-24915904D01*
X55205333Y-24963523D01*
X55252952Y-25058761D01*
X55252952Y-25249238D01*
X55300571Y-25344476D01*
X55348190Y-25392095D01*
X55443428Y-25439714D01*
X55633904Y-25439714D01*
X55729142Y-25392095D01*
X55776761Y-25344476D01*
X55824380Y-25249238D01*
X55824380Y-25058761D01*
X55776761Y-24963523D01*
X55729142Y-24915904D01*
X55633904Y-24868285D01*
X55443428Y-24868285D01*
X55348190Y-24915904D01*
X55300571Y-24963523D01*
X55252952Y-25058761D01*
%TO.C,SW12*%
X51530476Y-65436761D02*
X51673333Y-65484380D01*
X51911428Y-65484380D01*
X52006666Y-65436761D01*
X52054285Y-65389142D01*
X52101904Y-65293904D01*
X52101904Y-65198666D01*
X52054285Y-65103428D01*
X52006666Y-65055809D01*
X51911428Y-65008190D01*
X51720952Y-64960571D01*
X51625714Y-64912952D01*
X51578095Y-64865333D01*
X51530476Y-64770095D01*
X51530476Y-64674857D01*
X51578095Y-64579619D01*
X51625714Y-64532000D01*
X51720952Y-64484380D01*
X51959047Y-64484380D01*
X52101904Y-64532000D01*
X52435238Y-64484380D02*
X52673333Y-65484380D01*
X52863809Y-64770095D01*
X53054285Y-65484380D01*
X53292380Y-64484380D01*
X54197142Y-65484380D02*
X53625714Y-65484380D01*
X53911428Y-65484380D02*
X53911428Y-64484380D01*
X53816190Y-64627238D01*
X53720952Y-64722476D01*
X53625714Y-64770095D01*
X54578095Y-64579619D02*
X54625714Y-64532000D01*
X54720952Y-64484380D01*
X54959047Y-64484380D01*
X55054285Y-64532000D01*
X55101904Y-64579619D01*
X55149523Y-64674857D01*
X55149523Y-64770095D01*
X55101904Y-64912952D01*
X54530476Y-65484380D01*
X55149523Y-65484380D01*
%TO.C,SW5*%
X63182666Y-46854761D02*
X63325523Y-46902380D01*
X63563619Y-46902380D01*
X63658857Y-46854761D01*
X63706476Y-46807142D01*
X63754095Y-46711904D01*
X63754095Y-46616666D01*
X63706476Y-46521428D01*
X63658857Y-46473809D01*
X63563619Y-46426190D01*
X63373142Y-46378571D01*
X63277904Y-46330952D01*
X63230285Y-46283333D01*
X63182666Y-46188095D01*
X63182666Y-46092857D01*
X63230285Y-45997619D01*
X63277904Y-45950000D01*
X63373142Y-45902380D01*
X63611238Y-45902380D01*
X63754095Y-45950000D01*
X64087428Y-45902380D02*
X64325523Y-46902380D01*
X64516000Y-46188095D01*
X64706476Y-46902380D01*
X64944571Y-45902380D01*
X65801714Y-45902380D02*
X65325523Y-45902380D01*
X65277904Y-46378571D01*
X65325523Y-46330952D01*
X65420761Y-46283333D01*
X65658857Y-46283333D01*
X65754095Y-46330952D01*
X65801714Y-46378571D01*
X65849333Y-46473809D01*
X65849333Y-46711904D01*
X65801714Y-46807142D01*
X65754095Y-46854761D01*
X65658857Y-46902380D01*
X65420761Y-46902380D01*
X65325523Y-46854761D01*
X65277904Y-46807142D01*
D11*
%TO.C,PWR*%
X24130000Y-59574523D02*
X24130000Y-58304523D01*
X24710571Y-58304523D01*
X24855714Y-58365000D01*
X24928285Y-58425476D01*
X25000857Y-58546428D01*
X25000857Y-58727857D01*
X24928285Y-58848809D01*
X24855714Y-58909285D01*
X24710571Y-58969761D01*
X24130000Y-58969761D01*
X25508857Y-58304523D02*
X25871714Y-59574523D01*
X26162000Y-58667380D01*
X26452285Y-59574523D01*
X26815142Y-58304523D01*
X28266571Y-59574523D02*
X27758571Y-58969761D01*
X27395714Y-59574523D02*
X27395714Y-58304523D01*
X27976285Y-58304523D01*
X28121428Y-58365000D01*
X28194000Y-58425476D01*
X28266571Y-58546428D01*
X28266571Y-58727857D01*
X28194000Y-58848809D01*
X28121428Y-58909285D01*
X27976285Y-58969761D01*
X27395714Y-58969761D01*
D10*
%TO.C,SW9*%
X63182666Y-56038761D02*
X63325523Y-56086380D01*
X63563619Y-56086380D01*
X63658857Y-56038761D01*
X63706476Y-55991142D01*
X63754095Y-55895904D01*
X63754095Y-55800666D01*
X63706476Y-55705428D01*
X63658857Y-55657809D01*
X63563619Y-55610190D01*
X63373142Y-55562571D01*
X63277904Y-55514952D01*
X63230285Y-55467333D01*
X63182666Y-55372095D01*
X63182666Y-55276857D01*
X63230285Y-55181619D01*
X63277904Y-55134000D01*
X63373142Y-55086380D01*
X63611238Y-55086380D01*
X63754095Y-55134000D01*
X64087428Y-55086380D02*
X64325523Y-56086380D01*
X64516000Y-55372095D01*
X64706476Y-56086380D01*
X64944571Y-55086380D01*
X65373142Y-56086380D02*
X65563619Y-56086380D01*
X65658857Y-56038761D01*
X65706476Y-55991142D01*
X65801714Y-55848285D01*
X65849333Y-55657809D01*
X65849333Y-55276857D01*
X65801714Y-55181619D01*
X65754095Y-55134000D01*
X65658857Y-55086380D01*
X65468380Y-55086380D01*
X65373142Y-55134000D01*
X65325523Y-55181619D01*
X65277904Y-55276857D01*
X65277904Y-55514952D01*
X65325523Y-55610190D01*
X65373142Y-55657809D01*
X65468380Y-55705428D01*
X65658857Y-55705428D01*
X65754095Y-55657809D01*
X65801714Y-55610190D01*
X65849333Y-55514952D01*
%TO.C,D14*%
X81224380Y-25598285D02*
X80224380Y-25598285D01*
X80224380Y-25360190D01*
X80272000Y-25217333D01*
X80367238Y-25122095D01*
X80462476Y-25074476D01*
X80652952Y-25026857D01*
X80795809Y-25026857D01*
X80986285Y-25074476D01*
X81081523Y-25122095D01*
X81176761Y-25217333D01*
X81224380Y-25360190D01*
X81224380Y-25598285D01*
X81224380Y-24074476D02*
X81224380Y-24645904D01*
X81224380Y-24360190D02*
X80224380Y-24360190D01*
X80367238Y-24455428D01*
X80462476Y-24550666D01*
X80510095Y-24645904D01*
X80557714Y-23217333D02*
X81224380Y-23217333D01*
X80176761Y-23455428D02*
X80891047Y-23693523D01*
X80891047Y-23074476D01*
%TO.C,PWR-R1*%
X30360952Y-72588380D02*
X29789523Y-72588380D01*
X30075238Y-72588380D02*
X30075238Y-71588380D01*
X29980000Y-71731238D01*
X29884761Y-71826476D01*
X29789523Y-71874095D01*
X30789523Y-72588380D02*
X30789523Y-71588380D01*
X30884761Y-72207428D02*
X31170476Y-72588380D01*
X31170476Y-71921714D02*
X30789523Y-72302666D01*
%TO.C,SW1*%
X63182666Y-37750761D02*
X63325523Y-37798380D01*
X63563619Y-37798380D01*
X63658857Y-37750761D01*
X63706476Y-37703142D01*
X63754095Y-37607904D01*
X63754095Y-37512666D01*
X63706476Y-37417428D01*
X63658857Y-37369809D01*
X63563619Y-37322190D01*
X63373142Y-37274571D01*
X63277904Y-37226952D01*
X63230285Y-37179333D01*
X63182666Y-37084095D01*
X63182666Y-36988857D01*
X63230285Y-36893619D01*
X63277904Y-36846000D01*
X63373142Y-36798380D01*
X63611238Y-36798380D01*
X63754095Y-36846000D01*
X64087428Y-36798380D02*
X64325523Y-37798380D01*
X64516000Y-37084095D01*
X64706476Y-37798380D01*
X64944571Y-36798380D01*
X65849333Y-37798380D02*
X65277904Y-37798380D01*
X65563619Y-37798380D02*
X65563619Y-36798380D01*
X65468380Y-36941238D01*
X65373142Y-37036476D01*
X65277904Y-37084095D01*
%TO.C,SW15*%
X73882476Y-74834761D02*
X74025333Y-74882380D01*
X74263428Y-74882380D01*
X74358666Y-74834761D01*
X74406285Y-74787142D01*
X74453904Y-74691904D01*
X74453904Y-74596666D01*
X74406285Y-74501428D01*
X74358666Y-74453809D01*
X74263428Y-74406190D01*
X74072952Y-74358571D01*
X73977714Y-74310952D01*
X73930095Y-74263333D01*
X73882476Y-74168095D01*
X73882476Y-74072857D01*
X73930095Y-73977619D01*
X73977714Y-73930000D01*
X74072952Y-73882380D01*
X74311047Y-73882380D01*
X74453904Y-73930000D01*
X74787238Y-73882380D02*
X75025333Y-74882380D01*
X75215809Y-74168095D01*
X75406285Y-74882380D01*
X75644380Y-73882380D01*
X76549142Y-74882380D02*
X75977714Y-74882380D01*
X76263428Y-74882380D02*
X76263428Y-73882380D01*
X76168190Y-74025238D01*
X76072952Y-74120476D01*
X75977714Y-74168095D01*
X77453904Y-73882380D02*
X76977714Y-73882380D01*
X76930095Y-74358571D01*
X76977714Y-74310952D01*
X77072952Y-74263333D01*
X77311047Y-74263333D01*
X77406285Y-74310952D01*
X77453904Y-74358571D01*
X77501523Y-74453809D01*
X77501523Y-74691904D01*
X77453904Y-74787142D01*
X77406285Y-74834761D01*
X77311047Y-74882380D01*
X77072952Y-74882380D01*
X76977714Y-74834761D01*
X76930095Y-74787142D01*
%TO.C,D7*%
X87066380Y-27662095D02*
X86066380Y-27662095D01*
X86066380Y-27424000D01*
X86114000Y-27281142D01*
X86209238Y-27185904D01*
X86304476Y-27138285D01*
X86494952Y-27090666D01*
X86637809Y-27090666D01*
X86828285Y-27138285D01*
X86923523Y-27185904D01*
X87018761Y-27281142D01*
X87066380Y-27424000D01*
X87066380Y-27662095D01*
X86066380Y-26757333D02*
X86066380Y-26090666D01*
X87066380Y-26519238D01*
%TO.C,D6*%
X75636380Y-27662095D02*
X74636380Y-27662095D01*
X74636380Y-27424000D01*
X74684000Y-27281142D01*
X74779238Y-27185904D01*
X74874476Y-27138285D01*
X75064952Y-27090666D01*
X75207809Y-27090666D01*
X75398285Y-27138285D01*
X75493523Y-27185904D01*
X75588761Y-27281142D01*
X75636380Y-27424000D01*
X75636380Y-27662095D01*
X74636380Y-26233523D02*
X74636380Y-26424000D01*
X74684000Y-26519238D01*
X74731619Y-26566857D01*
X74874476Y-26662095D01*
X75064952Y-26709714D01*
X75445904Y-26709714D01*
X75541142Y-26662095D01*
X75588761Y-26614476D01*
X75636380Y-26519238D01*
X75636380Y-26328761D01*
X75588761Y-26233523D01*
X75541142Y-26185904D01*
X75445904Y-26138285D01*
X75207809Y-26138285D01*
X75112571Y-26185904D01*
X75064952Y-26233523D01*
X75017333Y-26328761D01*
X75017333Y-26519238D01*
X75064952Y-26614476D01*
X75112571Y-26662095D01*
X75207809Y-26709714D01*
%TO.C,SW0*%
X52006666Y-37750761D02*
X52149523Y-37798380D01*
X52387619Y-37798380D01*
X52482857Y-37750761D01*
X52530476Y-37703142D01*
X52578095Y-37607904D01*
X52578095Y-37512666D01*
X52530476Y-37417428D01*
X52482857Y-37369809D01*
X52387619Y-37322190D01*
X52197142Y-37274571D01*
X52101904Y-37226952D01*
X52054285Y-37179333D01*
X52006666Y-37084095D01*
X52006666Y-36988857D01*
X52054285Y-36893619D01*
X52101904Y-36846000D01*
X52197142Y-36798380D01*
X52435238Y-36798380D01*
X52578095Y-36846000D01*
X52911428Y-36798380D02*
X53149523Y-37798380D01*
X53340000Y-37084095D01*
X53530476Y-37798380D01*
X53768571Y-36798380D01*
X54340000Y-36798380D02*
X54435238Y-36798380D01*
X54530476Y-36846000D01*
X54578095Y-36893619D01*
X54625714Y-36988857D01*
X54673333Y-37179333D01*
X54673333Y-37417428D01*
X54625714Y-37607904D01*
X54578095Y-37703142D01*
X54530476Y-37750761D01*
X54435238Y-37798380D01*
X54340000Y-37798380D01*
X54244761Y-37750761D01*
X54197142Y-37703142D01*
X54149523Y-37607904D01*
X54101904Y-37417428D01*
X54101904Y-37179333D01*
X54149523Y-36988857D01*
X54197142Y-36893619D01*
X54244761Y-36846000D01*
X54340000Y-36798380D01*
%TO.C,SW10*%
X73882476Y-56038761D02*
X74025333Y-56086380D01*
X74263428Y-56086380D01*
X74358666Y-56038761D01*
X74406285Y-55991142D01*
X74453904Y-55895904D01*
X74453904Y-55800666D01*
X74406285Y-55705428D01*
X74358666Y-55657809D01*
X74263428Y-55610190D01*
X74072952Y-55562571D01*
X73977714Y-55514952D01*
X73930095Y-55467333D01*
X73882476Y-55372095D01*
X73882476Y-55276857D01*
X73930095Y-55181619D01*
X73977714Y-55134000D01*
X74072952Y-55086380D01*
X74311047Y-55086380D01*
X74453904Y-55134000D01*
X74787238Y-55086380D02*
X75025333Y-56086380D01*
X75215809Y-55372095D01*
X75406285Y-56086380D01*
X75644380Y-55086380D01*
X76549142Y-56086380D02*
X75977714Y-56086380D01*
X76263428Y-56086380D02*
X76263428Y-55086380D01*
X76168190Y-55229238D01*
X76072952Y-55324476D01*
X75977714Y-55372095D01*
X77168190Y-55086380D02*
X77263428Y-55086380D01*
X77358666Y-55134000D01*
X77406285Y-55181619D01*
X77453904Y-55276857D01*
X77501523Y-55467333D01*
X77501523Y-55705428D01*
X77453904Y-55895904D01*
X77406285Y-55991142D01*
X77358666Y-56038761D01*
X77263428Y-56086380D01*
X77168190Y-56086380D01*
X77072952Y-56038761D01*
X77025333Y-55991142D01*
X76977714Y-55895904D01*
X76930095Y-55705428D01*
X76930095Y-55467333D01*
X76977714Y-55276857D01*
X77025333Y-55181619D01*
X77072952Y-55134000D01*
X77168190Y-55086380D01*
%TO.C,D2*%
X72842380Y-28678095D02*
X71842380Y-28678095D01*
X71842380Y-28440000D01*
X71890000Y-28297142D01*
X71985238Y-28201904D01*
X72080476Y-28154285D01*
X72270952Y-28106666D01*
X72413809Y-28106666D01*
X72604285Y-28154285D01*
X72699523Y-28201904D01*
X72794761Y-28297142D01*
X72842380Y-28440000D01*
X72842380Y-28678095D01*
X71937619Y-27725714D02*
X71890000Y-27678095D01*
X71842380Y-27582857D01*
X71842380Y-27344761D01*
X71890000Y-27249523D01*
X71937619Y-27201904D01*
X72032857Y-27154285D01*
X72128095Y-27154285D01*
X72270952Y-27201904D01*
X72842380Y-27773333D01*
X72842380Y-27154285D01*
%TO.C,D9*%
X67000380Y-26392095D02*
X66000380Y-26392095D01*
X66000380Y-26154000D01*
X66048000Y-26011142D01*
X66143238Y-25915904D01*
X66238476Y-25868285D01*
X66428952Y-25820666D01*
X66571809Y-25820666D01*
X66762285Y-25868285D01*
X66857523Y-25915904D01*
X66952761Y-26011142D01*
X67000380Y-26154000D01*
X67000380Y-26392095D01*
X67000380Y-25344476D02*
X67000380Y-25154000D01*
X66952761Y-25058761D01*
X66905142Y-25011142D01*
X66762285Y-24915904D01*
X66571809Y-24868285D01*
X66190857Y-24868285D01*
X66095619Y-24915904D01*
X66048000Y-24963523D01*
X66000380Y-25058761D01*
X66000380Y-25249238D01*
X66048000Y-25344476D01*
X66095619Y-25392095D01*
X66190857Y-25439714D01*
X66428952Y-25439714D01*
X66524190Y-25392095D01*
X66571809Y-25344476D01*
X66619428Y-25249238D01*
X66619428Y-25058761D01*
X66571809Y-24963523D01*
X66524190Y-24915904D01*
X66428952Y-24868285D01*
%TO.C,D0*%
X50236380Y-28932095D02*
X49236380Y-28932095D01*
X49236380Y-28694000D01*
X49284000Y-28551142D01*
X49379238Y-28455904D01*
X49474476Y-28408285D01*
X49664952Y-28360666D01*
X49807809Y-28360666D01*
X49998285Y-28408285D01*
X50093523Y-28455904D01*
X50188761Y-28551142D01*
X50236380Y-28694000D01*
X50236380Y-28932095D01*
X49236380Y-27741619D02*
X49236380Y-27646380D01*
X49284000Y-27551142D01*
X49331619Y-27503523D01*
X49426857Y-27455904D01*
X49617333Y-27408285D01*
X49855428Y-27408285D01*
X50045904Y-27455904D01*
X50141142Y-27503523D01*
X50188761Y-27551142D01*
X50236380Y-27646380D01*
X50236380Y-27741619D01*
X50188761Y-27836857D01*
X50141142Y-27884476D01*
X50045904Y-27932095D01*
X49855428Y-27979714D01*
X49617333Y-27979714D01*
X49426857Y-27932095D01*
X49331619Y-27884476D01*
X49284000Y-27836857D01*
X49236380Y-27741619D01*
%TO.C,SW4*%
X52006666Y-46894761D02*
X52149523Y-46942380D01*
X52387619Y-46942380D01*
X52482857Y-46894761D01*
X52530476Y-46847142D01*
X52578095Y-46751904D01*
X52578095Y-46656666D01*
X52530476Y-46561428D01*
X52482857Y-46513809D01*
X52387619Y-46466190D01*
X52197142Y-46418571D01*
X52101904Y-46370952D01*
X52054285Y-46323333D01*
X52006666Y-46228095D01*
X52006666Y-46132857D01*
X52054285Y-46037619D01*
X52101904Y-45990000D01*
X52197142Y-45942380D01*
X52435238Y-45942380D01*
X52578095Y-45990000D01*
X52911428Y-45942380D02*
X53149523Y-46942380D01*
X53340000Y-46228095D01*
X53530476Y-46942380D01*
X53768571Y-45942380D01*
X54578095Y-46275714D02*
X54578095Y-46942380D01*
X54340000Y-45894761D02*
X54101904Y-46609047D01*
X54720952Y-46609047D01*
%TO.C,ACT-R1*%
X30614952Y-75890380D02*
X30043523Y-75890380D01*
X30329238Y-75890380D02*
X30329238Y-74890380D01*
X30234000Y-75033238D01*
X30138761Y-75128476D01*
X30043523Y-75176095D01*
X31043523Y-75890380D02*
X31043523Y-74890380D01*
X31138761Y-75509428D02*
X31424476Y-75890380D01*
X31424476Y-75223714D02*
X31043523Y-75604666D01*
%TO.C,D17*%
X44902380Y-62428285D02*
X43902380Y-62428285D01*
X43902380Y-62190190D01*
X43950000Y-62047333D01*
X44045238Y-61952095D01*
X44140476Y-61904476D01*
X44330952Y-61856857D01*
X44473809Y-61856857D01*
X44664285Y-61904476D01*
X44759523Y-61952095D01*
X44854761Y-62047333D01*
X44902380Y-62190190D01*
X44902380Y-62428285D01*
X44902380Y-60904476D02*
X44902380Y-61475904D01*
X44902380Y-61190190D02*
X43902380Y-61190190D01*
X44045238Y-61285428D01*
X44140476Y-61380666D01*
X44188095Y-61475904D01*
X43902380Y-60571142D02*
X43902380Y-59904476D01*
X44902380Y-60333047D01*
%TO.C,SW11*%
X85312476Y-70008761D02*
X85455333Y-70056380D01*
X85693428Y-70056380D01*
X85788666Y-70008761D01*
X85836285Y-69961142D01*
X85883904Y-69865904D01*
X85883904Y-69770666D01*
X85836285Y-69675428D01*
X85788666Y-69627809D01*
X85693428Y-69580190D01*
X85502952Y-69532571D01*
X85407714Y-69484952D01*
X85360095Y-69437333D01*
X85312476Y-69342095D01*
X85312476Y-69246857D01*
X85360095Y-69151619D01*
X85407714Y-69104000D01*
X85502952Y-69056380D01*
X85741047Y-69056380D01*
X85883904Y-69104000D01*
X86217238Y-69056380D02*
X86455333Y-70056380D01*
X86645809Y-69342095D01*
X86836285Y-70056380D01*
X87074380Y-69056380D01*
X87979142Y-70056380D02*
X87407714Y-70056380D01*
X87693428Y-70056380D02*
X87693428Y-69056380D01*
X87598190Y-69199238D01*
X87502952Y-69294476D01*
X87407714Y-69342095D01*
X88931523Y-70056380D02*
X88360095Y-70056380D01*
X88645809Y-70056380D02*
X88645809Y-69056380D01*
X88550571Y-69199238D01*
X88455333Y-69294476D01*
X88360095Y-69342095D01*
D12*
%TO.C,SW2*%
X72692000Y-34596000D02*
X78692000Y-34596000D01*
X78692000Y-34596000D02*
X78692000Y-40596000D01*
X78692000Y-40596000D02*
X72692000Y-40596000D01*
X72692000Y-40596000D02*
X72692000Y-34596000D01*
%TO.C,SW7*%
X84122000Y-48312000D02*
X90122000Y-48312000D01*
X90122000Y-48312000D02*
X90122000Y-54312000D01*
X90122000Y-54312000D02*
X84122000Y-54312000D01*
X84122000Y-54312000D02*
X84122000Y-48312000D01*
%TO.C,SW3*%
X84122000Y-34596000D02*
X90122000Y-34596000D01*
X90122000Y-34596000D02*
X90122000Y-40596000D01*
X90122000Y-40596000D02*
X84122000Y-40596000D01*
X84122000Y-40596000D02*
X84122000Y-34596000D01*
%TO.C,SW16*%
X40180000Y-71426000D02*
X46180000Y-71426000D01*
X46180000Y-71426000D02*
X46180000Y-77426000D01*
X46180000Y-77426000D02*
X40180000Y-77426000D01*
X40180000Y-77426000D02*
X40180000Y-71426000D01*
%TO.C,SW17*%
X56182000Y-71680000D02*
X62182000Y-71680000D01*
X62182000Y-71680000D02*
X62182000Y-77680000D01*
X62182000Y-77680000D02*
X56182000Y-77680000D01*
X56182000Y-77680000D02*
X56182000Y-71680000D01*
%TO.C,SW8*%
X50340000Y-52884000D02*
X56340000Y-52884000D01*
X56340000Y-52884000D02*
X56340000Y-58884000D01*
X56340000Y-58884000D02*
X50340000Y-58884000D01*
X50340000Y-58884000D02*
X50340000Y-52884000D01*
%TO.C,D16*%
X40028000Y-62748000D02*
X42268000Y-62748000D01*
X41148000Y-64238000D02*
X41148000Y-63588000D01*
X40028000Y-63588000D02*
X42268000Y-63588000D01*
X42268000Y-63588000D02*
X42268000Y-59348000D01*
X40028000Y-62868000D02*
X42268000Y-62868000D01*
X40028000Y-62988000D02*
X42268000Y-62988000D01*
X42268000Y-59348000D02*
X40028000Y-59348000D01*
X41148000Y-58698000D02*
X41148000Y-59348000D01*
X40028000Y-59348000D02*
X40028000Y-63588000D01*
%TO.C,D1*%
X59840000Y-29968000D02*
X62080000Y-29968000D01*
X59840000Y-30568000D02*
X62080000Y-30568000D01*
X62080000Y-30568000D02*
X62080000Y-26328000D01*
X62080000Y-26328000D02*
X59840000Y-26328000D01*
X60960000Y-25678000D02*
X60960000Y-26328000D01*
X59840000Y-29728000D02*
X62080000Y-29728000D01*
X59840000Y-29848000D02*
X62080000Y-29848000D01*
X60960000Y-31218000D02*
X60960000Y-30568000D01*
X59840000Y-26328000D02*
X59840000Y-30568000D01*
%TO.C,D5*%
X63754000Y-29948000D02*
X63754000Y-29298000D01*
X62634000Y-28698000D02*
X64874000Y-28698000D01*
X62634000Y-25058000D02*
X62634000Y-29298000D01*
X64874000Y-29298000D02*
X64874000Y-25058000D01*
X64874000Y-25058000D02*
X62634000Y-25058000D01*
X62634000Y-28458000D02*
X64874000Y-28458000D01*
X63754000Y-24408000D02*
X63754000Y-25058000D01*
X62634000Y-29298000D02*
X64874000Y-29298000D01*
X62634000Y-28578000D02*
X64874000Y-28578000D01*
%TO.C,D13*%
X68222000Y-26758000D02*
X70462000Y-26758000D01*
X69342000Y-27408000D02*
X69342000Y-26758000D01*
X68222000Y-22518000D02*
X68222000Y-26758000D01*
X68222000Y-26158000D02*
X70462000Y-26158000D01*
X68222000Y-25918000D02*
X70462000Y-25918000D01*
X69342000Y-21868000D02*
X69342000Y-22518000D01*
X70462000Y-22518000D02*
X68222000Y-22518000D01*
X68222000Y-26038000D02*
X70462000Y-26038000D01*
X70462000Y-26758000D02*
X70462000Y-22518000D01*
%TO.C,SW13*%
X61516000Y-62282000D02*
X67516000Y-62282000D01*
X67516000Y-62282000D02*
X67516000Y-68282000D01*
X67516000Y-68282000D02*
X61516000Y-68282000D01*
X61516000Y-68282000D02*
X61516000Y-62282000D01*
%TO.C,SW14*%
X72692000Y-62282000D02*
X78692000Y-62282000D01*
X78692000Y-62282000D02*
X78692000Y-68282000D01*
X78692000Y-68282000D02*
X72692000Y-68282000D01*
X72692000Y-68282000D02*
X72692000Y-62282000D01*
%TO.C,SW6*%
X72692000Y-43740000D02*
X78692000Y-43740000D01*
X78692000Y-43740000D02*
X78692000Y-49740000D01*
X78692000Y-49740000D02*
X72692000Y-49740000D01*
X72692000Y-49740000D02*
X72692000Y-43740000D01*
%TO.C,D4*%
X51458000Y-28578000D02*
X53698000Y-28578000D01*
X51458000Y-28698000D02*
X53698000Y-28698000D01*
X51458000Y-25058000D02*
X51458000Y-29298000D01*
X53698000Y-25058000D02*
X51458000Y-25058000D01*
X52578000Y-29948000D02*
X52578000Y-29298000D01*
X52578000Y-24408000D02*
X52578000Y-25058000D01*
X51458000Y-29298000D02*
X53698000Y-29298000D01*
X51458000Y-28458000D02*
X53698000Y-28458000D01*
X53698000Y-29298000D02*
X53698000Y-25058000D01*
D13*
%TO.C,MCU1*%
X45574000Y-55226750D02*
X45574000Y-24746750D01*
X27794000Y-24746750D02*
X27794000Y-55226750D01*
X27794000Y-22206750D02*
X27794000Y-24746750D01*
X45574000Y-22206750D02*
X27794000Y-22206750D01*
X45574000Y-24746750D02*
X45574000Y-22206750D01*
X30334000Y-27286750D02*
X27794000Y-27286750D01*
X27794000Y-55226750D02*
X45574000Y-55226750D01*
X30334000Y-24746750D02*
X27794000Y-24746750D01*
X30334000Y-24746750D02*
X30334000Y-27286750D01*
G36*
X41615568Y-31426110D02*
G01*
X41515568Y-31426110D01*
X41515568Y-31226110D01*
X41615568Y-31226110D01*
X41615568Y-31426110D01*
G37*
D10*
X41615568Y-31426110D02*
X41515568Y-31426110D01*
X41515568Y-31226110D01*
X41615568Y-31226110D01*
X41615568Y-31426110D01*
G36*
X41615568Y-30726110D02*
G01*
X41115568Y-30726110D01*
X41115568Y-30626110D01*
X41615568Y-30626110D01*
X41615568Y-30726110D01*
G37*
X41615568Y-30726110D02*
X41115568Y-30726110D01*
X41115568Y-30626110D01*
X41615568Y-30626110D01*
X41615568Y-30726110D01*
G36*
X41415568Y-31126110D02*
G01*
X41315568Y-31126110D01*
X41315568Y-31026110D01*
X41415568Y-31026110D01*
X41415568Y-31126110D01*
G37*
X41415568Y-31126110D02*
X41315568Y-31126110D01*
X41315568Y-31026110D01*
X41415568Y-31026110D01*
X41415568Y-31126110D01*
G36*
X41215568Y-31426110D02*
G01*
X41115568Y-31426110D01*
X41115568Y-30626110D01*
X41215568Y-30626110D01*
X41215568Y-31426110D01*
G37*
X41215568Y-31426110D02*
X41115568Y-31426110D01*
X41115568Y-30626110D01*
X41215568Y-30626110D01*
X41215568Y-31426110D01*
G36*
X41615568Y-30926110D02*
G01*
X41515568Y-30926110D01*
X41515568Y-30626110D01*
X41615568Y-30626110D01*
X41615568Y-30926110D01*
G37*
X41615568Y-30926110D02*
X41515568Y-30926110D01*
X41515568Y-30626110D01*
X41615568Y-30626110D01*
X41615568Y-30926110D01*
D12*
%TO.C,D15*%
X93322000Y-26758000D02*
X93322000Y-22518000D01*
X91082000Y-26158000D02*
X93322000Y-26158000D01*
X93322000Y-22518000D02*
X91082000Y-22518000D01*
X91082000Y-22518000D02*
X91082000Y-26758000D01*
X91082000Y-25918000D02*
X93322000Y-25918000D01*
X92202000Y-27408000D02*
X92202000Y-26758000D01*
X91082000Y-26758000D02*
X93322000Y-26758000D01*
X92202000Y-21868000D02*
X92202000Y-22518000D01*
X91082000Y-26038000D02*
X93322000Y-26038000D01*
%TO.C,D3*%
X82700000Y-26328000D02*
X82700000Y-30568000D01*
X83820000Y-31218000D02*
X83820000Y-30568000D01*
X82700000Y-29728000D02*
X84940000Y-29728000D01*
X83820000Y-25678000D02*
X83820000Y-26328000D01*
X82700000Y-29968000D02*
X84940000Y-29968000D01*
X84940000Y-30568000D02*
X84940000Y-26328000D01*
X82700000Y-30568000D02*
X84940000Y-30568000D01*
X82700000Y-29848000D02*
X84940000Y-29848000D01*
X84940000Y-26328000D02*
X82700000Y-26328000D01*
D11*
%TO.C,ACT*%
X32270000Y-64211200D02*
X29730000Y-64211200D01*
X29679200Y-64211200D02*
G75*
G03*
X32321521Y-64211805I1320800J-1574800D01*
G01*
D12*
%TO.C,D12*%
X58166000Y-27408000D02*
X58166000Y-26758000D01*
X57046000Y-25918000D02*
X59286000Y-25918000D01*
X58166000Y-21868000D02*
X58166000Y-22518000D01*
X57046000Y-26758000D02*
X59286000Y-26758000D01*
X57046000Y-22518000D02*
X57046000Y-26758000D01*
X59286000Y-26758000D02*
X59286000Y-22518000D01*
X59286000Y-22518000D02*
X57046000Y-22518000D01*
X57046000Y-26038000D02*
X59286000Y-26038000D01*
X57046000Y-26158000D02*
X59286000Y-26158000D01*
%TO.C,D11*%
X90528000Y-23788000D02*
X88288000Y-23788000D01*
X89408000Y-28678000D02*
X89408000Y-28028000D01*
X89408000Y-23138000D02*
X89408000Y-23788000D01*
X88288000Y-28028000D02*
X90528000Y-28028000D01*
X88288000Y-27188000D02*
X90528000Y-27188000D01*
X88288000Y-27428000D02*
X90528000Y-27428000D01*
X88288000Y-27308000D02*
X90528000Y-27308000D01*
X90528000Y-28028000D02*
X90528000Y-23788000D01*
X88288000Y-23788000D02*
X88288000Y-28028000D01*
%TO.C,D10*%
X77978000Y-23138000D02*
X77978000Y-23788000D01*
X76858000Y-23788000D02*
X76858000Y-28028000D01*
X76858000Y-27188000D02*
X79098000Y-27188000D01*
X76858000Y-27308000D02*
X79098000Y-27308000D01*
X76858000Y-27428000D02*
X79098000Y-27428000D01*
X76858000Y-28028000D02*
X79098000Y-28028000D01*
X79098000Y-23788000D02*
X76858000Y-23788000D01*
X79098000Y-28028000D02*
X79098000Y-23788000D01*
X77978000Y-28678000D02*
X77978000Y-28028000D01*
%TO.C,D8*%
X55372000Y-23138000D02*
X55372000Y-23788000D01*
X54252000Y-27188000D02*
X56492000Y-27188000D01*
X56492000Y-28028000D02*
X56492000Y-23788000D01*
X55372000Y-28678000D02*
X55372000Y-28028000D01*
X54252000Y-28028000D02*
X56492000Y-28028000D01*
X54252000Y-27428000D02*
X56492000Y-27428000D01*
X54252000Y-27308000D02*
X56492000Y-27308000D01*
X54252000Y-23788000D02*
X54252000Y-28028000D01*
X56492000Y-23788000D02*
X54252000Y-23788000D01*
%TO.C,SW12*%
X50340000Y-62282000D02*
X56340000Y-62282000D01*
X56340000Y-62282000D02*
X56340000Y-68282000D01*
X56340000Y-68282000D02*
X50340000Y-68282000D01*
X50340000Y-68282000D02*
X50340000Y-62282000D01*
%TO.C,SW5*%
X61516000Y-43700000D02*
X67516000Y-43700000D01*
X67516000Y-43700000D02*
X67516000Y-49700000D01*
X67516000Y-49700000D02*
X61516000Y-49700000D01*
X61516000Y-49700000D02*
X61516000Y-43700000D01*
D11*
%TO.C,PWR*%
X32270000Y-57171200D02*
X29730000Y-57171200D01*
X29679200Y-57171200D02*
G75*
G03*
X32321521Y-57171805I1320800J-1574800D01*
G01*
D12*
%TO.C,SW9*%
X61516000Y-52884000D02*
X67516000Y-52884000D01*
X67516000Y-52884000D02*
X67516000Y-58884000D01*
X67516000Y-58884000D02*
X61516000Y-58884000D01*
X61516000Y-58884000D02*
X61516000Y-52884000D01*
%TO.C,D14*%
X79652000Y-25918000D02*
X81892000Y-25918000D01*
X80772000Y-27408000D02*
X80772000Y-26758000D01*
X81892000Y-26758000D02*
X81892000Y-22518000D01*
X79652000Y-22518000D02*
X79652000Y-26758000D01*
X79652000Y-26758000D02*
X81892000Y-26758000D01*
X79652000Y-26038000D02*
X81892000Y-26038000D01*
X81892000Y-22518000D02*
X79652000Y-22518000D01*
X80772000Y-21868000D02*
X80772000Y-22518000D01*
X79652000Y-26158000D02*
X81892000Y-26158000D01*
%TO.C,PWR-R1*%
X33750000Y-70766000D02*
X27210000Y-70766000D01*
X33750000Y-73506000D02*
X33750000Y-70766000D01*
X26440000Y-72136000D02*
X27210000Y-72136000D01*
X27210000Y-73506000D02*
X33750000Y-73506000D01*
X34520000Y-72136000D02*
X33750000Y-72136000D01*
X27210000Y-70766000D02*
X27210000Y-73506000D01*
%TO.C,SW1*%
X61516000Y-34596000D02*
X67516000Y-34596000D01*
X67516000Y-34596000D02*
X67516000Y-40596000D01*
X67516000Y-40596000D02*
X61516000Y-40596000D01*
X61516000Y-40596000D02*
X61516000Y-34596000D01*
%TO.C,SW15*%
X72692000Y-71680000D02*
X78692000Y-71680000D01*
X78692000Y-71680000D02*
X78692000Y-77680000D01*
X78692000Y-77680000D02*
X72692000Y-77680000D01*
X72692000Y-77680000D02*
X72692000Y-71680000D01*
%TO.C,D7*%
X87734000Y-29298000D02*
X87734000Y-25058000D01*
X87734000Y-25058000D02*
X85494000Y-25058000D01*
X86614000Y-24408000D02*
X86614000Y-25058000D01*
X85494000Y-25058000D02*
X85494000Y-29298000D01*
X85494000Y-28578000D02*
X87734000Y-28578000D01*
X86614000Y-29948000D02*
X86614000Y-29298000D01*
X85494000Y-28698000D02*
X87734000Y-28698000D01*
X85494000Y-28458000D02*
X87734000Y-28458000D01*
X85494000Y-29298000D02*
X87734000Y-29298000D01*
%TO.C,D6*%
X76304000Y-25058000D02*
X74064000Y-25058000D01*
X75184000Y-24408000D02*
X75184000Y-25058000D01*
X75184000Y-29948000D02*
X75184000Y-29298000D01*
X74064000Y-29298000D02*
X76304000Y-29298000D01*
X74064000Y-25058000D02*
X74064000Y-29298000D01*
X74064000Y-28578000D02*
X76304000Y-28578000D01*
X76304000Y-29298000D02*
X76304000Y-25058000D01*
X74064000Y-28698000D02*
X76304000Y-28698000D01*
X74064000Y-28458000D02*
X76304000Y-28458000D01*
%TO.C,SW0*%
X50340000Y-34596000D02*
X56340000Y-34596000D01*
X56340000Y-34596000D02*
X56340000Y-40596000D01*
X56340000Y-40596000D02*
X50340000Y-40596000D01*
X50340000Y-40596000D02*
X50340000Y-34596000D01*
%TO.C,SW10*%
X72692000Y-52884000D02*
X78692000Y-52884000D01*
X78692000Y-52884000D02*
X78692000Y-58884000D01*
X78692000Y-58884000D02*
X72692000Y-58884000D01*
X72692000Y-58884000D02*
X72692000Y-52884000D01*
%TO.C,D2*%
X71270000Y-29848000D02*
X73510000Y-29848000D01*
X73510000Y-26328000D02*
X71270000Y-26328000D01*
X71270000Y-26328000D02*
X71270000Y-30568000D01*
X73510000Y-30568000D02*
X73510000Y-26328000D01*
X71270000Y-29728000D02*
X73510000Y-29728000D01*
X71270000Y-30568000D02*
X73510000Y-30568000D01*
X72390000Y-31218000D02*
X72390000Y-30568000D01*
X71270000Y-29968000D02*
X73510000Y-29968000D01*
X72390000Y-25678000D02*
X72390000Y-26328000D01*
%TO.C,D9*%
X65428000Y-27428000D02*
X67668000Y-27428000D01*
X65428000Y-27308000D02*
X67668000Y-27308000D01*
X65428000Y-27188000D02*
X67668000Y-27188000D01*
X67668000Y-28028000D02*
X67668000Y-23788000D01*
X65428000Y-28028000D02*
X67668000Y-28028000D01*
X66548000Y-23138000D02*
X66548000Y-23788000D01*
X66548000Y-28678000D02*
X66548000Y-28028000D01*
X65428000Y-23788000D02*
X65428000Y-28028000D01*
X67668000Y-23788000D02*
X65428000Y-23788000D01*
%TO.C,D0*%
X48664000Y-29728000D02*
X50904000Y-29728000D01*
X48664000Y-26328000D02*
X48664000Y-30568000D01*
X48664000Y-29848000D02*
X50904000Y-29848000D01*
X49784000Y-25678000D02*
X49784000Y-26328000D01*
X50904000Y-30568000D02*
X50904000Y-26328000D01*
X49784000Y-31218000D02*
X49784000Y-30568000D01*
X48664000Y-29968000D02*
X50904000Y-29968000D01*
X48664000Y-30568000D02*
X50904000Y-30568000D01*
X50904000Y-26328000D02*
X48664000Y-26328000D01*
%TO.C,SW4*%
X50340000Y-43740000D02*
X56340000Y-43740000D01*
X56340000Y-43740000D02*
X56340000Y-49740000D01*
X56340000Y-49740000D02*
X50340000Y-49740000D01*
X50340000Y-49740000D02*
X50340000Y-43740000D01*
%TO.C,ACT-R1*%
X26440000Y-75438000D02*
X27210000Y-75438000D01*
X27210000Y-76808000D02*
X33750000Y-76808000D01*
X33750000Y-74068000D02*
X27210000Y-74068000D01*
X34520000Y-75438000D02*
X33750000Y-75438000D01*
X27210000Y-74068000D02*
X27210000Y-76808000D01*
X33750000Y-76808000D02*
X33750000Y-74068000D01*
%TO.C,D17*%
X43330000Y-62868000D02*
X45570000Y-62868000D01*
X43330000Y-62748000D02*
X45570000Y-62748000D01*
X44450000Y-58698000D02*
X44450000Y-59348000D01*
X43330000Y-63588000D02*
X45570000Y-63588000D01*
X44450000Y-64238000D02*
X44450000Y-63588000D01*
X43330000Y-59348000D02*
X43330000Y-63588000D01*
X43330000Y-62988000D02*
X45570000Y-62988000D01*
X45570000Y-63588000D02*
X45570000Y-59348000D01*
X45570000Y-59348000D02*
X43330000Y-59348000D01*
%TO.C,SW11*%
X84122000Y-66854000D02*
X90122000Y-66854000D01*
X90122000Y-66854000D02*
X90122000Y-72854000D01*
X90122000Y-72854000D02*
X84122000Y-72854000D01*
X84122000Y-72854000D02*
X84122000Y-66854000D01*
%TD*%
D14*
%TO.C,MCU1*%
X29064000Y-26016750D03*
D15*
X29064000Y-28556750D03*
X29064000Y-31096750D03*
X29064000Y-33636750D03*
X29064000Y-36176750D03*
X29064000Y-38716750D03*
X29064000Y-41256750D03*
X29064000Y-43796750D03*
X29064000Y-46336750D03*
X29064000Y-48876750D03*
X29064000Y-51416750D03*
X29292600Y-53956750D03*
X44304000Y-53956750D03*
X44304000Y-51416750D03*
X44304000Y-48876750D03*
X44304000Y-46336750D03*
X44304000Y-43796750D03*
X44304000Y-41256750D03*
X44304000Y-38716750D03*
X44304000Y-36176750D03*
X44304000Y-33636750D03*
X44304000Y-31096750D03*
X44304000Y-28556750D03*
X44304000Y-26016750D03*
X31604000Y-53956750D03*
X34144000Y-53956750D03*
X36684000Y-53956750D03*
X39224000Y-53956750D03*
X41764000Y-53956750D03*
%TD*%
D16*
%TO.C,ACT*%
X31000000Y-67310000D03*
D17*
X31000000Y-64770000D03*
%TD*%
D16*
%TO.C,PWR*%
X31000000Y-60270000D03*
D17*
X31000000Y-57730000D03*
%TD*%
M02*
